<svg width="50" height="50" viewBox="0 0 50 50" fill="none" xmlns="http://www.w3.org/2000/svg">
    <path d="M14.5833 33.3333C15.7291 33.3333 16.6666 34.2708 16.6666 35.4167C16.6666 37.7083 14.7916 39.5833 12.5 39.5833C12.1458 39.5833 11.8125 39.5417 11.4583 39.4792C12.1041 38.3333 12.5 36.9583 12.5 35.4167C12.5 34.2708 13.4375 33.3333 14.5833 33.3333ZM38.8958 6.25C38.3541 6.25 37.8333 6.45833 37.4166 6.85417L18.75 25.5208L24.4791 31.25L43.1458 12.5833C43.9583 11.7708 43.9583 10.4583 43.1458 9.64583L40.3541 6.85417C39.9375 6.4375 39.4166 6.25 38.8958 6.25ZM14.5833 29.1667C11.125 29.1667 8.33329 31.9583 8.33329 35.4167C8.33329 38.1458 5.91663 39.5833 4.16663 39.5833C6.08329 42.125 9.35413 43.75 12.5 43.75C17.1041 43.75 20.8333 40.0208 20.8333 35.4167C20.8333 31.9583 18.0416 29.1667 14.5833 29.1667Z" fill="#232323"/>
</svg>
