<svg width="50" height="50" viewBox="0 0 50 50" fill="none" xmlns="http://www.w3.org/2000/svg">
    <path d="M33.1332 27.1888L28.7138 31.6082L41.2059 44.1003L45.6253 39.6809L33.1332 27.1888Z" fill="#232323"/>
    <path d="M36.4583 20.8334C40.4791 20.8334 43.7499 17.5625 43.7499 13.5417C43.7499 12.3334 43.4166 11.2084 42.8958 10.2084L37.2708 15.8334L34.1666 12.7292L39.7916 7.10421C38.7916 6.58337 37.6666 6.25004 36.4583 6.25004C32.4374 6.25004 29.1666 9.52087 29.1666 13.5417C29.1666 14.3959 29.3333 15.2084 29.6041 15.9584L25.7499 19.8125L22.0416 16.1042L23.5208 14.625L20.5833 11.6875L24.9999 7.27087C22.5624 4.83337 18.6041 4.83337 16.1666 7.27087L8.79161 14.6459L11.7291 17.5834H5.85411L4.37494 19.0625L11.7499 26.4375L13.2291 24.9584V19.0625L16.1666 22L17.6458 20.5209L21.3541 24.2292L5.91661 39.6667L10.3333 44.0834L34.0416 20.3959C34.7916 20.6667 35.6041 20.8334 36.4583 20.8334Z" fill="#232323"/>
</svg>
