<svg width="162" height="30" viewBox="0 0 162 30" fill="none" xmlns="http://www.w3.org/2000/svg">
<g clip-path="url(#clip0)">
<path d="M-0.0889893 23.0462V14.9632C-0.0889893 10.6839 2.01296 8.54429 6.21685 8.54429H12.2113V0.144287H17.5829V29.465H6.21685C2.01296 29.465 -0.0889893 27.3254 -0.0889893 23.0462ZM5.28265 23.4396C5.28265 24.2867 5.69785 24.7103 6.52825 24.7103H12.2113V13.3018H6.52825C5.69785 13.3018 5.28265 13.7226 5.28265 14.5641V23.4396Z" fill="#232323"/>
<path d="M28.4041 29.4652C24.2002 29.4652 22.0983 27.3652 22.0983 23.1652C22.0983 18.9652 24.2002 16.8642 28.4041 16.8624H33.7757V14.5642C33.7757 13.7227 33.3605 13.302 32.5301 13.302H24.2781V10.3275L26.6136 8.54443H32.8415C37.0454 8.54443 39.1474 10.6841 39.1474 14.9633V29.4652H28.4041ZM27.4699 23.4397C27.4699 24.2869 27.8851 24.7105 28.7155 24.7105H33.7757V21.1416H28.7155C27.8851 21.1416 27.4699 21.5652 27.4699 22.4124V23.4397Z" fill="#232323"/>
<path d="M44.4412 21.8575V0.144287H49.8128V22.4122C49.8128 24.0481 50.6469 24.9452 52.3151 25.1037V29.8613C47.064 29.8613 44.4393 27.1933 44.4412 21.8575Z" fill="#232323"/>
<path d="M61.8796 29.4652C57.6757 29.4652 55.5737 27.3652 55.5737 23.1652C55.5737 18.9652 57.6757 16.8642 61.8796 16.8624H67.2512V14.5642C67.2512 13.7152 66.8342 13.2992 66.0056 13.2992H57.7535V10.3275L60.089 8.54443H66.317C70.5209 8.54443 72.6229 10.6841 72.6229 14.9633V29.4652H61.8796ZM60.9454 23.4397C60.9454 24.2869 61.3606 24.7105 62.191 24.7105H67.2512V21.1416H62.191C61.3587 21.1416 60.9435 21.5652 60.9454 22.4124V23.4397Z" fill="#232323"/>
<path d="M77.7609 23.0463V14.9633C77.7609 10.6841 79.8628 8.54443 84.0667 8.54443H91.2956L93.6311 10.3275V13.302H84.3781C83.5477 13.302 83.1325 13.7227 83.1325 14.5642V23.4397C83.1325 24.2869 83.5477 24.7105 84.3781 24.7105H93.6422V27.6822L91.3067 29.4652H84.0778C79.8665 29.4652 77.7609 27.3256 77.7609 23.0463Z" fill="#232323"/>
<path d="M97.9213 23.0463V14.9633C97.9213 10.6841 100.023 8.54443 104.227 8.54443H109.677C113.88 8.54443 115.982 10.6841 115.982 14.9633V23.0463C115.982 27.3256 113.88 29.4652 109.677 29.4652H104.227C100.023 29.4652 97.9213 27.3256 97.9213 23.0463ZM103.293 23.4397C103.293 24.2888 103.71 24.7105 104.538 24.7105H109.365C110.196 24.7105 110.611 24.2869 110.611 23.4397V14.5642C110.611 13.7208 110.196 13.2992 109.365 13.2992H104.541C103.707 13.2992 103.296 13.7208 103.296 14.5642L103.293 23.4397Z" fill="#232323"/>
<path d="M120.965 23.0462V14.9632C120.965 10.6839 123.067 8.54429 127.271 8.54429H133.265V0.144287H138.637V29.465H127.271C123.067 29.465 120.965 27.3254 120.965 23.0462ZM126.336 23.4396C126.336 24.2886 126.754 24.7103 127.582 24.7103H133.265V13.3018H127.582C126.748 13.3018 126.336 13.7235 126.336 14.5669V23.4396Z" fill="#232323"/>
<path d="M143.931 23.0463V14.9633C143.931 10.6841 146.032 8.54443 150.236 8.54443H155.297C159.5 8.54443 161.602 10.6841 161.602 14.9633V21.0652H149.305V23.4397C149.305 24.2888 149.722 24.7105 150.551 24.7105H160.838V27.6822L158.502 29.4652H150.236C146.032 29.4652 143.931 27.3256 143.931 23.0463ZM149.305 16.7859H156.234V14.5642C156.234 13.7208 155.818 13.2992 154.988 13.2992H150.539C149.705 13.2992 149.294 13.7208 149.294 14.5642L149.305 16.7859Z" fill="#232323"/>
</g>
<defs>
<clipPath id="clip0">
<rect width="161.538" height="30" fill="white"/>
</clipPath>
</defs>
</svg>
