<svg width="50" height="50" viewBox="0 0 50 50" fill="none" xmlns="http://www.w3.org/2000/svg">
    <path d="M25 4.16663C13.5 4.16663 4.16663 13.5 4.16663 25C4.16663 36.5 13.5 45.8333 25 45.8333C36.5 45.8333 45.8333 36.5 45.8333 25C45.8333 13.5 36.5 4.16663 25 4.16663ZM40.5416 19L34.75 21.3958C33.6875 18.5625 31.4583 16.3125 28.6041 15.2708L31 9.47913C35.375 11.1458 38.8541 14.625 40.5416 19ZM25 31.25C21.5416 31.25 18.75 28.4583 18.75 25C18.75 21.5416 21.5416 18.75 25 18.75C28.4583 18.75 31.25 21.5416 31.25 25C31.25 28.4583 28.4583 31.25 25 31.25ZM19.0208 9.45829L21.4583 15.25C18.5833 16.2916 16.3125 18.5625 15.25 21.4375L9.45829 19.0208C11.1458 14.625 14.625 11.1458 19.0208 9.45829ZM9.45829 30.9791L15.25 28.5833C16.3125 31.4583 18.5625 33.7083 21.4375 34.75L19 40.5416C14.625 38.8541 11.1458 35.375 9.45829 30.9791ZM31 40.5416L28.6041 34.75C31.4583 33.6875 33.7083 31.4375 34.75 28.5625L40.5416 31C38.8541 35.375 35.375 38.8541 31 40.5416Z" fill="#232323"/>
</svg>
