<svg width="50" height="50" viewBox="0 0 50 50" fill="none" xmlns="http://www.w3.org/2000/svg">
    <path d="M13.2501 39.125L13.7709 43.75L17.1459 40.5417L22.9167 24.7084C21.5001 24.3542 20.2501 23.6459 19.2292 22.6667L13.2501 39.125Z" fill="#232323"/>
    <path d="M30.7709 22.6667C29.75 23.6459 28.4792 24.3542 27.0834 24.7084L32.8542 40.5417L36.2292 43.75L36.7709 39.125L30.7709 22.6667Z" fill="#232323"/>
    <path d="M31.25 16.6667C31.25 13.9583 29.5 11.6667 27.0833 10.7917V6.25H22.9167V10.7917C20.5 11.6667 18.75 13.9583 18.75 16.6667C18.75 20.125 21.5417 22.9167 25 22.9167C28.4583 22.9167 31.25 20.125 31.25 16.6667ZM25 18.75C23.8542 18.75 22.9167 17.8125 22.9167 16.6667C22.9167 15.5208 23.8542 14.5833 25 14.5833C26.1458 14.5833 27.0833 15.5208 27.0833 16.6667C27.0833 17.8125 26.1458 18.75 25 18.75Z" fill="#232323"/>
</svg>