<svg width="20" height="20" viewBox="0 0 20 20" fill="none" xmlns="http://www.w3.org/2000/svg">
    <g clip-path="url(#clip0)">
        <path d="M16.5958 10.8567C16.2725 10.4484 16.365 10.2667 16.5958 9.90169C16.6 9.89752 19.2692 6.20919 19.5442 4.95835L19.5458 4.95752C19.6825 4.50169 19.5458 4.16669 18.885 4.16669H16.6983C16.1417 4.16669 15.885 4.45419 15.7475 4.77585C15.7475 4.77585 14.6342 7.44085 13.0592 9.16835C12.5508 9.66752 12.3158 9.82752 12.0383 9.82752C11.9017 9.82752 11.6892 9.66752 11.6892 9.21169V4.95752C11.6892 4.41085 11.5333 4.16669 11.0725 4.16669H7.63417C7.285 4.16669 7.0775 4.42169 7.0775 4.65919C7.0775 5.17752 7.865 5.29669 7.94667 6.75502V9.91919C7.94667 10.6125 7.82083 10.74 7.54167 10.74C6.79833 10.74 4.99417 8.06419 3.925 5.00169C3.70917 4.40752 3.49833 4.16752 2.9375 4.16752H0.75C0.125833 4.16752 0 4.45502 0 4.77669C0 5.34502 0.743333 8.17085 3.45667 11.9042C5.265 14.4525 7.81167 15.8334 10.1283 15.8334C11.5208 15.8334 11.6908 15.5267 11.6908 14.9992C11.6908 12.5642 11.565 12.3342 12.2625 12.3342C12.5858 12.3342 13.1425 12.4942 14.4425 13.7234C15.9283 15.1809 16.1725 15.8334 17.0042 15.8334H19.1908C19.8142 15.8334 20.13 15.5267 19.9483 14.9217C19.5325 13.6492 16.7225 11.0317 16.5958 10.8567Z" fill="white"/>
    </g>
    <defs>
        <clipPath id="clip0">
            <rect width="20" height="20" fill="white"/>
        </clipPath>
    </defs>
</svg>
