<svg width="50" height="50" viewBox="0 0 50 50" fill="none" xmlns="http://www.w3.org/2000/svg">
    <path d="M45.8334 18.75V14.5833H41.6667V10.4167C41.6667 8.125 39.7917 6.25 37.5001 6.25H8.33341C6.04175 6.25 4.16675 8.125 4.16675 10.4167V39.5833C4.16675 41.875 6.04175 43.75 8.33341 43.75H37.5001C39.7917 43.75 41.6667 41.875 41.6667 39.5833V35.4167H45.8334V31.25H41.6667V27.0833H45.8334V22.9167H41.6667V18.75H45.8334ZM37.5001 39.5833H8.33341V10.4167H37.5001V39.5833ZM12.5001 27.0833H22.9167V35.4167H12.5001V27.0833ZM25.0001 14.5833H33.3334V20.8333H25.0001V14.5833ZM12.5001 14.5833H22.9167V25H12.5001V14.5833ZM25.0001 22.9167H33.3334V35.4167H25.0001V22.9167Z" fill="#232323"/>
</svg>
