<svg xmlns="http://www.w3.org/2000/svg" viewBox="0 0 500 500"><g id="freepik--background-simple--inject-281"><path d="M445,208.67c-8-30.65-21.31-59.24-35.23-78.85C376.27,82.7,298.46,62,244.72,81.71c-45.8,16.82-61.84,67.67-101.85,92-36.81,22.41-70.21,40.67-83.08,83.38-27.2,90.23,80.34,162.16,160.7,139.28,25.36-7.23,46.8-22.42,73.85-22.52,54.88-.19,74.22,7.34,118.61-22.31C456.7,322.36,459,262.35,445,208.67Z" style="fill:#304163"></path><path d="M445,208.67c-8-30.65-21.31-59.24-35.23-78.85C376.27,82.7,298.46,62,244.72,81.71c-45.8,16.82-61.84,67.67-101.85,92-36.81,22.41-70.21,40.67-83.08,83.38-27.2,90.23,80.34,162.16,160.7,139.28,25.36-7.23,46.8-22.42,73.85-22.52,54.88-.19,74.22,7.34,118.61-22.31C456.7,322.36,459,262.35,445,208.67Z" style="fill:#fff;opacity:0.8"></path></g><g id="freepik--Clouds--inject-281"><path d="M442.19,258.09c-3-1.64-4.39-.27-5.48-1.64s3-4.93-5.21-8.5c0,0-.55-7.67-11.78-7.94s-8.23,7.67-11.24,9.59-3.84-1.1-6.85.82-1.64,5.75-4.11,6.3-5.76-2.46-8.77-.55-3,3.57-4.38,3.57-4.11-1.1-5.76,0-3.56,2.46-3.56,2.46h69.33S445.2,259.74,442.19,258.09Z" style="fill:#304163"></path><path d="M442.19,258.09c-3-1.64-4.39-.27-5.48-1.64s3-4.93-5.21-8.5c0,0-.55-7.67-11.78-7.94s-8.23,7.67-11.24,9.59-3.84-1.1-6.85.82-1.64,5.75-4.11,6.3-5.76-2.46-8.77-.55-3,3.57-4.38,3.57-4.11-1.1-5.76,0-3.56,2.46-3.56,2.46h69.33S445.2,259.74,442.19,258.09Z" style="fill:#fff;opacity:0.5"></path><path d="M406.82,140.07c-4.18-2.28-6.07-.38-7.59-2.28S403.4,131,392,126c0,0-.75-10.63-16.32-11s-11.39,10.63-15.57,13.29-5.31-1.52-9.49,1.14-2.28,8-5.69,8.73-8-3.42-12.15-.76-4.18,4.94-6.08,4.94-5.69-1.52-8,0-4.93,3.41-4.93,3.41h96.05S411,142.35,406.82,140.07Z" style="fill:#304163"></path><path d="M406.82,140.07c-4.18-2.28-6.07-.38-7.59-2.28S403.4,131,392,126c0,0-.75-10.63-16.32-11s-11.39,10.63-15.57,13.29-5.31-1.52-9.49,1.14-2.28,8-5.69,8.73-8-3.42-12.15-.76-4.18,4.94-6.08,4.94-5.69-1.52-8,0-4.93,3.41-4.93,3.41h96.05S411,142.35,406.82,140.07Z" style="fill:#fff;opacity:0.5"></path><path d="M338.3,137.73c-5.89-3.22-8.57-.54-10.71-3.22s5.89-9.64-10.18-16.61c0,0-1.07-15-23-15.53s-16.07,15-22,18.75-7.5-2.14-13.39,1.61-3.22,11.25-8,12.32-11.25-4.82-17.14-1.07-5.9,7-8.58,7-8-2.14-11.25,0-7,4.82-7,4.82H342.59S344.2,140.94,338.3,137.73Z" style="fill:#304163"></path><path d="M338.3,137.73c-5.89-3.22-8.57-.54-10.71-3.22s5.89-9.64-10.18-16.61c0,0-1.07-15-23-15.53s-16.07,15-22,18.75-7.5-2.14-13.39,1.61-3.22,11.25-8,12.32-11.25-4.82-17.14-1.07-5.9,7-8.58,7-8-2.14-11.25,0-7,4.82-7,4.82H342.59S344.2,140.94,338.3,137.73Z" style="fill:#fff;opacity:0.5"></path></g><g id="freepik--Plants--inject-281"><path d="M55.05,228.05c1.66.72,5.71.63,5.71.63s-.87-2.65-.95-2.81c-.88-1.86-3.7-4.93-6-4.62a2.72,2.72,0,0,0-2.19,3.42C52,226.25,53.64,227.43,55.05,228.05Z" style="fill:#263238"></path><path d="M108.12,214.26c-2.3-.25-5,2.9-5.86,4.78-.08.16-.92,2.84-.87,2.84h0c-.43.5-.89,1-1.38,1.62-.9,1.11-1.9,2.36-2.9,3.8a47.12,47.12,0,0,0-3,4.79,35.57,35.57,0,0,0-2.57,5.79.25.25,0,0,0,0,.07c0-.67,0-2.56,0-2.71-.27-2-2-5.83-4.25-6.25a2.72,2.72,0,0,0-3.15,2.56c-.13,1.63,1,3.25,2.19,4.28,1.3,1.15,4.89,2.28,5.18,2.36A48.22,48.22,0,0,0,90,244.45c-.22,1.24-.4,2.49-.57,3.74,0-.58,0-1.1,0-1.18-.27-2-2-5.83-4.25-6.25A2.73,2.73,0,0,0,82,243.33c-.13,1.62,1.05,3.24,2.19,4.27s4.21,2.06,5,2.31L89,251.36c-.28,2.32-.54,4.63-.87,6.89-.12.8-.26,1.58-.4,2.36,0-.52,0-1,0-1-.27-2-2-5.83-4.25-6.25a2.74,2.74,0,0,0-3.15,2.57c-.13,1.62,1,3.25,2.19,4.27a17.63,17.63,0,0,0,4.88,2.27c-.17.79-.34,1.59-.54,2.35-.15.52-.25,1-.43,1.54s-.33,1-.49,1.52c-.34.95-.7,1.94-1.06,2.86-.24.64-.49,1.25-.74,1.86.13-.79.34-2.34.34-2.47A10.58,10.58,0,0,0,83,264.94a4.08,4.08,0,0,0,0-.61A2.73,2.73,0,0,0,79.64,262c-2.23.59-3.64,4.5-3.75,6.56,0,.12.07,1.45.14,2.28-.11-.48-.22-.95-.34-1.45-.23-1-.5-2-.77-3-.16-.5-.31-1-.47-1.52s-.36-1-.53-1.56c-.45-1.21-1-2.41-1.49-3.61.87-.21,3.92-1,5.15-1.93s2.51-2.47,2.5-4.1a2.72,2.72,0,0,0-3-2.79c-2.29.25-4.28,3.9-4.7,5.92,0,.13-.16,1.61-.22,2.42-.33-.71-.65-1.43-1-2.15-1-2.06-2.12-4.12-3.22-6.18-.33-.63-.66-1.26-1-1.89.3-.07,4-.92,5.33-2,1.22-.94,2.52-2.48,2.5-4.1a2.73,2.73,0,0,0-3-2.8c-2.29.25-4.28,3.9-4.7,5.92,0,.15-.22,2.29-.24,2.83-.73-1.39-1.43-2.78-2.08-4.18a49.74,49.74,0,0,1-2.25-5.82c.15,0,4-.9,5.37-2,1.22-.94,2.51-2.47,2.5-4.1a2.73,2.73,0,0,0-3-2.8c-2.29.25-4.28,3.91-4.7,5.93,0,.16-.24,2.45-.25,2.87,0-.12-.08-.23-.11-.35a35,35,0,0,1-1.17-6.14c-.13-1.15-.19-2.25-.22-3.32.72-.09,4-.53,5.42-1.37s2.77-2.17,2.94-3.8a2.74,2.74,0,0,0-2.63-3.1c-2.31,0-4.69,3.41-5.32,5.37,0,.11-.27,1.23-.43,2,0-.48,0-1,0-1.45,0-1.74.12-3.34.22-4.76.07-.8.15-1.53.23-2.2.67-.46,3.34-2.35,4.16-3.69s1.46-3.22.86-4.73a2.74,2.74,0,0,0-3.76-1.55c-2,1.06-2.59,5.19-2.25,7.22,0,.18.8,2.87.84,2.85l0,0c-.09.65-.18,1.35-.26,2.12-.14,1.41-.29,3-.33,4.77a47.48,47.48,0,0,0,.13,5.65,35.79,35.79,0,0,0,1,6.25.19.19,0,0,1,0,.07c-.36-.57-1.43-2.13-1.52-2.24-1.35-1.56-4.87-3.78-7-2.88a2.73,2.73,0,0,0-1.21,3.88c.79,1.43,2.67,2.14,4.19,2.36,1.72.25,5.33-.8,5.62-.88A48.52,48.52,0,0,0,64.26,245c.5,1.16,1,2.3,1.59,3.44-.33-.48-.63-.91-.68-1-1.35-1.56-4.87-3.77-7-2.87A2.73,2.73,0,0,0,57,248.44c.78,1.43,2.66,2.13,4.19,2.35s4.64-.6,5.46-.83c.22.43.43.87.64,1.3,1,2.09,2.11,4.16,3.08,6.23.34.73.65,1.46,1,2.19l-.58-.84c-1.35-1.56-4.87-3.78-7-2.88a2.73,2.73,0,0,0-1.21,3.88c.79,1.43,2.66,2.14,4.19,2.36a17.55,17.55,0,0,0,5.31-.8c.3.76.6,1.52.86,2.26.16.52.35,1,.49,1.52s.28,1,.43,1.54c.23,1,.48,2,.69,3,.15.67.28,1.31.41,2-.33-.73-1-2.14-1.09-2.25-1.09-1.75-4.24-4.47-6.47-3.9a2.73,2.73,0,0,0-1.79,3.65c.56,1.53,2.31,2.51,3.78,3,1.62.5,5.21,0,5.66,0,.22,1.08.42,2.12.59,3.11.6,3.43,1,6.3,1.21,8.32,0,.36.07.68.11,1h-7l2.54,3.22H84.31l2.54-3.22H80.38c0-.1.09-.19.14-.3.89-1.85,2.12-4.51,3.45-7.76.42-1,.85-2.13,1.29-3.27.43.09,4,.81,5.64.44,1.5-.34,3.32-1.19,4-2.68a2.72,2.72,0,0,0-1.51-3.77c-2.19-.74-5.53,1.75-6.75,3.41-.07.09-.74,1.24-1.14,2,.17-.46.35-.91.52-1.4.35-.95.67-1.91,1-2.94l.45-1.53c.17-.5.27-1.06.41-1.59.3-1.25.54-2.53.76-3.83.83.3,3.81,1.34,5.35,1.23s3.46-.67,4.35-2a2.72,2.72,0,0,0-.92-3.95c-2.05-1.06-5.73.89-7.19,2.34-.09.09-1,1.25-1.52,1.9.13-.78.25-1.56.35-2.35.28-2.29.5-4.61.73-6.93.06-.71.14-1.42.22-2.13.29.11,3.81,1.42,5.53,1.3,1.54-.11,3.46-.67,4.35-2a2.74,2.74,0,0,0-.91-4c-2.06-1.05-5.73.9-7.19,2.35-.11.11-1.45,1.78-1.77,2.22.16-1.55.34-3.11.58-4.63a48.26,48.26,0,0,1,1.33-6.09c.14.05,3.8,1.43,5.57,1.3,1.53-.1,3.46-.67,4.35-2a2.73,2.73,0,0,0-.92-4c-2-1.06-5.73.89-7.19,2.34-.11.12-1.55,1.92-1.79,2.26,0-.11.06-.24.1-.35a34.91,34.91,0,0,1,2.41-5.77c.52-1,1.08-2,1.65-2.89.65.32,3.67,1.79,5.27,1.85s3.51-.29,4.55-1.55a2.72,2.72,0,0,0-.48-4c-1.92-1.28-5.79.26-7.4,1.54-.09.07-.9.88-1.49,1.48.27-.41.53-.84.79-1.23,1-1.45,1.93-2.72,2.81-3.84.5-.63,1-1.2,1.4-1.72.81,0,4.08-.11,5.51-.78s3-1.88,3.32-3.47A2.73,2.73,0,0,0,108.12,214.26ZM82.71,275.91c-1.39,3.19-2.66,5.79-3.58,7.6-.19.37-.35.69-.51,1h-.15c0-.36-.09-.74-.15-1.17-.28-2-.72-4.93-1.41-8.38-.21-1.09-.46-2.25-.73-3.44A31.24,31.24,0,0,0,79.33,270a20.1,20.1,0,0,0,4.6,3C83.52,274,83.11,275,82.71,275.91Z" style="fill:#263238"></path><path d="M96,228.94s.73-2.69.76-2.87c.28-2-.37-6.15-2.45-7.16a2.73,2.73,0,0,0-3.71,1.65c-.56,1.53.14,3.41,1,4.7C92.59,226.78,96,228.94,96,228.94Z" style="fill:#263238"></path><path d="M283.2,238.63c2.27,1,7.82.86,7.82.86s-1.19-3.63-1.29-3.85c-1.22-2.54-5.07-6.75-8.2-6.32a3.73,3.73,0,0,0-3,4.68C279.05,236.17,281.27,237.78,283.2,238.63Z" style="fill:#304163"></path><path d="M355.86,219.75c-3.14-.34-6.87,4-8,6.54-.1.23-1.25,3.89-1.19,3.89h.06c-.59.67-1.22,1.4-1.89,2.22-1.23,1.51-2.61,3.22-4,5.19a67.88,67.88,0,0,0-4.12,6.57,49.39,49.39,0,0,0-3.52,7.92l0,.1c0-.92,0-3.51-.05-3.71-.36-2.8-2.71-8-5.81-8.57a3.75,3.75,0,0,0-4.32,3.52c-.18,2.22,1.43,4.45,3,5.85,1.77,1.58,6.69,3.12,7.08,3.24a66.75,66.75,0,0,0-2.08,8.58c-.3,1.69-.55,3.41-.78,5.12,0-.8,0-1.51,0-1.61-.36-2.8-2.71-8-5.82-8.57a3.74,3.74,0,0,0-4.31,3.52c-.18,2.22,1.43,4.45,3,5.85s5.76,2.82,6.87,3.17c-.08.66-.17,1.32-.25,2-.37,3.17-.74,6.34-1.19,9.43-.16,1.09-.36,2.16-.55,3.23,0-.71,0-1.31,0-1.4-.36-2.8-2.71-8-5.81-8.57a3.75,3.75,0,0,0-4.32,3.52c-.18,2.22,1.43,4.45,3,5.85s5.36,2.68,6.68,3.11c-.23,1.09-.46,2.18-.73,3.22-.21.71-.35,1.41-.59,2.11s-.45,1.39-.68,2.08c-.47,1.3-.95,2.65-1.45,3.92-.33.87-.67,1.71-1,2.55.17-1.09.46-3.22.46-3.4a14.48,14.48,0,0,0-1.94-7.06,4.63,4.63,0,0,0-.05-.83,3.75,3.75,0,0,0-4.58-3.17c-3.05.81-5,6.17-5.13,9,0,.17.1,2,.19,3.12-.16-.66-.3-1.31-.47-2-.32-1.35-.68-2.69-1.06-4.13-.21-.69-.42-1.38-.63-2.09s-.49-1.42-.74-2.13c-.6-1.66-1.29-3.3-2-4.94,1.18-.28,5.37-1.35,7.05-2.64s3.44-3.38,3.43-5.61a3.75,3.75,0,0,0-4-3.83c-3.14.34-5.87,5.35-6.44,8.11,0,.17-.22,2.2-.3,3.32-.45-1-.89-2-1.38-2.95-1.41-2.83-2.91-5.64-4.41-8.46-.46-.87-.9-1.73-1.35-2.6.42-.09,5.42-1.25,7.3-2.7,1.67-1.28,3.45-3.38,3.43-5.61a3.75,3.75,0,0,0-4-3.83c-3.14.34-5.87,5.35-6.44,8.11,0,.21-.3,3.13-.33,3.88-1-1.91-2-3.82-2.84-5.73a66.3,66.3,0,0,1-3.08-8c.19,0,5.42-1.23,7.34-2.71,1.67-1.28,3.45-3.38,3.43-5.61a3.73,3.73,0,0,0-4-3.83c-3.14.34-5.86,5.34-6.43,8.11-.05.22-.33,3.36-.34,3.93,0-.16-.12-.32-.16-.47a46.87,46.87,0,0,1-1.6-8.41c-.18-1.57-.26-3.08-.31-4.55,1-.13,5.54-.73,7.42-1.87s3.8-3,4-5.2a3.74,3.74,0,0,0-3.59-4.25c-3.16,0-6.42,4.67-7.29,7.35,0,.15-.37,1.69-.58,2.81,0-.67,0-1.35,0-2,0-2.39.15-4.57.3-6.51.09-1.1.2-2.1.31-3,.92-.63,4.57-3.21,5.69-5.06s2-4.39,1.18-6.47a3.74,3.74,0,0,0-5.15-2.11c-2.8,1.45-3.54,7.1-3.08,9.88,0,.24,1.1,3.93,1.15,3.9l.05,0c-.12.89-.24,1.85-.35,2.9-.2,1.94-.39,4.13-.45,6.53a68.45,68.45,0,0,0,.18,7.74,49.44,49.44,0,0,0,1.44,8.55l0,.1c-.5-.78-2-2.91-2.09-3.07-1.85-2.13-6.67-5.17-9.58-3.93a3.73,3.73,0,0,0-1.65,5.31c1.07,1.95,3.64,2.92,5.73,3.23,2.35.34,7.3-1.1,7.69-1.21a66.31,66.31,0,0,0,3,8.3c.68,1.58,1.41,3.15,2.17,4.71-.45-.66-.86-1.25-.93-1.33-1.84-2.13-6.67-5.17-9.57-3.93a3.73,3.73,0,0,0-1.66,5.31c1.07,1.95,3.65,2.92,5.73,3.22s6.36-.83,7.48-1.14c.3.59.59,1.19.89,1.79,1.43,2.85,2.87,5.69,4.2,8.52.47,1,.9,2,1.33,3-.41-.59-.75-1.08-.81-1.15-1.85-2.13-6.67-5.17-9.58-3.94a3.74,3.74,0,0,0-1.65,5.32c1.07,1.95,3.64,2.92,5.73,3.22s6-.72,7.28-1.09c.41,1,.82,2.07,1.17,3.09.22.71.48,1.37.67,2.09s.39,1.41.58,2.1c.33,1.35.67,2.74.95,4.07.21.92.38,1.8.57,2.68-.46-1-1.39-2.93-1.49-3.08-1.5-2.39-5.81-6.12-8.87-5.34a3.74,3.74,0,0,0-2.44,5c.77,2.09,3.16,3.44,5.18,4,2.22.68,7.13.06,7.74,0,.3,1.47.57,2.9.8,4.25.83,4.69,1.34,8.63,1.66,11.39.06.49.1.93.15,1.34h-9.51l3.47,4.41h16.21l3.47-4.41h-8.86l.2-.4c1.21-2.54,2.9-6.18,4.72-10.63.58-1.41,1.17-2.92,1.76-4.48.59.12,5.46,1.11,7.72.6,2.06-.47,4.55-1.63,5.47-3.66a3.75,3.75,0,0,0-2.06-5.17c-3-1-7.57,2.4-9.25,4.67-.1.13-1,1.7-1.56,2.71.23-.64.47-1.26.71-1.92.48-1.3.92-2.62,1.39-4l.63-2.09c.22-.7.37-1.46.56-2.19.41-1.71.74-3.46,1-5.24,1.14.42,5.22,1.84,7.33,1.69s4.74-.92,6-2.79a3.73,3.73,0,0,0-1.26-5.42c-2.81-1.45-7.84,1.22-9.84,3.21-.12.12-1.4,1.71-2.08,2.6.17-1.07.34-2.13.47-3.22.39-3.13.69-6.31,1-9.49.09-1,.2-1.94.3-2.91.4.15,5.21,1.94,7.58,1.78,2.1-.15,4.74-.92,6-2.79a3.74,3.74,0,0,0-1.26-5.42c-2.81-1.45-7.84,1.22-9.84,3.21-.16.15-2,2.44-2.42,3,.22-2.13.47-4.25.79-6.34a68.18,68.18,0,0,1,1.82-8.35c.19.08,5.2,2,7.63,1.8,2.1-.15,4.74-.92,6-2.79a3.73,3.73,0,0,0-1.25-5.42c-2.81-1.45-7.85,1.22-9.85,3.21-.15.16-2.12,2.62-2.45,3.09.05-.16.08-.33.13-.48a47.77,47.77,0,0,1,3.31-7.9c.71-1.41,1.48-2.71,2.25-4,.9.45,5,2.45,7.22,2.54s4.81-.4,6.23-2.12a3.75,3.75,0,0,0-.66-5.53c-2.63-1.75-7.93.35-10.13,2.11-.12.1-1.23,1.21-2,2,.36-.56.71-1.14,1.07-1.67,1.32-2,2.65-3.73,3.85-5.26.68-.87,1.32-1.64,1.92-2.35,1.11,0,5.58-.16,7.54-1.08s4.09-2.56,4.55-4.75A3.74,3.74,0,0,0,355.86,219.75Zm-34.79,84.41c-1.89,4.37-3.64,7.94-4.9,10.41-.25.5-.48.94-.69,1.35h-.21c-.06-.48-.13-1-.21-1.6-.39-2.79-1-6.75-1.93-11.47-.29-1.49-.63-3.08-1-4.71a40,40,0,0,0,4.32-2c1.62,1.75,5.76,3.8,6.3,4.06C322.19,301.56,321.62,302.9,321.07,304.16Z" style="fill:#304163"></path><path d="M339.31,239.85s1-3.69,1-3.93c.39-2.79-.5-8.42-3.35-9.8a3.74,3.74,0,0,0-5.09,2.26c-.76,2.09.21,4.66,1.35,6.43C334.61,236.89,339.3,239.85,339.31,239.85Z" style="fill:#304163"></path></g><g id="freepik--Blocks--inject-281"><rect x="61.53" y="269.48" width="119.43" height="66.65" style="fill:#fff;stroke:#263238;stroke-linecap:round;stroke-linejoin:round"></rect><rect x="147.1" y="269.48" width="33.86" height="66.65" style="fill:#263238;stroke:#263238;stroke-linecap:round;stroke-linejoin:round"></rect><rect x="149.87" y="185.92" width="119.43" height="216.28" style="fill:#fff;stroke:#263238;stroke-linecap:round;stroke-linejoin:round"></rect><rect x="235.44" y="185.92" width="33.86" height="216.28" style="fill:#263238;stroke:#263238;stroke-linecap:round;stroke-linejoin:round"></rect><rect x="61.53" y="335.73" width="119.43" height="66.65" style="fill:#fff;stroke:#263238;stroke-linecap:round;stroke-linejoin:round"></rect><rect x="171.95" y="335.73" width="64.78" height="66.65" style="fill:#263238;stroke:#263238;stroke-linecap:round;stroke-linejoin:round"></rect><rect x="176.98" y="335.73" width="96.22" height="66.65" style="fill:#fff;stroke:#263238;stroke-linecap:round;stroke-linejoin:round"></rect><polygon points="277.12 301.23 214.97 219.49 180.94 219.49 180.94 240.8 134.99 301.23 277.12 301.23" style="fill:#263238;stroke:#263238;stroke-linecap:round;stroke-linejoin:round"></polygon><polygon points="180.94 219.49 118.78 301.23 243.09 301.23 180.94 219.49" style="fill:#fff;stroke:#263238;stroke-linecap:round;stroke-linejoin:round"></polygon><rect x="229.76" y="301.64" width="119.43" height="100.74" style="fill:#304163;stroke:#263238;stroke-linecap:round;stroke-linejoin:round"></rect><rect x="303.69" y="301.64" width="45.5" height="100.74" style="fill:#263238;stroke:#263238;stroke-linecap:round;stroke-linejoin:round"></rect><rect x="104.4" y="301.64" width="119.43" height="100.74" style="fill:#304163;stroke:#263238;stroke-linecap:round;stroke-linejoin:round"></rect><rect x="178.33" y="301.64" width="45.5" height="100.74" style="fill:#263238;stroke:#263238;stroke-linecap:round;stroke-linejoin:round"></rect></g><g id="freepik--character-2--inject-281"><path d="M364.62,310.06l-30.89-5s-1.74-3.85-2.63-4.74-6.08-.59-6.08-.59-1,.59.45,1.33,2.52.53,2.82,1,1.6,5.53,2.78,6a9.62,9.62,0,0,0,2.81.44s31.93,12.12,33.55,11.83,2.66-4.44,2.66-4.44Z" style="fill:#fff;stroke:#263238;stroke-linecap:round;stroke-linejoin:round"></path><path d="M330.37,304.58s-2.08-2.57-2.7-2.57-.61,1-.12,1.47a15.28,15.28,0,0,1,1.84,3.06c.61,1.23,2.94,1.47,2.94,1.47" style="fill:#fff;stroke:#263238;stroke-linecap:round;stroke-linejoin:round"></path><path d="M379.56,298.67,362,309.91,368,322.62l16.86-10.94S387.69,301.48,379.56,298.67Z" style="fill:#fff;stroke:#263238;stroke-linecap:round;stroke-linejoin:round"></path><polygon points="372.16 297.79 378.37 298.23 380 290.54 373.94 288.62 367.88 290.1 369.06 294.98 372.16 297.79" style="fill:#fff;stroke:#263238;stroke-linecap:round;stroke-linejoin:round"></polygon><path d="M355.16,293.35a9.5,9.5,0,0,1-4.28,1.48c-2.66.3-5.32-3-5.32-6.8s9.16-12.27,15.52-13.16,12.71,10.5,13.6,12.87-1.33,3.4-3.11,3.4-2.66-.15-3.25-.15.59,1.62-1.33,2.51-4.43.74-5.62,1.18S355.76,294.83,355.16,293.35Z" style="fill:#263238;stroke:#263238;stroke-linecap:round;stroke-linejoin:round"></path><path d="M352.8,290.84a25.26,25.26,0,0,0,3.55,5.91c2.07,2.37,4.14,2.07,4.28,2.66s.59,2.37,1.78,2.81a2.36,2.36,0,0,0,2.21-.44s5.18,1.77,6.8,1.18,2.22-5.47,1.78-7.09a9.32,9.32,0,0,0-2.37-3.4s-.14-4.88-2.21-5.33-4,1.78-3.55,3,.89,1.92.74,2.37-2.81-.45-3.4-.89-.89,1.77-3.11,1.92S352.8,290.84,352.8,290.84Z" style="fill:#fff;stroke:#263238;stroke-linecap:round;stroke-linejoin:round"></path><path d="M379.26,289.36s-3.1,9.91-3.7,11.68,1.19,5.77,1.19,5.77L383,290.54Z" style="fill:#fff;stroke:#263238;stroke-linecap:round;stroke-linejoin:round"></path><path d="M391.65,333.94l-1.11,6s-7.13,11.14-11.36,19.61-2,11.36-1.79,12.47,31.87,23.85,31.87,23.85h5.57L391,368l16.26-20.72s10,22.51,12.7,25.18,26.74,22.06,26.74,22.06l4.9.67L430.65,362s-8.69-28.08-12.48-32.76-5.35-6.68-5.35-6.68Z" style="fill:#263238;stroke:#263238;stroke-linecap:round;stroke-linejoin:round"></path><polyline points="396.62 341.95 407.25 347.31 399.54 346.24" style="fill:none;stroke:#fff;stroke-linecap:round;stroke-linejoin:round;stroke-width:0.5px"></polyline><line x1="390.99" y1="368.03" x2="384.14" y2="365.94" style="fill:none;stroke:#fff;stroke-linecap:round;stroke-linejoin:round;stroke-width:0.5px"></line><polyline points="398.76 335.71 400.71 337.86 399.15 340.78 401.49 341.37 403.25 337.66 402.08 335.71" style="fill:none;stroke:#fff;stroke-linecap:round;stroke-linejoin:round;stroke-width:0.5px"></polyline><path d="M381.92,291.87s-4.43,11.39-5,14.05-.29,6.21,1.48,10.49,8.72,11.53,9.91,13.16.59,4,3.1,5.32,8.37.32,12.38-1.69c3.14-1.57,8.91-7.47,9.06-9.39s-8.28-12.27-12.72-19.52-6.65-10.49-10.64-12.56S383,290.54,381.92,291.87Z" style="fill:#fff;stroke:#263238;stroke-linecap:round;stroke-linejoin:round"></path><path d="M384.69,309s11.41-.25,12.4-.25" style="fill:none;stroke:#263238;stroke-linecap:round;stroke-linejoin:round"></path><path d="M383.2,310.2s16.13,6.2,21.34,6.45" style="fill:none;stroke:#263238;stroke-linecap:round;stroke-linejoin:round"></path><path d="M366,312.13s-36.67-3.55-38.29-3.85-4.45-5.56-4.9-6.15-5-2.21-5.76-2.21-3.75.49-2.57,1.23a33.65,33.65,0,0,1,3.92,3.55,41.62,41.62,0,0,0,4.58,4.62,15.38,15.38,0,0,0,4.24,1.88s39.22,9.94,41,9.35-1.62-8.57-1.62-8.57Z" style="fill:#fff;stroke:#263238;stroke-linecap:round;stroke-linejoin:round"></path><path d="M388.72,294.39a4.4,4.4,0,0,0-5,.74c-2.36,2.21-19.07,16.26-19.07,16.26l4.29,12.27,23.95-18.19s2.66-4,.44-7.39" style="fill:#fff;stroke:#263238;stroke-linecap:round;stroke-linejoin:round"></path><path d="M409.26,395.89l-3.79,3.34s-5.35,1.11-5.13,2.67,8.47.67,10,.67,6.24-1.56,6.91-3.12-2.45-3.56-2.45-3.56Z" style="fill:#fff;stroke:#263238;stroke-linecap:round;stroke-linejoin:round"></path><path d="M446.69,394.55l-1.78,4.9s-5.13,2.23-4.68,3.57,10.91.66,11.81-.45-.45-7.35-.45-7.35Z" style="fill:#fff;stroke:#263238;stroke-linecap:round;stroke-linejoin:round"></path></g><g id="freepik--character-1--inject-281"><path d="M149.11,152.58s1.78,3.88,7.42,4.62c8.72,1.15,15-7.29,15.6-14.87s-.15-14.7-.15-18.42-1-11.43-2.82-13.66-5.64,1.63-8.47,7.57-4,9.21-7.28,14.41-5.34,8.77-5.64,12.63A18.88,18.88,0,0,0,149.11,152.58Z" style="fill:#263238;stroke:#263238;stroke-linecap:round;stroke-linejoin:round"></path><path d="M127.27,209.77s-7.57-5.2-8.61-6.39-2.53.9-1.64,4.16,6.39,9.36,7.87,9.36,4.16-5.35,4.16-5.35Z" style="fill:#fff;stroke:#263238;stroke-linecap:round;stroke-linejoin:round"></path><path d="M124.75,211.11l.83-2.51a75.93,75.93,0,0,1-6.92-5.22c-1-1.18-2.53.9-1.64,4.16s6.39,9.36,7.87,9.36c.81,0,2-1.57,2.85-3C126.31,212.68,124.75,211.11,124.75,211.11Z" style="fill:#fff;stroke:#263238;stroke-linecap:round;stroke-linejoin:round"></path><path d="M143.16,177.39s-13.07,17.83-15.89,20.35-4.75,4-4.75,4a97.54,97.54,0,0,1-9.66-1.78c-3.12-.89-5.49-1.19-4.6,1.34s9.95,7.42,12.33,8.17,2.52-.15,3.41-.9,4.31-5.2,7.13-7.87,10.7-7.28,13.82-14,3.41-10.7,1.78-10.55A11.46,11.46,0,0,0,143.16,177.39Z" style="fill:#fff;stroke:#263238;stroke-linecap:round;stroke-linejoin:round"></path><path d="M146.73,176.2a11.46,11.46,0,0,0-3.57,1.19s-13.07,17.83-15.89,20.35c-1.48,1.33-2.71,2.36-3.55,3a11.07,11.07,0,0,1,4.47,3c1-1.1,2-2.21,2.94-3.11,2.83-2.67,10.7-7.28,13.82-14S148.36,176.05,146.73,176.2Z" style="fill:#263238;stroke:#263238;stroke-linecap:round;stroke-linejoin:round"></path><path d="M176.74,169.52s-22.88,2.67-27.63,3.71-6.39,2.38-6.84,3.57-15,33-15,33,0,1.34,1.78,1.78c0,0,13.37-14.4,16.34-17.82s5.8-9.51,5.8-9.51,23,4.9,31.64,1.34,9.06-10.84,8.76-12.33S176.74,169.52,176.74,169.52Z" style="fill:#263238;stroke:#263238;stroke-linecap:round;stroke-linejoin:round"></path><path d="M171.09,129.71a68,68,0,0,1,3.42,5.94c.59,1.49-2.53,9.36-2.08,12.18s5.79,9.8,5.79,12-4.16,10.1-4.16,10.1l17.53,4.31s1-13.37,1-21.24-6.09-18.57-9.51-21.39-6.83-6.39-6.83-6.39Z" style="fill:#fff;stroke:#263238;stroke-linecap:round;stroke-linejoin:round"></path><path d="M170,107.67a6.19,6.19,0,0,0-7.46.92c-1.36,1.28-2.86,3.14-2.86,5.08a20.65,20.65,0,0,0,5,12.77c3.42,3.71,7.28,4.75,9.81,3.71s3.12-6.24,1.33-12-3-8.61-5.79-10.4Z" style="fill:#fff;stroke:#263238;stroke-linecap:round;stroke-linejoin:round"></path><path d="M168.57,111.59s3.71,3.86,5.34,4.6,1.79-1.19,1.49-4.46-4.16-6.53-6.24-6.53S167.38,108.76,168.57,111.59Z" style="fill:#263238;stroke:#263238;stroke-linecap:round;stroke-linejoin:round"></path><path d="M169.16,110.25a19.61,19.61,0,0,1-5.2,10.84c-4.75,5-12.33,13.82-14.11,18.72a21.53,21.53,0,0,0-.74,12.77,13.56,13.56,0,0,1-1.19-11.88c2.37-7,7-14.26,7.28-20.5s.89-14,6.24-16.49S169.61,105.05,169.16,110.25Z" style="fill:#263238;stroke:#263238;stroke-linecap:round;stroke-linejoin:round"></path><path d="M167.46,110s1.93,3.25-3.84,9.38-11.05,11.29-11.05,11.29" style="fill:none;stroke:#fff;stroke-linecap:round;stroke-linejoin:round;stroke-width:0.5px"></path><path d="M151.17,153.5a8.15,8.15,0,0,0,1.64,1.18" style="fill:none;stroke:#fff;stroke-linecap:round;stroke-linejoin:round;stroke-width:0.5px"></path><path d="M162.06,125s-8.65,8.53-12,14.3c-2.46,4.22-2.41,9.09-.32,12.43" style="fill:none;stroke:#fff;stroke-linecap:round;stroke-linejoin:round;stroke-width:0.5px"></path><path d="M156.93,118.53a5.65,5.65,0,0,1-1.24.22" style="fill:none;stroke:#fff;stroke-linecap:round;stroke-linejoin:round;stroke-width:0.5px"></path><path d="M166,106.14s-2.44,8.52-7.26,11.56" style="fill:none;stroke:#fff;stroke-linecap:round;stroke-linejoin:round;stroke-width:0.5px"></path><path d="M183.12,131.64c-1.34-1.11-2.68-2.33-3.82-3.41a20.25,20.25,0,0,1-5.64,5.76,16.68,16.68,0,0,1,.85,1.66c.59,1.49-2.53,9.36-2.08,12.18s5.79,9.8,5.79,12-4.16,10.1-4.16,10.1l17.53,4.31s1-13.37,1-21.24S186.54,134.46,183.12,131.64Z" style="fill:#304163;stroke:#263238;stroke-linecap:round;stroke-linejoin:round"></path><path d="M177.78,135.65s-3.42,2.08-.75,7.43,9.66,14.85,9.66,14.85-9.66,7.73-11.59,9.36a13.08,13.08,0,0,1-5.35,2.52c-.44,0-5.05-.89-5.79-.74s-3.86,1.93-3,2.23a13.33,13.33,0,0,0,3.71-.15,14.29,14.29,0,0,0,4.46,1.34c2.08.15,4.75-1.49,4.75-1.49s20.35-10.1,21.84-11.73-9.81-22.58-11.14-24.07a5.2,5.2,0,0,0-3.12-1.63" style="fill:#304163;stroke:#263238;stroke-linecap:round;stroke-linejoin:round"></path><path d="M172.14,169.05a9.52,9.52,0,0,1-2.39.76c-.44,0-5.05-.89-5.79-.74s-3.86,1.93-3,2.23a13.33,13.33,0,0,0,3.71-.15,14.29,14.29,0,0,0,4.46,1.34,9.14,9.14,0,0,0,4.28-1.22Z" style="fill:#fff;stroke:#263238;stroke-linecap:round;stroke-linejoin:round"></path><path d="M112.86,200c-3.12-.89-5.49-1.19-4.6,1.34s9.95,7.42,12.33,8.17,2.52-.15,3.41-.9a30.1,30.1,0,0,0,2.23-2.49l-5.2-2.71,1.49-1.63A97.54,97.54,0,0,1,112.86,200Z" style="fill:#fff;stroke:#263238;stroke-linecap:round;stroke-linejoin:round"></path><path d="M122.81,209.48c-2.52-1.94-5-4-10-7.28a30.07,30.07,0,0,0-4.47-2.58c-.35.3-.44.82-.13,1.69.89,2.52,9.95,7.42,12.33,8.17a2.89,2.89,0,0,0,2.32.07Z" style="fill:#263238;stroke:#263238;stroke-linecap:round;stroke-linejoin:round"></path></g><g id="freepik--Floor--inject-281"><rect x="48.22" y="401.9" width="419.78" height="4.46" style="fill:#263238;stroke:#263238;stroke-linecap:round;stroke-linejoin:round"></rect></g></svg>