<?xml version="1.0" encoding="utf-8"?>
<!-- Generator: Adobe Illustrator 23.1.0, SVG Export Plug-In . SVG Version: 6.00 Build 0)  -->
<svg version="1.1" id="Слой_1" xmlns="http://www.w3.org/2000/svg" xmlns:xlink="http://www.w3.org/1999/xlink" x="0px" y="0px"
	 viewBox="0 0 500 500" style="enable-background:new 0 0 500 500;" xml:space="preserve">
<style type="text/css">
	.st0{fill:#304163;}
	.st1{opacity:0.8;fill:#FFFFFF;enable-background:new    ;}
	.st2{fill:#FFFFFF;stroke:#263238;stroke-width:0.75;stroke-linecap:round;stroke-linejoin:round;}
	.st3{fill:#263238;stroke:#263238;stroke-width:0.75;stroke-linecap:round;stroke-linejoin:round;}
	.st4{fill:#263238;}
	.st5{fill:#304163;stroke:#263238;stroke-width:0.75;stroke-linecap:round;stroke-linejoin:round;}
	.st6{fill:none;stroke:#263238;stroke-width:0.75;stroke-linecap:round;stroke-linejoin:round;}
	.st7{fill:none;stroke:#263238;stroke-linecap:round;stroke-linejoin:round;}
	.st8{fill:#263238;stroke:#263238;stroke-linecap:round;stroke-linejoin:round;}
	.st9{fill:#FFFFFF;stroke:#263238;stroke-linecap:round;stroke-linejoin:round;}
	.st10{clip-path:url(#SVGID_2_);}
	.st11{fill:#FFFFFF;}
	.st12{clip-path:url(#SVGID_4_);}
	.st13{opacity:0.5;fill:#FFFFFF;enable-background:new    ;}
	.st14{clip-path:url(#SVGID_6_);}
	.st15{clip-path:url(#SVGID_8_);}
	.st16{fill:none;stroke:#FFFFFF;stroke-linecap:round;stroke-miterlimit:10;}
	.st17{clip-path:url(#SVGID_10_);}
	
		.st18{opacity:0.5;fill:#FFFFFF;stroke:#263238;stroke-width:0.75;stroke-linecap:round;stroke-linejoin:round;enable-background:new    ;}
	.st19{clip-path:url(#SVGID_12_);}
	.st20{clip-path:url(#SVGID_14_);}
</style>
<g id="freepik--background-simple--inject-182">
	<path class="st0" d="M429.8,253.5c-3.4-27-11.9-53.1-22-71.8c-24.5-44.9-92.6-74.9-144-67.2C220,121.2,199,161.2,159.5,175
		c-36.3,12.8-69.1,22.6-86.2,56.3C37,302.4,125.7,380.2,201.7,374.1c24-1.9,45.4-11.1,70.1-6.8c50,8.8,66.6,18.2,110.8,0.7
		C426.1,350.6,435.8,300.7,429.8,253.5z"/>
	<path class="st1" d="M429.8,253.5c-3.4-27-11.9-53.1-22-71.8c-24.5-44.9-92.6-74.9-144-67.2C220,121.2,199,161.2,159.5,175
		c-36.3,12.8-69.1,22.6-86.2,56.3C37,302.4,125.7,380.2,201.7,374.1c24-1.9,45.4-11.1,70.1-6.8c50,8.8,66.6,18.2,110.8,0.7
		C426.1,350.6,435.8,300.7,429.8,253.5z"/>
</g>
<polyline class="st2" points="254.9,389.4 212.3,293.9 315.6,293.9 443.1,378 "/>
<polygon class="st3" points="244.3,385.7 212.3,300.3 212.3,293.9 257.6,393.9 "/>
<polygon class="st2" points="271.4,297.9 315.3,349.4 262,361.8 231.6,304.2 "/>
<polygon class="st3" points="262,361.8 262,363.4 314.4,352.8 315.3,349.4 "/>
<polygon class="st4" points="269.7,316.4 271.9,319.7 277.7,318.2 275.3,315 "/>
<polygon class="st4" points="291.3,336.7 288.6,333 282.1,334.8 284.7,338.6 "/>
<polygon class="st4" points="265,309.5 266.7,312 272.1,310.6 270.4,308.3 "/>
<polygon class="st4" points="275.4,324.8 278.5,329.4 284.8,327.8 281.4,323.2 "/>
<polygon class="st4" points="291.7,327 286.3,328.3 289,332 294.5,330.5 "/>
<polygon class="st4" points="279,330.2 281.6,334 288,332.3 285.3,328.6 "/>
<polygon class="st4" points="258.9,310.9 260.6,313.5 265.8,312.2 264.1,309.7 "/>
<polygon class="st4" points="272.5,320.5 274.9,324 280.8,322.4 278.2,319 "/>
<polygon class="st4" points="267.2,312.8 269.1,315.6 274.7,314.2 272.6,311.4 "/>
<polygon class="st4" points="255.6,319.2 253.9,316.2 247.8,317.7 249.5,320.8 "/>
<polygon class="st4" points="246.8,326.5 251,325.4 249,321.9 244.9,323 "/>
<polygon class="st4" points="257.1,307.9 258.4,310 263.5,308.9 262.1,306.9 "/>
<polygon class="st4" points="253.4,315.3 251.8,312.4 245.6,313.8 247.3,316.9 "/>
<polygon class="st4" points="251.1,309.1 252.3,311.4 257.5,310.2 256.1,308.1 "/>
<polygon class="st4" points="242.4,318.2 246.4,317.1 244.7,314 240.6,314.9 "/>
<polygon class="st4" points="243.8,310.6 245.1,313 251.4,311.6 250.1,309.3 "/>
<polygon class="st4" points="263.4,318.1 265.5,321.5 271,320 268.8,316.7 "/>
<polygon class="st4" points="277.5,329.6 274.5,325.1 268.7,326.7 271.5,331.2 "/>
<polygon class="st4" points="252.8,312.2 254.4,315.1 259.7,313.8 258,311.1 "/>
<polygon class="st4" points="254,330.7 249.6,331.9 251.9,336.2 256.3,335 "/>
<polygon class="st4" points="266,322.3 268.2,325.9 273.9,324.3 271.5,320.8 "/>
<polygon class="st4" points="262,317.5 260.2,314.6 254.8,315.9 256.5,319 "/>
<polygon class="st4" points="272,348.9 265.9,350.4 268.1,354.4 274.2,352.9 "/>
<polygon class="st4" points="262.6,305.9 267.8,304.8 265,301 259.8,301.8 "/>
<polygon class="st4" points="249.7,308.5 247.1,303.9 240.7,305 243.4,309.8 "/>
<polygon class="st4" points="258,323.5 256,320 249.9,321.6 251.9,325.1 "/>
<polygon class="st4" points="273.5,336.2 271.1,332.2 264.7,333.8 267,338 "/>
<polygon class="st4" points="270.6,331.4 267.8,326.9 261.8,328.6 264.3,333 "/>
<polygon class="st4" points="280.6,334.3 278.1,330.4 272,332 274.5,335.9 "/>
<polygon class="st4" points="264.6,321.7 262.5,318.3 257,319.8 258.9,323.3 "/>
<polygon class="st4" points="261.1,314.3 262.9,317.3 268.2,315.9 266.3,313 "/>
<polygon class="st4" points="267.3,326.1 265.1,322.5 259.3,324.1 261.4,327.8 "/>
<polygon class="st4" points="283.7,338.8 281.2,335.1 275,336.7 277.3,340.6 "/>
<polygon class="st4" points="279.6,346 276.9,341.6 270.1,343.5 272.5,347.8 "/>
<polygon class="st4" points="259.1,340.1 256.8,335.9 252.3,337 254.6,341.3 "/>
<polygon class="st4" points="251.4,326.2 247.2,327.4 249.2,331.1 253.5,329.9 "/>
<polygon class="st4" points="271.6,348 269.2,343.7 263.1,345.4 265.5,349.6 "/>
<polygon class="st4" points="260.5,328 258.4,324.3 252.4,326 254.4,329.7 "/>
<polygon class="st4" points="263.1,306.7 264.5,308.7 269.8,307.5 268.4,305.6 "/>
<polygon class="st4" points="240.2,314.1 244.2,313.2 242.9,310.8 238.9,311.6 "/>
<polygon class="st4" points="256.6,307.1 261.6,306.1 258.8,302 253.9,302.8 "/>
<polygon class="st4" points="250.6,308.3 255.6,307.3 253,303 248.1,303.8 "/>
<polygon class="st4" points="248.6,321.1 246.9,318 242.8,319 244.5,322.1 "/>
<polygon class="st4" points="268.8,304.6 273.3,303.7 270.5,300.1 266,300.8 "/>
<polygon class="st4" points="242.4,310 239.8,305.1 235.8,305.8 238.4,310.8 "/>
<polygon class="st4" points="265,350.7 260.2,351.9 262.3,355.8 267.2,354.6 "/>
<polygon class="st4" points="287.8,344.8 281,346.6 283.5,350.5 290.5,348.8 "/>
<polygon class="st4" points="280.1,346.8 272.9,348.6 275.1,352.6 282.6,350.8 "/>
<polygon class="st4" points="295.8,342.8 288.8,344.6 291.4,348.6 298.8,346.8 "/>
<polygon class="st4" points="302.8,341 296.8,342.6 299.7,346.5 305.9,345 "/>
<polygon class="st4" points="262.2,345.6 257.6,346.9 259.8,351.1 264.5,349.8 "/>
<polygon class="st4" points="276.4,340.8 274,337 267.5,338.8 269.6,342.7 "/>
<polygon class="st4" points="287.3,344 284.3,339.6 277.8,341.4 280.5,345.8 "/>
<polygon class="st4" points="268.7,342.9 266.6,339 260.5,340.7 262.7,344.6 "/>
<polygon class="st4" points="257.1,346.1 261.8,344.8 259.6,340.9 255,342.1 "/>
<polygon class="st4" points="263.4,333.2 260.9,328.8 254.9,330.5 257.2,334.8 "/>
<polygon class="st4" points="295.2,342 291.9,337.5 285.2,339.4 288.2,343.8 "/>
<polygon class="st4" points="266.1,338.2 263.8,334.1 257.7,335.6 260,339.8 "/>
<polygon class="st4" points="282.3,322.9 285.7,327.5 291,326.2 287.4,321.5 "/>
<polygon class="st4" points="275.6,313.9 280.4,312.7 278.3,310 273.6,311.1 "/>
<polygon class="st4" points="271.4,308.1 273,310.4 277.6,309.2 276,307.1 "/>
<polygon class="st4" points="302.1,340.3 298.6,335.7 292.9,337.3 296.2,341.8 "/>
<polygon class="st4" points="276.2,314.7 278.6,317.9 283.5,316.6 281,313.4 "/>
<polygon class="st4" points="289.6,332.8 292.3,336.5 298,334.9 295.1,331.3 "/>
<polygon class="st4" points="270.8,307.3 275.4,306.3 273.9,304.5 269.4,305.4 "/>
<polygon class="st4" points="281.7,322.1 286.8,320.8 284.1,317.4 279.2,318.7 "/>
<path class="st2" d="M322.3,303.6v8.2c-0.8,0.8-1.7,1.5-2.7,2.1c-1.5,0.9-13.9,3-13.9,3l15.8,17.3c0,0,14.5-1.6,18.5-2.7
	c4.2-1.2,3.3-16.7,3.3-16.7L322.3,303.6z"/>
<path class="st3" d="M322.3,303.6v8.2c0,0-0.2,0.2-0.6,0.5l18.4,19.1c3.9-1.8,3.1-16.6,3.1-16.6L322.3,303.6z"/>
<polygon class="st2" points="294.4,199 294.4,285.8 360.5,337.9 360.5,203.9 "/>
<polygon class="st5" points="298.9,203.6 298.9,276.6 354.4,310.9 354.4,208.4 "/>
<rect x="360.5" y="203.9" class="st3" width="6.7" height="134"/>
<polygon class="st2" points="302.6,208.1 302.9,273.3 349.3,299.7 349.3,219 317.4,214.2 315.3,209.6 "/>
<polygon class="st5" points="305.6,216 305.6,271.5 346.5,293.3 346.5,223.3 "/>
<line class="st6" x1="312.9" y1="234.8" x2="335.8" y2="241.6"/>
<line class="st6" x1="312" y1="228.4" x2="341.7" y2="236.7"/>
<line class="st6" x1="312.9" y1="246.5" x2="335.8" y2="253.2"/>
<line class="st6" x1="312" y1="240.1" x2="341.7" y2="248.4"/>
<line class="st6" x1="312.9" y1="258.2" x2="335.8" y2="264.9"/>
<line class="st6" x1="312" y1="251.8" x2="341.7" y2="260.1"/>
<path class="st2" d="M332.5,371.3c0,0-14.5,1.3-19.9,5.6s-1.3,6.4,3.8,7.8s27.9-0.8,30.9-3.8S347.2,370.8,332.5,371.3z"/>
<path class="st3" d="M347.2,381c0.6-0.6,0.9-1.3,1-2.1c-6.5-0.3-15,1.6-22.7,4c-2.6,0.8-5.3,1.5-7.9,2.1
	C324.3,385.8,344.4,383.7,347.2,381z"/>
<line class="st7" x1="281.1" y1="212.2" x2="291.7" y2="217.7"/>
<line class="st7" x1="275" y1="209" x2="278.1" y2="210.6"/>
<line class="st7" x1="283.4" y1="239.9" x2="287" y2="240.3"/>
<line class="st7" x1="269.7" y1="238.3" x2="279.4" y2="239.4"/>
<line class="st7" x1="285.7" y1="265.7" x2="273.7" y2="269"/>
<g id="freepik--Clock--inject-182">
	<path class="st4" d="M270.2,119c-15.9,0-28.7,12.8-28.7,28.7c0,15.9,12.8,28.7,28.7,28.7c15.9,0,28.7-12.8,28.7-28.7
		S286,119,270.2,119L270.2,119z M270.2,170.8c-12.7,0-23.1-10.3-23-23.1s10.3-23.1,23.1-23c12.7,0,23,10.3,23,23.1
		C293.3,160.4,283,170.8,270.2,170.8C270.2,170.8,270.2,170.8,270.2,170.8L270.2,170.8z"/>
	<path class="st4" d="M272.2,147.7c0,1.1-0.9,2.1-2,2.1c-1.1,0-2.1-0.9-2.1-2c0-1.1,0.9-2.1,2-2.1c0,0,0,0,0,0
		C271.3,145.7,272.2,146.6,272.2,147.7z"/>
	<polyline class="st7" points="263.3,158.1 270.2,147.7 281.8,157.3 	"/>
</g>
<g id="freepik--file-cabinet--inject-182">
	<polyline class="st0" points="117.9,169.7 114.4,160.3 116.3,162.4 116.3,159.1 120.2,165.1 116.7,143.7 121.3,155.5 121.8,145.1 
		122.5,148.6 123.4,136.8 125,154.8 127.3,148.6 126.8,156.6 133.1,138.2 130.1,161.2 134.4,158 131.9,162.1 135.1,159.8 
		131.5,170.4 118.1,170.6 	"/>
	<polygon class="st8" points="132.6,193 118.3,193 114.4,168 136.5,168 	"/>
	<rect x="99.4" y="192.8" class="st9" width="72.6" height="193.1"/>
	<rect x="103.6" y="199.1" class="st7" width="63.4" height="46.5"/>
	<rect x="122.7" y="218.2" class="st4" width="25.4" height="8.5"/>
	<rect x="103.6" y="253.4" class="st7" width="63.4" height="46.5"/>
	<rect x="122.7" y="272.4" class="st4" width="25.4" height="8.5"/>
	<rect x="103.6" y="307.7" class="st7" width="63.4" height="46.5"/>
	<rect x="122.7" y="326.7" class="st4" width="25.4" height="8.5"/>
</g>
<g id="freepik--Character--inject-182">
	<g>
		<defs>
			<rect id="SVGID_1_" x="55.7" y="159" width="230" height="228"/>
		</defs>
		<clipPath id="SVGID_2_">
			<use xlink:href="#SVGID_1_"  style="overflow:visible;"/>
		</clipPath>
		<g class="st10">
			<path class="st3" d="M179.8,374.9c0,0,36.4-16.1,55.9-17.3l14.3,31.5H142.2L179.8,374.9z"/>
			<path class="st11" d="M224.1,184.9c0,0,25.6,30.4,31,36c5.4,5.6,5.6,9.6,3.9,12.1s-14.8,7.1-28.3,15.8s-51.8,31-52.2,31.8
				s-4.1-27-4.1-27l64.1-26.4l-0.2-1.9l-20.8-38.5L224.1,184.9z"/>
			<g>
				<defs>
					<path id="SVGID_3_" d="M224.1,184.9c0,0,25.6,30.4,31,36c5.4,5.6,5.6,9.6,3.9,12.1s-14.8,7.1-28.3,15.8s-51.8,31-52.2,31.8
						s-4.1-27-4.1-27l64.1-26.4l-0.2-1.9l-20.8-38.5L224.1,184.9z"/>
				</defs>
				<clipPath id="SVGID_4_">
					<use xlink:href="#SVGID_3_"  style="overflow:visible;"/>
				</clipPath>
				<g class="st12">
					<path class="st0" d="M248.7,229.8L219,186.4l-1.4,0.4l20.8,38.5l0.2,1.9l-64.1,26.4c0,0,0.1,0.5,0.2,1.3l4.2,9.6L248.7,229.8z"
						/>
					<path class="st13" d="M248.7,229.8L219,186.4l-1.4,0.4l20.8,38.5l0.2,1.9l-64.1,26.4c0,0,0.1,0.5,0.2,1.3l4.2,9.6L248.7,229.8z
						"/>
				</g>
			</g>
			<path class="st6" d="M224.1,184.9c0,0,25.6,30.4,31,36c5.4,5.6,5.6,9.6,3.9,12.1s-14.8,7.1-28.3,15.8s-51.8,31-52.2,31.8
				s-4.1-27-4.1-27l64.1-26.4l-0.2-1.9l-20.8-38.5L224.1,184.9z"/>
			<path class="st2" d="M203.7,171.6c0,0-3.1-2.7-4.6,0s-1.7,7.1-0.8,7.5s4.8-0.2,5.4-1.4S203.7,171.6,203.7,171.6z"/>
			<path class="st2" d="M209.1,170.3c0,0-3.3-3.5-5.4-2.1s-1.5,8.7-0.8,9.3s5.4-1,6-1.9S209.1,170.3,209.1,170.3z"/>
			<path class="st2" d="M216.4,170.4c0,0-2.9-4-5.6-4s-4.6,9.6-3.7,10.4s7.3-0.2,7.7-0.8C215.4,174.2,216,172.4,216.4,170.4z"/>
			<path class="st2" d="M222,177c0-1.1-0.6-11.2-4-10.6s-7.1,8.7-6.9,10S222,177,222,177z"/>
			<path class="st2" d="M238.5,227.3c0,0,9.8,3.7,13.5,3.5"/>
			<path class="st11" d="M157.8,389.4c10.5-1.8,23.9-9,27.9-18c-3-15.7-6.8-37.8-6.8-51.3c0-22.7,6-35.6,3.3-51s-8.5-25.4-14.6-29.5
				c0,0-9.4,2.5-19.1,11.6s-18.1,24.6-21.4,39.4s-7.7,60.5-7.7,72.4s-0.9,26.8-0.9,26.8c11.5,0,23.1,0,34.6,0
				C154.6,389.8,156.2,389.7,157.8,389.4z"/>
			<g>
				<defs>
					<path id="SVGID_5_" d="M157.8,389.4c10.5-1.8,23.9-9,27.9-18c-3-15.7-6.8-37.8-6.8-51.3c0-22.7,6-35.6,3.3-51
						s-8.5-25.4-14.6-29.5c0,0-9.4,2.5-19.1,11.6s-18.1,24.6-21.4,39.4s-7.7,60.5-7.7,72.4s-0.9,26.8-0.9,26.8c11.5,0,23.1,0,34.6,0
						C154.6,389.8,156.2,389.7,157.8,389.4z"/>
				</defs>
				<clipPath id="SVGID_6_">
					<use xlink:href="#SVGID_5_"  style="overflow:visible;"/>
				</clipPath>
				<g class="st14">
					<path class="st0" d="M185.6,371.4c-5.9,5-32.3,14.7-36.1,15.6s-1.7-7.3,4.3-15.4s-7.3,3-9.4,3.9s0.9-15.8,0.9-24
						s7.7-77.5,7.7-77.5l14.6-26.6l5-3c-1.4-1.9-3.1-3.5-5-4.8c0,0-9.4,2.5-19.1,11.6s-18.1,24.7-21.4,39.5s-7.7,60.5-7.7,72.4
						s-0.9,26.8-0.9,26.8c11.5,0,23.1,0,34.6,0c1.6,0,3.2-0.1,4.7-0.4C168.2,387.6,181.6,380.4,185.6,371.4z"/>
					<path class="st13" d="M185.6,371.4c-5.9,5-32.3,14.7-36.1,15.6s-1.7-7.3,4.3-15.4s-7.3,3-9.4,3.9s0.9-15.8,0.9-24
						s7.7-77.5,7.7-77.5l14.6-26.6l5-3c-1.4-1.9-3.1-3.5-5-4.8c0,0-9.4,2.5-19.1,11.6s-18.1,24.7-21.4,39.5s-7.7,60.5-7.7,72.4
						s-0.9,26.8-0.9,26.8c11.5,0,23.1,0,34.6,0c1.6,0,3.2-0.1,4.7-0.4C168.2,387.6,181.6,380.4,185.6,371.4z"/>
				</g>
			</g>
			<path class="st6" d="M157.8,389.4c10.5-1.8,23.9-9,27.9-18c-3-15.7-6.8-37.8-6.8-51.3c0-22.7,6-35.6,3.3-51s-8.5-25.4-14.6-29.5
				c0,0-9.4,2.5-19.1,11.6s-18.1,24.6-21.4,39.4s-7.7,60.5-7.7,72.4s-0.9,26.8-0.9,26.8c11.5,0,23.1,0,34.6,0
				C154.6,389.8,156.2,389.7,157.8,389.4z"/>
			<path class="st3" d="M166.9,243.2l16.5,30.1l0.9,16.5c0,0,4.6-11.8,2.6-19.5S166.9,243.2,166.9,243.2z"/>
			<polygon class="st3" points="184.3,289.8 179.7,359.5 184.8,373.9 188.4,345.2 185.4,287.8 			"/>
			<path class="st11" d="M179.8,214.9c0,0,0.6,7.5,1.2,11.2s-8.5,13.9-8.5,13.9l13.1,19.8l14.8-11.6c0,0,21-1.5,22.9-3.3
				s1.9-20.8,1.9-20.8l5-2.9c0,0-4.6-20-5.8-24.5l-1.2-4.4c0,0,6.7-2.3,5.2-9s-11.4-10-21.2-8.5s-12.3,5.2-12.3,5.2
				s-13.9-0.2-21.8,6.4s-3.1,16.9-0.6,20.6C174.8,209.9,177.2,212.6,179.8,214.9z"/>
			<g>
				<defs>
					<path id="SVGID_7_" d="M179.8,214.9c0,0,0.6,7.5,1.2,11.2s-8.5,13.9-8.5,13.9l13.1,19.8l14.8-11.6c0,0,21-1.5,22.9-3.3
						s1.9-20.8,1.9-20.8l5-2.9c0,0-4.6-20-5.8-24.5l-1.2-4.4c0,0,6.7-2.3,5.2-9s-11.4-10-21.2-8.5s-12.3,5.2-12.3,5.2
						s-13.9-0.2-21.8,6.4s-3.1,16.9-0.6,20.6C174.8,209.9,177.2,212.6,179.8,214.9z"/>
				</defs>
				<clipPath id="SVGID_8_">
					<use xlink:href="#SVGID_7_"  style="overflow:visible;"/>
				</clipPath>
				<g class="st15">
					<path class="st0" d="M203,241.8c-3.9-4.7,0-22.7,3-31.7s-4.3-12.8-4.3-12.8l21.9-3.8l-0.3-1.1c1.5-0.6,2.8-1.5,3.8-2.7l1.2-6.9
						c-2-6.3-11.5-9.4-21-7.9c-9.8,1.5-12.3,5.2-12.3,5.2s-13.9-0.2-21.8,6.4s-3.1,16.9-0.6,20.6c2.1,2.8,4.5,5.5,7.1,7.9
						c0,0,0.6,7.5,1.2,11.2s-8.4,13.9-8.4,13.9l13.1,19.8l14.8-11.6c0,0,16-1.2,21.4-2.6l1.6-0.6C223.3,245,206.9,246.5,203,241.8z"
						/>
					<path class="st13" d="M203,241.8c-3.9-4.7,0-22.7,3-31.7s-4.3-12.8-4.3-12.8l21.9-3.8l-0.3-1.1c1.5-0.6,2.8-1.5,3.8-2.7
						l1.2-6.9c-2-6.3-11.5-9.4-21-7.9c-9.8,1.5-12.3,5.2-12.3,5.2s-13.9-0.2-21.8,6.4s-3.1,16.9-0.6,20.6c2.1,2.8,4.5,5.5,7.1,7.9
						c0,0,0.6,7.5,1.2,11.2s-8.4,13.9-8.4,13.9l13.1,19.8l14.8-11.6c0,0,16-1.2,21.4-2.6l1.6-0.6C223.3,245,206.9,246.5,203,241.8z"
						/>
					<path class="st4" d="M214.3,206.1c0,0,0-0.3,0-0.8c0-1.5,0.3-4.7,2.7-5.6c3.3-1.1,6,1.9,6,1.9l0.2,3.1c-1-1.2-2.5-1.8-4-1.5
						C217.3,203.6,215.5,204.6,214.3,206.1z"/>
					<path class="st4" d="M219.8,212.2c0,1.6-0.4,2.9-1,2.9s-1-1.3-1-2.9s0.4-2.9,1-2.9S219.8,210.6,219.8,212.2z"/>
					<path class="st4" d="M213.8,232.4c-1.1,1.1-2.5,1.5-3.2,0.8s-0.4-2.1,0.7-3.2s2.5-1.5,3.2-0.8S214.8,231.3,213.8,232.4z"/>
				</g>
			</g>
			<path class="st6" d="M179.8,214.9c0,0,0.6,7.5,1.2,11.2s-8.5,13.9-8.5,13.9l13.1,19.8l14.8-11.6c0,0,21-1.5,22.9-3.3
				s1.9-20.8,1.9-20.8l5-2.9c0,0-4.6-20-5.8-24.5l-1.2-4.4c0,0,6.7-2.3,5.2-9s-11.4-10-21.2-8.5s-12.3,5.2-12.3,5.2
				s-13.9-0.2-21.8,6.4s-3.1,16.9-0.6,20.6C174.8,209.9,177.2,212.6,179.8,214.9z"/>
			<path class="st3" d="M198.3,196.1c3.5-2.3,25-3.6,25-3.6s6.7-2.3,5.2-9s-11.4-10-21.2-8.5s-12.3,5.2-12.3,5.2s-13.9-0.2-21.8,6.4
				s-3.1,16.9-0.6,20.6c2.1,2.8,4.5,5.5,7.1,7.9c0,0,0.3,4.1,0.7,7.8l6,1.7l6.6-3.5l6.6-1.5c0,0-4.8-3.7-2.1-7.1s7.7-4.6,7.9-7.3
				S194.8,198.4,198.3,196.1z"/>
			<path class="st16" d="M219.3,184.9c0,0-2.3-4.1,1.9-3.4s4.1,7.9,0.8,9.4s-21.8-1.9-32,1.1s-17.3,11.3-17.3,11.3"/>
			<path class="st16" d="M178.3,209.7c0,0,7.9-6.8,14.3-7.9s9.8-1.1,2.6,3s-2.3,3.4,2.3,1.9"/>
			<path class="st0" d="M194.8,224.6c0,0-1.1-12.1-7.1-12.5s-5.8,8.3-4,14.3s6,7.9,9.4,4.8"/>
			<g>
				<defs>
					<path id="SVGID_9_" d="M194.8,224.6c0,0-1.1-12.1-7.1-12.5s-5.8,8.3-4,14.3s6,7.9,9.4,4.8"/>
				</defs>
				<clipPath id="SVGID_10_">
					<use xlink:href="#SVGID_9_"  style="overflow:visible;"/>
				</clipPath>
				<g class="st17">
					<path class="st18" d="M194.8,224.6c0,0-1.1-12.1-7.1-12.5s-5.8,8.3-4,14.3s6,7.9,9.4,4.8"/>
				</g>
			</g>
			<path class="st6" d="M194.8,224.6c0,0-1.1-12.1-7.1-12.5s-5.8,8.3-4,14.3s6,7.9,9.4,4.8"/>
			<path class="st11" d="M173,232.6l19.3,29.3l-8.9,11.4c-4-7.7-8.4-15.2-13.3-22.3c-6.6-9.2-7.3-10.8-7.3-10.8L173,232.6z"/>
			<g>
				<defs>
					<path id="SVGID_11_" d="M173,232.6l19.3,29.3l-8.9,11.4c-4-7.7-8.4-15.2-13.3-22.3c-6.6-9.2-7.3-10.8-7.3-10.8L173,232.6z"/>
				</defs>
				<clipPath id="SVGID_12_">
					<use xlink:href="#SVGID_11_"  style="overflow:visible;"/>
				</clipPath>
				<g class="st19">
					<path class="st0" d="M173,232.6l-10.2,7.5c0,0,0.6,1.1,4.8,7.2l10.8-6.5L173,232.6z"/>
					<path class="st13" d="M173,232.6l-10.2,7.5c0,0,0.6,1.1,4.8,7.2l10.8-6.5L173,232.6z"/>
				</g>
			</g>
			<path class="st6" d="M173,232.6l19.3,29.3l-8.9,11.4c-4-7.7-8.4-15.2-13.3-22.3c-6.6-9.2-7.3-10.8-7.3-10.8L173,232.6z"/>
			<path class="st2" d="M222.5,305.4c0,0,3.1-6.4,3.7-10.4s0.8-6.4,3.1-8.3s9.8-9.6,11-12.5s1.9-0.2,2.5,2.1s0.4,4.4-1.5,5.8
				c-1.4,1-2.6,2.2-3.7,3.5l1.7,1.4c0,0,24.1-9,26.6-10s4.8-0.2,5,1.7s-0.6,2.1-1.7,2.7s-13.9,5-15.6,5.8l-1.7,0.8l1.4,1.4
				c0,0,6.9-0.2,10.4-0.4s8.7-0.8,9.4,0.4c0.7,1.1,0.5,2.5-0.6,3.3c-0.8,0.8-2,1.2-3.1,1c-1.7,0-16.6,1.1-16.6,1.1l0.4,2.1
				c0,0,15.8,2.5,16.4,3.3s0.6,1.2,0,2.3s-1,1.2-2.5,1.2s-14-1.9-14-1.9s6.2,3.5,6.9,4s3.5,1,2.7,2.3s-1.1,1.7-2.3,1.5
				s-9.4-3.9-9.4-3.9s-8.3,1.1-11,1.4c-2,0.1-4,0-6-0.2l-7.7,5L222.5,305.4z"/>
			<path class="st11" d="M167.9,296.8c0,0-5.6-23.3-7.9-28.5s-15.4-10-21.8,1.4s-0.6,24.3,1.7,33.5s16.9,51,19.1,56.2s6,4,8.1,3.5
				s60.6-47.8,60.6-47.8l-4.6-10.4L177.7,328L167.9,296.8z"/>
			<g>
				<defs>
					<path id="SVGID_13_" d="M167.9,296.8c0,0-5.6-23.3-7.9-28.5s-15.4-10-21.8,1.4s-0.6,24.3,1.7,33.5s16.9,51,19.1,56.2
						s6,4,8.1,3.5s60.6-47.8,60.6-47.8l-4.6-10.4L177.7,328L167.9,296.8z"/>
				</defs>
				<clipPath id="SVGID_14_">
					<use xlink:href="#SVGID_13_"  style="overflow:visible;"/>
				</clipPath>
				<g class="st20">
					<path class="st0" d="M166.2,348c1.5-4.5,3.2-8.9,5.1-13.3c2.1-4.3-10.3,9.9-12.8,2.1s-18.8-46.2-15.8-59.1
						c1.3-6,4.8-11.2,9.8-14.7c-4.8-1.1-10.6,0.1-14.3,6.6c-6.4,11.4-0.6,24.3,1.7,33.5s16.9,51,19.1,56.2s6,4,8.1,3.5
						c1.5-0.4,33-25.5,50-39.2L166.2,348z"/>
					<path class="st13" d="M166.2,348c1.5-4.5,3.2-8.9,5.1-13.3c2.1-4.3-10.3,9.9-12.8,2.1s-18.8-46.2-15.8-59.1
						c1.3-6,4.8-11.2,9.8-14.7c-4.8-1.1-10.6,0.1-14.3,6.6c-6.4,11.4-0.6,24.3,1.7,33.5s16.9,51,19.1,56.2s6,4,8.1,3.5
						c1.5-0.4,33-25.5,50-39.2L166.2,348z"/>
				</g>
			</g>
			<path class="st6" d="M167.9,296.8c0,0-5.6-23.3-7.9-28.5s-15.4-10-21.8,1.4s-0.6,24.3,1.7,33.5s16.9,51,19.1,56.2s6,4,8.1,3.5
				s60.6-47.8,60.6-47.8l-4.6-10.4L177.7,328L167.9,296.8z"/>
			<line class="st6" x1="216.4" y1="308.5" x2="221.6" y2="319.1"/>
			<path class="st2" d="M94.2,255.4l-26.6,18.4c0,0,13.1,13.9,11.8,50.2c-1,27.8,2.7,59.3,8,65.7h28.3c0,0-9.8-54-9.1-84.9
				C107.2,281.3,100.1,265,94.2,255.4z"/>
			<path class="st3" d="M97.4,255.4l-26.6,18.4c0,0,13.1,13.9,11.8,50.2c-1,27.8,2.7,59.3,8,65.7h28.3c0,0-9.8-54-9.1-84.9
				C110.3,281.3,103.3,265,97.4,255.4z"/>
			<polygon class="st2" points="94.2,255.4 97.4,255.4 70.8,273.8 67.6,273.8 			"/>
		</g>
	</g>
</g>
</svg>
