<svg xmlns="http://www.w3.org/2000/svg" xmlns:xlink="http://www.w3.org/1999/xlink" viewBox="0 0 500 500"><defs><clipPath id="freepik--clip-path--inject-65"><rect x="258.48" y="97.33" width="129.48" height="150.84" style="fill:none"></rect></clipPath><clipPath id="freepik--clip-path-2--inject-65"><path d="M280.2,168.21s-9.07,18.56-10.47,26.23-2.51,15.07-1,15.07S295,196.39,295,196.39l3.91,6.84-6.84,48.55s10.19,9.48,25,8.65,32.65-12,32.65-12l-12.84-42.69,4.75-9.77s25.39,13.4,31,15.63,6.27,3.35,6.55,2.23-5-36.83-5-36.83l-8.51,1.12s1.81,17.16,1.12,17.16-5.44-6.84-12.28-12.28-15.48-15.34-21.2-17.72-14.65-3.62-20.37-1.81-9.07,9.77-9.07,9.77l-19.11,11.3,5-12.28Z" style="fill:#263238;stroke:#263238;stroke-linecap:round;stroke-linejoin:round"></path></clipPath></defs><g id="freepik--background-simple--inject-65"><path d="M443.42,311.51S460.72,238.09,413,174,281.75,85,214.7,62.92,84.78,66.11,61.12,122.45,85,209.23,95.41,282.88s2,94.85,50.85,151,149.37,55,217.39-2.5S443.42,311.51,443.42,311.51Z" style="fill:#304163"></path><path d="M443.42,311.51S460.72,238.09,413,174,281.75,85,214.7,62.92,84.78,66.11,61.12,122.45,85,209.23,95.41,282.88s2,94.85,50.85,151,149.37,55,217.39-2.5S443.42,311.51,443.42,311.51Z" style="fill:#fff;opacity:0.7000000000000001"></path></g><g id="freepik--Plants--inject-65"><path d="M163,176.11v0c0-.15,0-.29,0-.43h0c0-.14,0-.27,0-.4v-.06q0-.16,0-.3v-.07a2.91,2.91,0,0,0,0-.31v0c0-.08,0-.15-.05-.22a.14.14,0,0,1,0-.06c0-.07,0-.14-.08-.2-.74-1.43-7.38-6.61-12.85-7.3s-12.08-1.64-10.49-3.2l0,0h0l.26-.2h0a2.31,2.31,0,0,1,.35-.18l0,0,.39-.12.07,0,.42-.08H141l.46,0h.72l.49,0h.16l.5.05.17,0,.51.07.19,0,.51.08.2,0,.5.1.22.05.49.1.24.06.45.11.27.07.42.11.3.08.36.1.35.1.28.08.59.18a67.9,67.9,0,0,1,8.71,3.69c1.39.68,3.34,1.88,3.34,1.88s.49-6.53.2-8-4.83-3.17-9.06-3.94-7.39,0-9.35-.43l-.52-.1h0l-.34-.07c-.42-.08-.84-.15-1.19-.24h0c-1.1-.26-1.59-.56.23-1.11,2.83-.85,7.47-2.83,11-2.4l1.09.13h0c3.38.36,7.36.62,7.36.62a29.21,29.21,0,0,0-3.75-5.72l-.26-.29h0c-1.78-1.94-2.48-2.8-4.79-2.37-2.12.4-6.54,2.56-8.84,3.33h0l-.42.13h0l-.37.08-.42.09h0l-.4.08-.49.1h0l-.45.09h0c-.29.06-.58.1-.83.13h0l-.33,0H139l-.07,0h0l-.06,0h0l0,0h0l0,0v0a.09.09,0,0,1,0-.05s0,0,0,0v-.05a0,0,0,0,0,0,0s0,0,0-.06l0,0,0-.06,0,0,0-.06,0-.06,0-.06a.24.24,0,0,1,.06-.08l.05-.06a.52.52,0,0,1,.1-.11l0-.05.17-.17c2-2,6.12-3.36,8.09-3.73s2.44.48,1.45-.59-7.32-5.52-9.13-6-3.41-1.39-6.78-.13l-.58.24-.19.09-.35.18a1,1,0,0,0-.23.12,2.69,2.69,0,0,0-.29.16l-.24.14-.25.16-.24.16-.2.15a2.48,2.48,0,0,0-.26.19l-.1.08c-.23.18-.45.37-.65.56h0a5.57,5.57,0,0,0-2,3.22c0,1.11,1.52,5.56,1.68,7.85a8.87,8.87,0,0,1-.78,1.26.57.57,0,0,1-.32.21,2.58,2.58,0,0,1-1.13-.11,4.16,4.16,0,0,1-.7-2.53c-.15-3.27-.66-6.79-2.1-7.77s-8.41-3-9.32-2.79-6.88,1-10,3.32a5.6,5.6,0,0,0-.52.42l-.15.14-.31.3-.14.16c-.08.1-.17.19-.24.29l-.13.16-.19.29a1.4,1.4,0,0,0-.1.16c-.06.1-.12.2-.17.3s0,.1-.08.14-.09.22-.14.32a.37.37,0,0,1,0,.11c0,.13-.09.25-.13.38v0a5.71,5.71,0,0,0-.19.8v0c0,.11,0,.22,0,.32v.07a1.94,1.94,0,0,0,0,.24v.34a.61.61,0,0,0,0,.14v.08s0,.05,0,.08a.19.19,0,0,0,0,.08h0a.94.94,0,0,1,0,.12l.3-.1h0l.61-.18h0l.37-.11.08,0,.42-.12.07,0,.44-.13.07,0,.5-.14.11,0,.52-.14.11,0,.57-.15h.06l.55-.15.09,0,.58-.14.12,0,.58-.13.11,0,.59-.13h0l.56-.11.09,0,.54-.1h.11l.51-.08H111l.5-.06H112l.4,0h0l.35.06h.09l.37.09.06,0,.31.11.06,0,.33.15,0,0,.28.15,0,0,.27.19,0,0a2.87,2.87,0,0,1,.43.42v0a1.61,1.61,0,0,1,.24.47h0a.83.83,0,0,1,0,.47h0a.92.92,0,0,1-.28.42h0l-.13.1,0,0-.14.08,0,0-.15.07-.07,0-.16.05-.11,0-.15,0-.15,0-.15,0-.21,0-.14,0-.38,0c-4.48.37-10.36-1.65-13.43.34a3.06,3.06,0,0,0-.29.21l-.09.08-.18.15-.1.11-.15.16-.1.12-.15.17-.09.13-.14.19-.08.13a2.39,2.39,0,0,0-.13.21l-.08.13-.13.22a.91.91,0,0,1-.07.14l-.12.24-.06.13-.12.26,0,.12-.12.29a.42.42,0,0,1,0,.1c0,.11-.08.21-.11.32l0,.08-.12.34,0,.07c0,.12-.08.24-.11.37l0,0-.11.38v0c0,.13-.07.27-.1.4v0a18.38,18.38,0,0,0-.61,5c.06.32.12.72.16,1.1h0c0,.25.06.5.08.71h0v.39c0,.15,0,.25,0,.25l.41-.28h0l.56-.37.16-.1.15-.1.2-.14.16-.1.28-.18.11-.07.43-.28.07,0,.4-.25.12-.08.38-.24.14-.08c.14-.1.29-.19.44-.28l.07,0L101,160l.11-.07.43-.26.17-.1.4-.24.17-.1.55-.32c3.26-1.87,6.58-4.23,8.88-3.72l.46.11h0l.45.13,0,0,.46.15h0l.44.17,0,0,.42.19,0,0,.39.2h0l.36.22h0a2.78,2.78,0,0,1,.31.23h0a1.91,1.91,0,0,1,.28.31h0a.41.41,0,0,1,0,.09h0a.73.73,0,0,1,.07.24v0a.13.13,0,0,1,0,.06v0s0,0,0,.06,0,0,0,0a.56.56,0,0,0,0,.08l0,.06,0,0-.06.06,0,0-.08.06,0,0-.16.09,0,0-.15.07-.07,0-.16.06-.07,0-.26.08-.33.1-.15,0-.22.06-.18.05-.21.05-.24.07-.17,0-.34.1-.08,0c-1.12.3-2.43.64-3.79,1h0l-.56.15h0l-.56.15h0l-.53.15h0l-.53.15h0a34.64,34.64,0,0,0-6.37,2.26c-2.25,1.37-2.94,3.54-2.45,6.12a15.19,15.19,0,0,0,2,4.83h0l.07.11,0,0,0,0v0l0,0,0,0,.07-.06,0,0,.14-.12.08-.08.12-.11.1-.09.17-.16h0l0,0v0l.09-.08.12-.11,0-.05,0,0,.09-.07.07-.07,0,0,.19-.2.09-.08.19-.2h0l0-.05.09-.09.11-.11h0l.21-.22,0,0h0l.25-.27h0l0,0,.09-.1.13-.15,0,0,.14-.16,0,0,.06-.06h0l.24-.29.07-.09.22-.29.06-.08c.09-.11.16-.23.24-.34l0-.06c.06-.09.11-.18.16-.27l0-.08c.06-.11.1-.21.14-.3a8.23,8.23,0,0,1,4.67-4.34l.24-.1.09,0,.17-.06.11,0,.17-.06.12,0,.18-.05.14,0,.18-.05.14,0,.19-.05.16,0,.19,0,.16,0,.21-.05.16,0,.25-.05.29-.06.2,0,.21,0,.17,0,.22,0,.16,0,.23,0,.14,0,.25,0,.13,0,.26,0h.1l.27,0h.08a13.82,13.82,0,0,1,1.87-.08h.3l.23,0h0l.22,0h0a1.23,1.23,0,0,1,.85.37.4.4,0,0,1,0,.41,4.44,4.44,0,0,1-1.42,1.18l-.46.28-.08,0-1.06.57-.08,0-.58.3,0,0-.59.29,0,0-.63.31,0,0-2.08,1-.44.21-.18.08-.54.26-.09,0-.46.22-.11.06-.48.24-.09.05-.41.21-.06,0-.39.22-.08,0-.35.21a25.08,25.08,0,0,0-3.83,3.1l0,.05-.22.23-.07.07-.19.21-.09.09c0,.06-.1.13-.16.19l-.09.1c0,.06-.09.11-.13.16a1.47,1.47,0,0,1-.1.13l-.1.13a1.3,1.3,0,0,0-.1.15.36.36,0,0,0-.07.1l-.14.22a16.72,16.72,0,0,0-2,3.68,3.53,3.53,0,0,0-.15.46l0,.09c0,.13-.07.26-.11.4s0,.05,0,.07-.06.29-.09.44v0A9.84,9.84,0,0,0,100,186c1,2.16,3.8,6.82,3.8,6.82s.51-4.81,1.77-7.25,4-5.61,5.07-7.24,2.14-5.27,3.64-6.49,7.83-5.1,6.77-2.38c0,.12-.11.24-.18.37s0,0,0,.08-.15.25-.24.38l0,.06c-.09.12-.18.25-.28.37l0,.05c-.11.13-.23.27-.36.4l-.07.09-.41.41,0,0-.44.41-.07.07-.47.43-.07.06-.51.45h0c-2.21,1.91-4.81,3.9-5.53,5.53a26,26,0,0,1-2.08,3.52l-.84,1.28-.06.09-.37.57v0l-.35.55-.07.12c-.11.18-.22.36-.32.54l0,0q-.15.24-.27.48a.54.54,0,0,0,0,.11c-.09.16-.17.33-.24.48a.36.36,0,0,0,0,.09c-.07.14-.12.28-.18.42a.19.19,0,0,1,0,.07c-.06.15-.1.29-.14.42a.29.29,0,0,1,0,.09,3.38,3.38,0,0,0-.07.4c-.2,2.24-.75,2.66-1.25,4.16s.77,4.88,1.93,6.07l.16.16,0,0,.18.17h0a2,2,0,0,0,.21.2l.06.05.21.19,0,0,.25.21.07.06.23.2,0,0,.27.22.08.07.25.21,0,0h0l.36.29h0c1,.8,1.92,1.55,2.35,1.89l0,0,.06.05h0l.06.06h0l0,0a46.39,46.39,0,0,0,1.42-8.27c.13-3.48,2.3-6.09,2.92-7.78a29,29,0,0,1,4-7l.39-.42.48-.51h0c1-1.08,2.08-2,4-1.41,2.5.78.57,3-1.63,5.49a80.52,80.52,0,0,0-7.59,11.33,10.19,10.19,0,0,0-.83,2h0c-.12.39-.23.79-.32,1.19h0a40.67,40.67,0,0,0-.82,5.23v.16h0c0,.13,0,.25,0,.33h0v.13h0v0a48.75,48.75,0,0,0,5.58,4.59c2.14,1.33,4.58,1.81,3.75.71a11.27,11.27,0,0,1-1.53-3.95l-.15-.76s.54-2.57.83-4.48h0c.06-.44.11-.86.14-1.19a23.76,23.76,0,0,1,2.83-7.44c1-1.44,2.34-4.21,3.86-4.5a1,1,0,0,1,.24,0h.07l.21,0h0l.21.06.06,0,.16.09,0,0,.16.13.07.06.1.11a.39.39,0,0,1,.08.1l.1.14.06.11.06.1c0,.08.07.16.11.25l0,.07a1.09,1.09,0,0,0,0,.17,4.12,4.12,0,0,1,.15.82v0a1.55,1.55,0,0,1,0,.22v.32c0,.06,0,.12,0,.18s0,.11,0,.16l0,.23a.59.59,0,0,1,0,.13,2.45,2.45,0,0,1-.08.37c-.53,2.14-5.42,9.51-5.9,11.95,0,.15,0,.3-.07.45h0a29,29,0,0,0,0,6s4.94,2,6.84,2.15,4.27.14,4.27.14,2,.87,1.9.11l-.14-.76a27,27,0,0,1,2.93-2.75,2.16,2.16,0,0,0,.71-.9h0a1.68,1.68,0,0,0,.12-.38.13.13,0,0,0,0-.06,2.77,2.77,0,0,0,0-.82.19.19,0,0,1,0-.08,5.31,5.31,0,0,0-.21-.88l0-.09c-.06-.15-.11-.3-.18-.45h0c-.07-.16-.15-.31-.23-.46l-.06-.11c-.08-.16-.17-.31-.26-.46-1.13-1.83-3-6.81-1.83-8l.13-.09h0l.1,0h.05l.1,0,.06,0,.11.05,0,0a.61.61,0,0,1,.14.1l0,0,.18.17,0,0,.15.16.06.09a1.83,1.83,0,0,1,.13.16l.07.1.14.19.06.1.15.23.06.09c.13.22.27.45.41.7a.41.41,0,0,1,.05.09c.06.09.11.19.17.29l.06.11.15.28.06.12.16.31,0,.08.21.4h0c.79,1.59,1.51,3.18,1.89,3.82a12.54,12.54,0,0,1,1.23,4l3.75-3.38a15,15,0,0,0-1.23-6.52c-1.53-3.95-7.38-9.13-9.12-10.84l-.33-.34h0a7.24,7.24,0,0,1-1.71-2.66h0a1.58,1.58,0,0,1,.37-1.72h0a2,2,0,0,1,.71-.42l.24-.08h.07l.16,0h.33l.15,0h.09l.15,0,.08,0,.18.06.05,0a3.1,3.1,0,0,1,.47.26l.06,0a1.09,1.09,0,0,1,.17.13.18.18,0,0,1,.07,0l.17.13.07.06.17.15.06.06.18.18,0,0a14.15,14.15,0,0,1,.94,1.06h0c.92,1.13,1.81,2.42,2.64,3.27,1.94,2,4.55,4.95,5.4,7A34.88,34.88,0,0,1,152,199.4s1.5-2.3,2.49-4h0l.15-.26h0l.38-.69,0,0,.07-.14,0-.06a1.17,1.17,0,0,1,.05-.11l0-.06s0-.07.05-.1v0a.56.56,0,0,0,0-.12,7.72,7.72,0,0,0,.32-1.63,3,3,0,0,0,1.18-2.89c0-.1,0-.21-.07-.33l0-.11a2.77,2.77,0,0,0-.09-.33s0,0,0-.08-.09-.29-.14-.45,0-.09,0-.14-.09-.25-.14-.38a.94.94,0,0,0-.06-.15c-.06-.17-.13-.34-.21-.52a1.11,1.11,0,0,0-.07-.16,2.72,2.72,0,0,0-.11-.25h0a15.85,15.85,0,0,0-6.08-7.07c-4.78-2.86-9.9-5-9.73-6.63.05-.49.4-.79,1-.86h.55l.25,0,.3,0,.28.06.23,0,.34.09.21.06.51.18.23.08.45.18.2.08.66.3.19.1.57.28.21.11.78.43.14.08.7.42.23.14.88.56q.49.33,1,.63l.33.2.63.38.4.23.54.31.45.25.45.25.5.26.36.19.56.28.26.13.61.3.16.08.7.33h0a21.7,21.7,0,0,1,3.87,2,11.44,11.44,0,0,0,2.68,1.69s.42-2.93.52-5.41h0C163,176.75,163,176.42,163,176.11Zm-36.87-14.68c-.68,1.38-3.38,1.27-3.58.2s1.38-1,1.38-1S126.79,160,126.11,161.43Z" style="fill:#263238"></path><path d="M64.13,235.24v0c0-.15,0-.3,0-.44h0c0-.14,0-.28,0-.41v-.06l0-.3a.2.2,0,0,1,0-.07c0-.1,0-.21,0-.3v0l.06-.22s0,0,0-.06a1.38,1.38,0,0,1,.08-.2c.75-1.43,7.38-6.62,12.85-7.31s12.08-1.64,10.49-3.19l0,0h0a1.74,1.74,0,0,0-.26-.19h0a2.31,2.31,0,0,0-.35-.18l0,0a2.22,2.22,0,0,0-.39-.12l-.07,0a2.61,2.61,0,0,0-.42-.08h-.09l-.45,0h-.12a3.68,3.68,0,0,0-.47,0h-.14l-.49,0h-.16l-.5,0-.17,0-.51.07-.19,0-.51.09-.2,0-.5.09-.22.05-.49.11-.24.06-.45.11-.27.06-.41.11-.3.09-.37.1-.35.1-.28.08-.59.18A68.53,68.53,0,0,0,69,227.06c-1.38.68-3.34,1.88-3.34,1.88s-.49-6.53-.2-8.05,4.84-3.16,9.06-3.93,7.39,0,9.35-.43l.52-.11h0l.34-.06,1.19-.24h0c1.1-.26,1.59-.57-.23-1.12-2.82-.84-7.47-2.82-11-2.39l-1.08.12h0c-3.38.37-7.36.63-7.36.63A29.67,29.67,0,0,1,70,207.62c.09-.1.18-.19.26-.29h0c1.78-1.93,2.48-2.8,4.8-2.36,2.11.4,6.53,2.55,8.83,3.32l0,0,.42.13h0l.36.09.42.08h0l.39.08.49.11h0l.45.08h0c.29,0,.58.1.83.12h0l.33,0h0l.24,0h.06l.07,0h0l.06,0h0a.08.08,0,0,0,0,0h0s0,0,0,0v0s0,0,0,0v-.11a.09.09,0,0,0,0-.05s0,0,0,0a.14.14,0,0,0,0-.06l0,0a.21.21,0,0,0,0-.06l0-.07,0-.06-.07-.08,0-.06-.09-.11-.05-.05-.17-.17c-2-1.94-6.11-3.35-8.08-3.73s-2.45.48-1.46-.59,7.32-5.52,9.13-6,3.41-1.4,6.78-.13a5.89,5.89,0,0,1,.58.24l.19.09.36.17.22.12.29.16.24.15.25.16.24.16.21.14.25.19.11.09c.22.18.44.36.64.55h0a5.57,5.57,0,0,1,2,3.22c0,1.11-1.52,5.55-1.68,7.85a8.87,8.87,0,0,0,.78,1.26.67.67,0,0,0,.32.21,2.72,2.72,0,0,0,1.13-.11,4.17,4.17,0,0,0,.7-2.54c.15-3.27.66-6.78,2.1-7.77s8.41-3,9.32-2.78,6.88,1,10,3.31c.19.14.36.28.53.42l.14.14.31.3.14.17a3,3,0,0,1,.24.28l.13.17c.07.09.13.19.2.29l.1.16.16.29.08.15c0,.11.1.21.14.32a1.17,1.17,0,0,1,0,.11c0,.13.09.25.13.37v.05a5.4,5.4,0,0,1,.19.8v0c0,.11,0,.22,0,.32a.15.15,0,0,0,0,.07c0,.09,0,.17,0,.24v.49a.17.17,0,0,0,0,.07.19.19,0,0,1,0,.08v.08h0a1.13,1.13,0,0,1,0,.12l-.29-.09h0l-.62-.19h0l-.38-.11-.08,0-.42-.13h-.07l-.44-.13-.07,0L122,207l-.1,0-.53-.15-.11,0-.57-.15-.06,0-.55-.14-.09,0-.58-.15-.12,0-.58-.14-.11,0-.59-.13h0l-.56-.11-.09,0-.54-.09-.1,0-.52-.07h-.08l-.5-.06a3,3,0,0,0-.42,0h-.1l-.39,0h0l-.35,0-.09,0-.37.09,0,0-.32.1-.06,0-.33.14,0,0a2.4,2.4,0,0,0-.27.16h0l-.28.19,0,0a2.91,2.91,0,0,0-.43.43v0a1.42,1.42,0,0,0-.23.46h0a.8.8,0,0,0,0,.46h0a.94.94,0,0,0,.28.43h0l.13.1h0l.14.09,0,0,.15.07.08,0,.15.06.11,0,.15,0,.15,0,.16,0,.2,0,.14,0,.38,0c4.48.38,10.36-1.65,13.43.35l.29.2.09.08.18.16.1.1.16.16.1.12.14.18.09.12.14.19.08.13.14.21.07.13.13.23a.83.83,0,0,0,.07.13l.12.25.06.12.12.27.05.11.12.29a.49.49,0,0,0,0,.11l.12.31,0,.09c0,.11.07.22.11.34l0,.07c0,.12.08.24.11.36l0,.05c0,.13.07.26.11.39v0c0,.14.07.27.1.4v0a18,18,0,0,1,.61,5c-.06.32-.11.72-.16,1.1h0c0,.25-.06.49-.08.71h0l0,.14v.25l0,.25-.41-.27h0l-.56-.37-.16-.11-.15-.1-.2-.13-.16-.1-.28-.18-.11-.07-.43-.28-.06,0-.41-.26-.12-.08-.37-.23-.15-.09-.44-.28-.07,0-.54-.33-.11-.07-.43-.25-.17-.11-.4-.23-.17-.1-.55-.32c-3.26-1.88-6.58-4.23-8.88-3.73l-.46.12h0l-.46.13h0l-.45.15,0,0-.44.17,0,0-.42.18,0,0-.39.2,0,0-.36.21h0a2.79,2.79,0,0,0-.31.24h0a1.33,1.33,0,0,0-.28.31h0a.35.35,0,0,0,0,.08h0a.78.78,0,0,0-.07.25h0a.17.17,0,0,0,0,.07v0s0,0,0,.06a.05.05,0,0,0,0,0,.2.2,0,0,0,0,.08l0,.06,0,0,.06.05,0,0,.08.06,0,0,.15.09,0,0,.15.07.07,0,.16.06.07,0,.26.08.33.09.15,0,.22.06.18.05.21.06.25.06.16,0,.34.09.08,0,3.8,1h0l.55.15h0l.56.16h0l.54.15,0,0,.53.15h0a33.9,33.9,0,0,1,6.37,2.26c2.25,1.37,2.94,3.54,2.46,6.12a15.2,15.2,0,0,1-2.06,4.82h0s-.06.08-.08.12l0,0,0,0v0l0,0,0,0-.06-.06,0,0-.14-.13-.08-.07-.12-.11-.1-.1-.17-.15h0l0,0h0l-.09-.08-.12-.12,0,0,0,0-.08-.08-.08-.07,0,0-.19-.19-.09-.09-.19-.19v0l0,0-.09-.09-.11-.12h0l-.21-.22,0,0h0l-.25-.27v0l0,0-.09-.09-.13-.15,0,0-.13-.16,0,0-.06-.07h0l-.24-.29-.07-.09-.22-.29-.06-.08-.23-.34,0-.07-.16-.26,0-.09a2,2,0,0,1-.14-.3,8.3,8.3,0,0,0-4.67-4.34l-.24-.09-.08,0-.17-.06-.11,0-.17-.05-.13,0-.18-.06-.13,0-.19-.05-.14,0-.19,0-.16,0-.19,0-.16,0-.21,0-.16,0-.25-.05-.29,0-.19,0-.22,0-.17,0-.22,0-.16,0-.23,0-.14,0-.25,0-.13,0-.25,0h-.11l-.27,0h-.07a18.4,18.4,0,0,0-1.88-.08h-.3l-.22,0h0l-.21,0h0c-.44.07-.74.19-.84.38a.35.35,0,0,0,0,.4,4.44,4.44,0,0,0,1.42,1.19l.46.28.08,0,1.06.58.08,0,.58.29,0,0,.59.3,0,0,.63.31,0,0,2.08,1,.44.21.18.08.54.26.09,0,.46.23.11,0,.48.24.1.06.4.21.06,0,.39.22.09,0,.34.21a24.53,24.53,0,0,1,3.83,3.11l0,0,.23.24.06.07.2.21.08.09.16.18.09.11a1.83,1.83,0,0,1,.13.16l.1.12.1.14a1.71,1.71,0,0,0,.11.14l.06.1c.06.08.1.16.15.23a16.83,16.83,0,0,1,2,3.67c.06.15.11.3.16.46s0,.07,0,.1.08.26.11.39,0,0,0,.08a3.12,3.12,0,0,1,.09.44v0a9.79,9.79,0,0,1-.81,5.65c-1,2.15-3.8,6.81-3.8,6.81s-.51-4.8-1.77-7.24-4-5.62-5.07-7.24-2.14-5.27-3.64-6.5-7.83-5.09-6.77-2.38c0,.12.11.25.18.38a.25.25,0,0,1,0,.07l.24.38,0,.07.28.36,0,0c.11.14.23.27.36.41l.08.08c.12.14.26.28.4.42l0,0,.44.42.07.06.47.44.07.06.51.44h0c2.21,1.92,4.81,3.91,5.53,5.54a27.75,27.75,0,0,0,2.08,3.52l.84,1.27.06.09.37.57v0l.35.56.07.11.32.55,0,0,.26.49.06.1.24.49,0,.09c.07.14.13.28.18.41a.25.25,0,0,1,0,.07,4.28,4.28,0,0,1,.14.43.29.29,0,0,0,0,.09,3.06,3.06,0,0,1,.07.4c.2,2.23.75,2.65,1.25,4.16s-.76,4.88-1.93,6.07l-.16.16,0,0-.18.17h0l-.21.19-.06.05a1.9,1.9,0,0,1-.21.19l0,0-.25.22-.07.06-.23.2,0,0-.26.23-.09.07-.25.2,0,0h0l-.36.3h0c-1,.8-1.92,1.56-2.35,1.89l0,0-.06,0h0l-.06.05h0l-.06.05a46.38,46.38,0,0,1-1.42-8.28c-.12-3.48-2.3-6.09-2.92-7.78s-2.69-5.69-4-7l-.39-.42-.48-.52h0c-1-1.08-2.08-2-4-1.4-2.51.78-.58,3,1.63,5.49a82.18,82.18,0,0,1,7.59,11.32,11.19,11.19,0,0,1,.82,2.06h0c.12.38.23.78.32,1.18v0a40.57,40.57,0,0,1,.82,5.22v0l0,.14h0c0,.14,0,.25,0,.34h0v.12h0v0a48.46,48.46,0,0,1-5.58,4.6c-2.14,1.32-4.58,1.8-3.75.7a11.52,11.52,0,0,0,1.54-3.95l.14-.75s-.54-2.58-.82-4.49h0c-.07-.45-.12-.86-.15-1.19a23.48,23.48,0,0,0-2.83-7.45c-1-1.44-2.34-4.21-3.86-4.5l-.24,0h-.06l-.22,0h0l-.21.06-.06,0-.16.08,0,0-.16.12-.07.07-.1.1-.08.1-.1.14-.06.12-.06.1a1.73,1.73,0,0,0-.1.24s0,.05,0,.08l-.06.16a5.11,5.11,0,0,0-.15.83v0c0,.07,0,.15,0,.22v.32a1.09,1.09,0,0,1,0,.18c0,.06,0,.11,0,.17l0,.22s0,.09,0,.14,0,.24.08.37c.53,2.14,5.42,9.5,5.9,12,0,.14,0,.29.07.44h0a29.66,29.66,0,0,1,0,6s-4.94,2.05-6.85,2.16-4.26.13-4.26.13-2,.87-1.91.12l.14-.76a27.73,27.73,0,0,0-2.93-2.76,2.13,2.13,0,0,1-.71-.89h0a2.78,2.78,0,0,1-.12-.38.15.15,0,0,1,0-.07,2.72,2.72,0,0,1,0-.81V264a4.88,4.88,0,0,1,.21-.88l0-.1.18-.45h0l.23-.46.06-.11.26-.46c1.13-1.82,3-6.81,1.83-8a.51.51,0,0,0-.13-.09l0,0-.09,0h-.16l-.06,0-.1.05-.06,0-.14.1,0,0-.18.18,0,0-.15.17-.06.08-.13.17a.86.86,0,0,0-.07.1,1.27,1.27,0,0,0-.13.19.36.36,0,0,0-.07.1l-.15.23-.06.08-.41.7a.41.41,0,0,0,0,.09l-.16.29a.75.75,0,0,1-.07.12l-.15.28-.06.11c0,.11-.11.21-.16.31l0,.09-.21.4h0c-.79,1.58-1.51,3.18-1.89,3.81a12.61,12.61,0,0,0-1.23,4l-3.75-3.38a15,15,0,0,1,1.23-6.52c1.53-4,7.38-9.12,9.12-10.83l.33-.35h0a7.32,7.32,0,0,0,1.71-2.66h0a1.59,1.59,0,0,0-.37-1.72h0a2.38,2.38,0,0,0-.71-.42l-.23-.07h-.08a.9.9,0,0,0-.16,0h-.33l-.15,0-.09,0-.15,0-.08,0-.17.07-.06,0a2.83,2.83,0,0,0-.47.27l-.06,0-.17.12-.07.06-.17.13-.07.06-.16.15-.07.05-.18.19,0,0a12,12,0,0,0-.93,1.05h0c-.93,1.14-1.82,2.43-2.65,3.28-1.94,2-4.54,4.95-5.4,7a34.75,34.75,0,0,0-1.41,6.64s-1.51-2.3-2.5-4h0l-.15-.25h0c-.15-.26-.28-.49-.38-.7l0,0-.07-.15,0,0a.61.61,0,0,0,0-.12l0-.05a.69.69,0,0,1,0-.1l0,0,0-.12a8.78,8.78,0,0,1-.32-1.63,3,3,0,0,1-1.18-2.89c0-.11,0-.22.07-.34l0-.1.09-.34s0,0,0-.08.09-.29.14-.44a.88.88,0,0,0,0-.15c.05-.12.09-.24.14-.37l.06-.15c.06-.17.13-.35.21-.53l.07-.15c0-.09.07-.17.11-.26h0a16,16,0,0,1,6.08-7.06c4.78-2.87,9.9-5,9.73-6.64,0-.49-.4-.78-1-.86h-.55l-.25,0-.3.05-.28.05-.23,0-.34.1-.21.06-.51.17-.23.08-.45.18-.19.09-.66.29-.2.1-.57.29-.21.11-.77.42L80,233l-.71.42-.23.14-.88.56-1,.64-.33.2-.63.38-.4.23-.54.31-.45.25-.45.24-.5.26-.36.19-.55.28-.27.14-.61.3-.16.07-.7.33h0a22.42,22.42,0,0,0-3.87,2,11.63,11.63,0,0,1-2.68,1.7s-.41-2.94-.52-5.42h0C64.14,235.88,64.13,235.55,64.13,235.24ZM101,220.55c.68,1.39,3.37,1.27,3.57.21s-1.37-1-1.37-1S100.33,219.17,101,220.55Z" style="fill:#263238"></path><path d="M91.24,296.11v0c0-.12,0-.23,0-.34h0c0-.11,0-.21,0-.31v-.05a1.64,1.64,0,0,1,0-.23v-.06c0-.08,0-.16,0-.23v0a.71.71,0,0,1,0-.17v-.05l.06-.16c.58-1.1,5.7-5.1,9.92-5.63s9.33-1.27,8.1-2.47c0,0,0,0,0,0h0a1,1,0,0,0-.2-.15h0L109,286h0l-.31-.1h0a1.65,1.65,0,0,0-.32-.06h-.08a1.87,1.87,0,0,0-.34,0h-.56l-.39,0h-.11l-.39,0-.13,0-.4.05-.14,0-.4.06-.15,0-.39.08-.17,0-.37.08-.19,0-.35.09-.2.05-.33.08-.23.07-.28.07-.27.08-.22.07-.46.13A54,54,0,0,0,95,289.79c-1.07.53-2.58,1.45-2.58,1.45a50.85,50.85,0,0,1-.15-6.21c.22-1.17,3.73-2.44,7-3s5.7,0,7.21-.33l.4-.08h0l.27-.05.92-.19h0c.85-.2,1.22-.44-.18-.86-2.18-.66-5.77-2.18-8.5-1.85l-.84.09h0c-2.61.28-5.69.48-5.69.48a23,23,0,0,1,2.9-4.42l.21-.22h0c1.36-1.5,1.91-2.17,3.7-1.83,1.63.31,5,2,6.82,2.56l0,0,.33.1h0l.29.07.31.06h0l.31.06.37.08h0l.35.07h0c.22,0,.44.08.64.1h.52l.06,0h0l0,0h0l0,0h0l0,0v-.18l0,0a.08.08,0,0,0,0,0,.05.05,0,0,0,0,0,.13.13,0,0,0,0,0l0-.05,0-.05,0-.06,0-.05-.08-.08,0,0-.13-.13c-1.53-1.5-4.72-2.59-6.24-2.88s-1.89.37-1.13-.45,5.66-4.27,7-4.61,2.63-1.08,5.23-.1l.45.18.15.07.27.14.18.09.22.13a1.18,1.18,0,0,1,.19.11l.19.12.19.13.15.11.2.14.08.07a5.34,5.34,0,0,1,.5.43h0a4.33,4.33,0,0,1,1.52,2.49c0,.85-1.17,4.29-1.3,6.06a7.74,7.74,0,0,0,.6,1,.52.52,0,0,0,.25.16,1.94,1.94,0,0,0,.87-.08,3.18,3.18,0,0,0,.54-2c.12-2.52.51-5.24,1.62-6a25.72,25.72,0,0,1,7.2-2.15c.7.13,5.31.76,7.76,2.56.14.11.28.22.4.33l.12.1.23.24.12.12.18.22.1.13.15.22.08.13.13.23a.37.37,0,0,1,0,.11,2.56,2.56,0,0,1,.11.24.36.36,0,0,1,0,.09c0,.1.07.19.1.29v0a4.26,4.26,0,0,1,.15.62v0l0,.25v.05a1.28,1.28,0,0,1,0,.19v.06a.71.71,0,0,1,0,.14v.29s0,.05,0,.06h0a.31.31,0,0,1,0,.09l-.22-.07h0l-.48-.14h0l-.29-.08-.06,0-.33-.1h-.05l-.34-.1,0,0-.39-.11-.08,0-.41-.11-.08,0-.44-.12h0l-.43-.11-.07,0-.45-.1-.09,0-.45-.1-.08,0-.46-.1h0l-.43-.09h-.07l-.42-.08h-.08l-.4-.06h-.06l-.39,0h-.74l-.27,0h-.07l-.28.07,0,0-.24.08,0,0-.26.11,0,0-.22.12h0l-.21.15,0,0a2.57,2.57,0,0,0-.33.33v0a1.06,1.06,0,0,0-.18.35h0a.73.73,0,0,0,0,.36h0a.83.83,0,0,0,.22.33h0l.11.07v0l.11.06,0,0,.11.05.06,0,.12,0,.08,0,.12,0,.12,0,.11,0,.16,0,.11,0,.29,0c3.46.29,8-1.28,10.37.26l.22.16.07.06a.86.86,0,0,1,.14.13l.08.07.12.13.08.09.11.14.07.09.11.15.06.1a1.4,1.4,0,0,1,.1.16l.06.1a1.62,1.62,0,0,1,.1.18l.05.1a1.14,1.14,0,0,1,.1.19,1,1,0,0,1,0,.1,1.24,1.24,0,0,1,.1.2.36.36,0,0,0,0,.09l.09.23,0,.07.09.25,0,.06.09.27,0,.05c0,.09.06.19.08.28l0,0c0,.1,0,.2.08.3v0c0,.11,0,.21.08.32h0a14.19,14.19,0,0,1,.47,3.9c0,.24-.09.55-.13.84h0c0,.2,0,.39-.06.55h0v.3c0,.12,0,.19,0,.19l-.32-.21h0l-.43-.29-.12-.08-.12-.08-.16-.1-.12-.08-.21-.14-.09-.05-.33-.22-.05,0-.31-.2-.1-.06-.29-.18-.11-.07-.34-.21,0,0-.42-.26-.09-.05-.32-.2-.14-.08-.3-.18-.13-.08-.43-.25c-2.52-1.44-5.08-3.26-6.85-2.87l-.36.09h0l-.36.1h0l-.35.12h0l-.34.13h0l-.32.15h0l-.31.16h0l-.27.16h0l-.23.18h0a1,1,0,0,0-.22.24h0a.25.25,0,0,0,0,.07h0a.52.52,0,0,0-.06.19v0a.11.11,0,0,0,0,.05v0s0,0,0,.05l0,0s0,0,0,.06l0,0,0,0,0,0,0,0,.07,0,0,0,.12.07h0l.11,0,0,0,.13,0,0,0,.2.07.26.07.11,0,.17,0,.14,0,.16.05.19,0,.13,0,.26.07.07,0,2.92.79h0l.43.12h0l.43.12h0l.42.11h0l.41.12h0a26.54,26.54,0,0,1,4.92,1.75,4.18,4.18,0,0,1,1.9,4.72,11.73,11.73,0,0,1-1.59,3.73h0a.47.47,0,0,0-.06.09l0,0,0,0v0h0l0,0-.05-.05,0,0-.1-.1-.07-.06-.09-.08-.08-.08-.12-.12h0l0,0,0,0-.06-.06-.09-.09,0,0,0,0-.06-.06-.06-.06,0,0-.15-.15-.07-.06-.15-.15h0l0,0-.07-.07-.09-.09h0l-.16-.17,0,0h0l-.19-.21h0l-.07-.08-.1-.12h0l-.11-.12,0,0,0-.05h0l-.18-.22-.06-.07-.17-.22,0-.07a2,2,0,0,1-.18-.26l0-.05a1.51,1.51,0,0,1-.12-.2.43.43,0,0,0,0-.07c0-.08-.07-.16-.1-.23a6.38,6.38,0,0,0-3.61-3.35l-.18-.08-.07,0-.13-.05-.09,0-.13,0-.09,0-.14,0-.11,0-.14,0-.11,0-.14,0-.12,0-.15,0-.13,0-.16,0-.12,0-.2,0-.22,0-.15,0-.16,0-.13,0-.18,0-.12,0-.18,0-.11,0-.19,0-.1,0-.2,0h-.08l-.21,0h-.05a12.64,12.64,0,0,0-1.45-.06h-.23l-.18,0h0l-.16,0h0c-.33.05-.57.14-.65.29a.3.3,0,0,0,0,.31,3.47,3.47,0,0,0,1.09.92l.36.21.06,0,.82.44.06,0,.45.23,0,0,.46.22,0,0,.49.24h0l1.61.77.34.16.13.06.42.2.07,0,.35.17.09,0,.37.19.08,0,.3.16,0,0,.31.17.06,0,.27.16a19.8,19.8,0,0,1,3,2.4l0,0,.18.18.05.06.15.16.06.07.12.14.08.08a.64.64,0,0,0,.1.13l.07.09.08.11.08.11.05.07.11.18a12.66,12.66,0,0,1,1.53,2.84l.12.35s0,.05,0,.08.06.2.08.3V299a3.4,3.4,0,0,1,.07.34v0a7.49,7.49,0,0,1-.62,4.36c-.8,1.67-2.94,5.27-2.94,5.27a20.31,20.31,0,0,0-1.36-5.6,62.13,62.13,0,0,0-3.91-5.59c-.86-1.25-1.66-4.07-2.81-5s-6.05-3.94-5.23-1.84l.14.29,0,.06.19.29,0,.05a2.55,2.55,0,0,0,.21.28l0,0a4.12,4.12,0,0,0,.28.31l.06.07.31.32,0,0,.33.32.06.05.36.33.06.05a4.32,4.32,0,0,0,.39.34h0c1.7,1.48,3.71,3,4.27,4.28a20.37,20.37,0,0,0,1.6,2.72c.22.32.44.65.65,1l.05.07.28.44v0c.1.14.18.28.27.43l.06.08.24.42,0,0c.08.13.14.25.21.37l0,.08.19.38a.64.64,0,0,1,0,.07l.14.32s0,0,0,.05.07.23.1.33,0,.05,0,.07,0,.21,0,.31a10,10,0,0,0,1,3.21c.39,1.17-.59,3.77-1.49,4.69l-.13.12,0,0-.14.14h0l-.16.15,0,0-.17.15h0L133,314l-.05,0-.18.16,0,0-.21.17-.07.06-.19.16h0l-.28.23h0c-.75.62-1.49,1.2-1.81,1.46l0,0,0,0h0l-.05,0h0l0,0a35.52,35.52,0,0,1-1.1-6.39c-.09-2.68-1.77-4.7-2.25-6a22.23,22.23,0,0,0-3.1-5.43l-.3-.33c-.12-.13-.24-.27-.37-.4h0a2.73,2.73,0,0,0-3.11-1.08c-1.93.6-.44,2.34,1.26,4.24a62.86,62.86,0,0,1,5.86,8.74,8.36,8.36,0,0,1,.64,1.59h0c.09.3.17.61.25.92h0a30.55,30.55,0,0,1,.64,4v.12h0c0,.1,0,.19,0,.25h0v.1h0v0a37.12,37.12,0,0,1-4.31,3.55c-1.65,1-3.53,1.39-2.89.54a8.69,8.69,0,0,0,1.18-3.05l.11-.58s-.41-2-.63-3.46h0c0-.34-.09-.66-.11-.92a18.29,18.29,0,0,0-2.19-5.74c-.76-1.12-1.81-3.26-3-3.48l-.19,0h0l-.17,0h0l-.16.05-.05,0-.12.06,0,0-.12.1,0,.05-.08.08-.06.08a.44.44,0,0,0-.08.11.56.56,0,0,0,0,.08s0,0,0,.08l-.09.19a.14.14,0,0,1,0,.06s0,.08,0,.13a2.51,2.51,0,0,0-.11.63v.19s0,.07,0,.1,0,.1,0,.15a.71.71,0,0,0,0,.14.49.49,0,0,0,0,.12,1.1,1.1,0,0,0,0,.18s0,.07,0,.1a1.5,1.5,0,0,0,.06.29c.41,1.65,4.18,7.34,4.55,9.22,0,.11,0,.23.06.35h0a23,23,0,0,1,0,4.63,27.6,27.6,0,0,1-5.28,1.67c-1.47.08-3.3.1-3.3.1s-1.58.67-1.47.08l.11-.58a21,21,0,0,0-2.26-2.13,1.64,1.64,0,0,1-.55-.69h0a1.4,1.4,0,0,1-.09-.29V319a2.19,2.19,0,0,1,0-.63v-.06a3.51,3.51,0,0,1,.16-.68l0-.07a3.62,3.62,0,0,1,.13-.35h0l.18-.36s0-.05,0-.08l.21-.36c.87-1.41,2.33-5.25,1.41-6.16l-.1-.06h0l-.07,0h0l-.07,0h0l-.08,0,0,0-.1.07,0,0-.14.13,0,0a.69.69,0,0,0-.11.13l-.05.06a1.13,1.13,0,0,0-.1.13l-.06.08-.1.14a.35.35,0,0,0,0,.08l-.12.18,0,.06a5.69,5.69,0,0,0-.32.55l0,.06-.13.23,0,.09-.12.21,0,.09-.12.24,0,.07-.15.31h0c-.62,1.22-1.17,2.45-1.46,2.94a9.43,9.43,0,0,0-1,3.09l-2.9-2.61a11.62,11.62,0,0,1,1-5c1.18-3,5.7-7,7-8.36l.26-.27h0a5.54,5.54,0,0,0,1.32-2h0a1.24,1.24,0,0,0-.29-1.33h0a1.9,1.9,0,0,0-.55-.32,1.27,1.27,0,0,0-.18-.06h-.06l-.12,0h-.26l-.11,0h-.07l-.12,0-.06,0-.14.05,0,0a3.24,3.24,0,0,0-.36.2l0,0-.13.09-.06,0-.12.11-.06,0L108,300l0,0-.15.14,0,0c-.24.25-.48.53-.72.82h0c-.71.87-1.4,1.87-2,2.53a22.54,22.54,0,0,0-4.17,5.39,27.09,27.09,0,0,0-1.09,5.12s-1.16-1.77-1.93-3.09h0a2,2,0,0,1-.11-.2h0c-.11-.2-.21-.38-.29-.54l0,0a.37.37,0,0,1,0-.11l0,0a.36.36,0,0,1,0-.09l0,0,0-.08v0l0-.09a6.55,6.55,0,0,1-.25-1.26,2.35,2.35,0,0,1-.91-2.23l.06-.26,0-.08c0-.08,0-.17.07-.26l0-.06c0-.11.07-.22.11-.34l0-.11c0-.1.07-.2.11-.29l0-.12.17-.41,0-.12.09-.19h0a12.28,12.28,0,0,1,4.69-5.46c3.69-2.21,7.65-3.88,7.52-5.12,0-.38-.32-.6-.79-.66h-.43l-.19,0a.91.91,0,0,0-.23,0l-.22,0-.17,0-.27.07-.16.05-.4.13-.17.07-.35.14-.15.06-.51.23-.15.07-.44.22-.16.09-.6.33-.11.06-.54.32-.18.11c-.22.14-.45.28-.68.44l-.76.48-.26.16-.49.29-.3.18-.42.24-.35.19-.34.19-.39.2-.28.15-.43.22-.2.1-.48.23-.12.06-.54.26h0a16.35,16.35,0,0,0-3,1.52A8.91,8.91,0,0,1,91.66,301s-.32-2.27-.4-4.18h0C91.25,296.6,91.24,296.35,91.24,296.11Zm28.47-11.34c.53,1.07,2.61,1,2.76.16s-1.06-.81-1.06-.81S119.19,283.7,119.71,284.77Z" style="fill:#263238"></path><path d="M121.2,290.37h-3c0-66.12-19.43-69.5-19.63-69.53l.32-3C99.82,218,121.2,220.93,121.2,290.37Z" style="fill:#263238"></path><rect x="103" y="227" width="2.58" height="206" style="fill:#263238"></rect><rect x="126.33" y="167" width="2.58" height="266" style="fill:#263238"></rect><rect x="112.38" y="287.81" width="2.58" height="145.19" style="fill:#263238"></rect><path d="M444.39,266.45V266h0c0-.14,0-.27,0-.4v-.06a2.83,2.83,0,0,0,0-.3v-.07a2.87,2.87,0,0,0-.05-.31v0a1.08,1.08,0,0,0,0-.21.14.14,0,0,0,0-.07,1.19,1.19,0,0,0-.08-.2c-.74-1.43-7.37-6.61-12.84-7.3s-12.09-1.64-10.5-3.19l0,0h0l.26-.2h0a3,3,0,0,1,.36-.18h0l.39-.13.06,0,.43-.07.09,0,.45,0h.73l.49,0h.15l.51.05.17,0,.51.07.19,0,.51.09.2,0,.5.1.22.05.48.11.24.05.46.11.26.07.42.11.3.08.36.1.36.11.27.08.6.17a70,70,0,0,1,8.71,3.69c1.38.68,3.33,1.89,3.33,1.89s.5-6.54.21-8-4.84-3.17-9.07-3.94-7.38,0-9.34-.43l-.52-.1h0l-.34-.06c-.43-.08-.84-.16-1.2-.25h0c-1.1-.26-1.58-.56.24-1.11,2.82-.85,7.47-2.83,11-2.4l1.08.13h0c3.37.36,7.36.63,7.36.63a29.67,29.67,0,0,0-3.75-5.73l-.27-.29h0c-1.77-1.93-2.48-2.8-4.79-2.36-2.12.4-6.54,2.55-8.83,3.32h-.05c-.15.05-.29.1-.42.13h0l-.37.09-.41.08h-.05l-.39.08-.49.1h0l-.45.09h0c-.3.06-.58.1-.83.13h0l-.32,0h0l-.25,0h-.05l-.08,0h0l-.06,0h0l-.05,0h0l0,0v0a.08.08,0,0,1,0,0v-.11s0,0,0-.05,0,0,0,0l0-.05,0-.05,0-.07,0-.06.05-.06.06-.08.05-.06.1-.11,0,0,.17-.17c2-1.95,6.12-3.36,8.09-3.73s2.45.48,1.46-.59-7.33-5.52-9.14-6-3.4-1.4-6.77-.13l-.58.23-.19.09-.36.18-.23.12-.29.16-.24.14-.24.16-.25.17-.2.14-.26.19a.39.39,0,0,1-.1.08l-.65.56h0a5.57,5.57,0,0,0-2,3.22c0,1.11,1.52,5.55,1.68,7.85a10.28,10.28,0,0,1-.77,1.26.82.82,0,0,1-.32.21,2.72,2.72,0,0,1-1.13-.11,4.19,4.19,0,0,1-.71-2.54c-.14-3.27-.65-6.78-2.09-7.77s-8.42-3-9.32-2.79-6.88,1-10.05,3.32c-.19.14-.37.28-.53.42l-.15.14c-.1.1-.21.2-.3.3l-.15.16-.24.29-.12.17-.2.28c0,.06-.07.11-.1.16s-.12.2-.17.3l-.07.15c-.05.1-.1.21-.14.31a.61.61,0,0,0-.05.12c-.05.12-.09.25-.13.37s0,0,0,0a7.55,7.55,0,0,0-.18.81v0c0,.11,0,.22,0,.32a.17.17,0,0,0,0,.07,1.93,1.93,0,0,0,0,.24s0,0,0,.08v.27a.62.62,0,0,1,0,.13.19.19,0,0,0,0,.08v.08a.25.25,0,0,1,0,.08h0c0,.07,0,.12,0,.12l.29-.09h0l.61-.19h0l.38-.11.08,0,.42-.13.06,0,.45-.12.06,0,.51-.15.1,0,.53-.15.11,0,.56-.15h.06l.56-.14.09,0,.58-.14.12,0,.58-.13.1,0,.6-.13h0l.57-.11.08,0,.55-.09.1,0,.52-.08h.07l.51-.06h.51l.4,0h0l.36,0,.09,0a2.37,2.37,0,0,1,.36.09l.06,0,.31.1.07,0,.32.14.05,0,.28.15,0,0a3.15,3.15,0,0,1,.27.19l0,0a2.19,2.19,0,0,1,.43.43h0a1.31,1.31,0,0,1,.24.47h0a.9.9,0,0,1,0,.46h0a.94.94,0,0,1-.29.42h0l-.13.1,0,0-.14.08-.05,0-.15.07-.07,0-.15.06-.11,0-.16,0-.15,0-.15,0-.21,0-.13,0-.38,0c-4.48.38-10.36-1.65-13.44.34l-.28.21-.09.08-.18.16a.47.47,0,0,0-.1.1,1.21,1.21,0,0,0-.16.16l-.1.12a2.09,2.09,0,0,0-.14.17,1.13,1.13,0,0,1-.1.13c0,.06-.09.12-.13.19l-.09.13-.13.21a.83.83,0,0,0-.07.13,1.71,1.71,0,0,0-.13.23.54.54,0,0,0-.07.13l-.12.24-.06.13c0,.09-.09.18-.12.27a.37.37,0,0,0-.05.11l-.12.29a.69.69,0,0,0,0,.1l-.12.32,0,.09a3.38,3.38,0,0,0-.11.34l0,.07c0,.12-.07.24-.11.36V245c0,.13-.08.26-.11.38v0c0,.13-.07.27-.1.4v0a18.84,18.84,0,0,0-.61,5c.07.32.12.71.17,1.09h0c0,.26.06.5.08.71h0v.39c0,.16,0,.25,0,.25l.41-.28h0l.56-.37.16-.1.15-.1.21-.13.15-.1.28-.19.11-.07.44-.27.06-.05.4-.25.13-.08.37-.23.14-.09.45-.28.07,0,.53-.33.12-.07L383,250l.18-.1.39-.23.17-.1.56-.33c3.26-1.87,6.58-4.23,8.87-3.72a3.9,3.9,0,0,1,.46.12h0l.46.14h0l.45.15.05,0,.44.17h0l.42.19,0,0c.14.06.27.13.4.2h0l.35.22h0c.11.08.22.16.31.24h0a1.54,1.54,0,0,1,.28.3h0l0,.09h0a.44.44,0,0,1,.07.24v.12s0,0,0,.06l0,0s0,0,0,.08L397,248l0,0-.05.06-.05,0-.08.06-.05,0-.15.09-.05,0-.14.07-.07,0-.16.06-.08,0-.26.09-.33.09-.14,0-.23.06-.17,0-.21.06-.25.06-.17.05-.33.09-.09,0-3.79,1h0l-.55.16h0l-.55.15h0l-.54.15h0l-.54.15h0a34.38,34.38,0,0,0-6.38,2.27c-2.25,1.36-2.94,3.54-2.45,6.11A15.21,15.21,0,0,0,381,264h0a1,1,0,0,0,.08.11l0,0,0,.05v0l0,0,0,0,0,0,.07-.06.05,0,.14-.13.08-.08.12-.11.1-.09.16-.15h0l0,0,0,0,.08-.08.12-.11.05,0,0,0,.08-.08.07-.07,0,0,.2-.2.08-.08.2-.19v0l0,0,.09-.1a.57.57,0,0,0,.11-.11h0l.21-.22,0,0h0v0l.24-.26,0,0,0,0,.08-.1.14-.15h0l.14-.16,0-.05,0-.06h0l.24-.29.07-.09.22-.28.06-.09.23-.34,0-.06a1.82,1.82,0,0,0,.15-.27.56.56,0,0,0,0-.08,2.48,2.48,0,0,0,.13-.3,8.32,8.32,0,0,1,4.68-4.34l.23-.1.09,0,.17-.06.11,0,.17-.06.13,0,.17,0,.14,0,.18,0,.15,0,.19-.05.15,0,.2,0,.16,0,.21,0,.15,0,.26-.05.29-.06.19,0,.21,0,.17,0,.22,0,.16,0,.24,0,.14,0,.25,0h.12l.26,0,.11,0,.27,0h.07a14,14,0,0,1,1.88-.08h.29l.23,0h0l.21,0h0c.43.07.74.19.84.37a.39.39,0,0,1,0,.41,4.43,4.43,0,0,1-1.42,1.18c-.15.1-.31.19-.47.28l-.08.05c-.32.19-.68.38-1.06.57l-.07,0-.58.3-.05,0-.59.29,0,0-.64.3-.05,0-2.08,1-.44.21-.18.09-.53.25-.09,0-.46.22-.11.06-.48.24-.1.05-.4.21-.06,0-.4.22-.08.05-.34.21a24.17,24.17,0,0,0-3.84,3.11l0,0-.23.23-.07.07c-.06.08-.13.14-.19.21l-.08.09-.16.19-.09.11a1,1,0,0,0-.13.16l-.1.12-.1.13-.11.15-.07.1c-.05.08-.1.15-.14.23a16.41,16.41,0,0,0-2,3.67c-.06.15-.11.3-.16.46l0,.09c0,.13-.07.26-.1.4s0,.05,0,.07l-.09.44v0a9.66,9.66,0,0,0,.81,5.64c1,2.16,3.8,6.82,3.8,6.82s.5-4.81,1.77-7.24,4-5.62,5.07-7.24,2.14-5.28,3.63-6.5,7.83-5.09,6.77-2.38a2.1,2.1,0,0,1-.18.37.2.2,0,0,1,0,.08,4,4,0,0,1-.24.38l-.05.07a4.39,4.39,0,0,1-.28.36l0,.05-.35.4-.08.09-.4.41,0,0-.43.41-.07.07c-.16.14-.31.29-.48.43l-.06.06-.51.45h0c-2.21,1.91-4.81,3.9-5.53,5.54a26.73,26.73,0,0,1-2.09,3.51c-.27.43-.56.85-.84,1.28l-.05.09c-.13.19-.25.38-.37.57l0,0L390,275l-.07.11-.32.54,0,.05c-.09.16-.18.33-.27.48a.54.54,0,0,1,0,.11c-.09.16-.17.33-.24.49l0,.08-.17.42,0,.07c-.05.15-.09.29-.13.43a.29.29,0,0,0,0,.09,1.89,1.89,0,0,0-.07.39c-.21,2.24-.76,2.66-1.26,4.16s.77,4.88,1.94,6.08l.16.15,0,.05.19.17h0l.21.19.06.05.22.19,0,0,.24.21.07.06.24.2,0,0,.26.22.09.08.24.2,0,0h0l.35.29h0c1,.8,1.92,1.55,2.34,1.89l.05,0,.05.05h0l.07.05h0l.06,0a45.6,45.6,0,0,0,1.41-8.27c.13-3.48,2.31-6.09,2.93-7.78a28.6,28.6,0,0,1,4-7c.14-.13.27-.28.4-.42l.47-.51h0c1-1.08,2.09-2,4-1.41,2.5.79.57,3-1.63,5.49a81.39,81.39,0,0,0-7.59,11.33,10.92,10.92,0,0,0-.82,2.06h0c-.11.39-.22.79-.32,1.19h0a39.55,39.55,0,0,0-.83,5.23v.16h0q0,.21,0,.33h0v.13h0v0a48.62,48.62,0,0,0,5.58,4.6c2.13,1.32,4.58,1.8,3.74.7a11.47,11.47,0,0,1-1.53-3.95l-.14-.76s.54-2.57.82-4.48h0c.07-.44.12-.85.14-1.19a23.76,23.76,0,0,1,2.83-7.44c1-1.44,2.35-4.21,3.86-4.5l.25,0h.06a.71.71,0,0,1,.21,0h0a1.29,1.29,0,0,1,.21.06l.06,0,.16.08,0,0,.17.13.06.06.11.11.08.1.09.14.07.11a.93.93,0,0,0,.05.1,1.89,1.89,0,0,1,.11.25l0,.08a.75.75,0,0,1,.05.16,3.5,3.5,0,0,1,.15.83v.24a.57.57,0,0,1,0,.13c0,.06,0,.12,0,.19a1.09,1.09,0,0,1,0,.18c0,.05,0,.11,0,.16l0,.23a.69.69,0,0,0,0,.13c0,.13-.05.25-.08.37-.54,2.15-5.42,9.51-5.9,11.95,0,.15-.06.3-.08.45h0a29.75,29.75,0,0,0,0,6s4.94,2.05,6.85,2.16,4.26.13,4.26.13,2,.87,1.91.11l-.15-.76a27.58,27.58,0,0,1,2.94-2.75,2.33,2.33,0,0,0,.71-.9h0a2.29,2.29,0,0,0,.12-.37s0-.05,0-.07a2.78,2.78,0,0,0,0-.82.17.17,0,0,0,0-.07,4.12,4.12,0,0,0-.2-.88l0-.1a4.22,4.22,0,0,0-.18-.45h0c-.07-.15-.14-.31-.22-.46l-.06-.11c-.09-.15-.17-.31-.27-.46-1.13-1.83-3-6.81-1.82-8a.6.6,0,0,1,.13-.09h0l.1,0h.06l.09,0,.06,0,.11.05.06,0,.13.1,0,0,.18.17s0,0,.05,0l.14.17.07.08.13.17.07.09c0,.07.09.13.13.19a.86.86,0,0,0,.07.1l.15.23.05.09c.14.22.28.45.42.7l.05.09.16.29.06.11.15.29.06.11.17.31,0,.08.2.4h0c.8,1.59,1.52,3.19,1.89,3.82a12.27,12.27,0,0,1,1.23,4l3.76-3.38a15,15,0,0,0-1.23-6.52c-1.54-3.95-7.38-9.12-9.12-10.84-.11-.11-.23-.22-.34-.34h0a7.16,7.16,0,0,1-1.71-2.65h0a1.57,1.57,0,0,1,.38-1.72h0a2.45,2.45,0,0,1,.7-.42l.24-.07.08,0,.16,0h.33l.14,0h.09l.15,0,.09,0,.17.07.06,0a4.49,4.49,0,0,1,.47.26l.06,0,.17.13.07,0,.16.14a.18.18,0,0,1,.07,0l.17.16.06.05.19.18,0,0c.31.32.62.68.93,1.06h0c.93,1.13,1.81,2.43,2.64,3.27,1.95,2,4.55,4.95,5.41,7a35.43,35.43,0,0,1,1.41,6.64s1.5-2.3,2.5-4h0l.15-.26h0l.38-.7,0-.05a.91.91,0,0,0,.07-.14l0-.06a.54.54,0,0,0,0-.11l0-.05s0-.07,0-.11l0,0s0-.08,0-.11a8.78,8.78,0,0,0,.32-1.64,3,3,0,0,0,1.18-2.89c0-.1-.05-.21-.08-.33s0-.07,0-.11-.06-.21-.09-.33l0-.08c0-.14-.09-.29-.14-.44a.88.88,0,0,0-.05-.15c0-.12-.08-.25-.13-.37l-.06-.16-.21-.52a1.11,1.11,0,0,1-.07-.16c0-.08-.07-.16-.11-.25h0a15.75,15.75,0,0,0-6.07-7.06c-4.78-2.87-9.9-5-9.74-6.64,0-.49.41-.78,1-.86H423l.26,0,.3,0,.28.06.22.05.35.09.21.06.51.18.22.08.46.18.19.08.66.3.2.1.57.28.21.11.77.43.14.08.71.42.23.14c.28.18.58.36.87.56l1,.63.33.2.64.39.4.23.53.3.46.26.44.24.5.26.37.19.55.28.26.13.62.3.16.08.7.33h0a21.54,21.54,0,0,1,3.88,2,11.46,11.46,0,0,0,2.67,1.69s.42-2.93.52-5.41h0C444.39,267.08,444.39,266.76,444.39,266.45Zm-36.87-14.69c-.68,1.39-3.37,1.27-3.57.21s1.37-1.05,1.37-1.05S408.2,250.38,407.52,251.76Z" style="fill:#263238"></path><path d="M391.17,339.16v-.48h0c0-.14,0-.28,0-.4v-.07c0-.1,0-.2,0-.3v-.07a2.68,2.68,0,0,1,0-.3v0a1.42,1.42,0,0,1,0-.22s0,0,0-.06a.76.76,0,0,1,.08-.2c.74-1.43,7.37-6.61,12.84-7.31s12.09-1.63,10.5-3.19l0,0h0a2.48,2.48,0,0,0-.26-.19h0a2,2,0,0,0-.36-.18l0,0a2.4,2.4,0,0,0-.38-.12l-.07,0-.43-.08h-.09l-.45,0h-.73l-.49,0h-.15l-.51,0-.17,0-.51.07-.19,0-.5.09-.21,0-.5.1-.22,0-.48.11-.24.06-.46.11-.26.07-.42.1-.3.09-.36.1-.36.1-.27.08-.6.18A68.53,68.53,0,0,0,396,331c-1.38.68-3.33,1.88-3.33,1.88s-.5-6.53-.21-8.05,4.84-3.16,9.07-3.93,7.38,0,9.34-.43l.52-.11h0l.34-.06L413,320h0c1.1-.26,1.58-.57-.24-1.12-2.82-.84-7.47-2.82-11-2.39l-1.09.12h0c-3.37.37-7.36.63-7.36.63a29.67,29.67,0,0,1,3.75-5.73l.27-.28h0c1.77-1.94,2.48-2.81,4.79-2.37,2.12.4,6.54,2.55,8.83,3.32l.05,0,.42.13h0l.37.09.41.08h.05l.39.08.49.11h0l.45.08h0c.3.05.58.1.83.12h0l.32,0h0l.25,0h.05l.08,0h0l.06,0h0l.05,0v0l0,0v0s0,0,0,0v-.11s0,0,0-.05v0l0-.06,0,0,0-.06,0-.06-.05-.07-.06-.08-.05-.06L415,312l0,0-.17-.18c-2-1.94-6.12-3.35-8.09-3.73s-2.45.48-1.46-.59,7.33-5.52,9.14-6,3.4-1.4,6.77-.13a5.89,5.89,0,0,1,.58.24l.19.09.36.17.23.12.29.17.24.14.24.16.25.16.2.15.26.18.1.09c.23.18.45.36.65.55h0a5.6,5.6,0,0,1,2,3.22c0,1.11-1.52,5.56-1.68,7.85a8.93,8.93,0,0,0,.77,1.26.72.72,0,0,0,.32.21,2.72,2.72,0,0,0,1.13-.11,4.16,4.16,0,0,0,.71-2.54c.14-3.27.65-6.78,2.09-7.76s8.42-3,9.33-2.79,6.87,1,10,3.31a5.83,5.83,0,0,1,.53.43l.15.14a4.11,4.11,0,0,1,.3.29l.15.17.24.28.12.17c.07.1.14.19.2.29s.07.1.1.16.12.2.17.3l.07.14c.05.11.1.21.14.32a.54.54,0,0,1,.05.11c.05.13.09.25.13.37l0,.05a6.91,6.91,0,0,1,.18.8v0c0,.11,0,.22,0,.32a.2.2,0,0,1,0,.07,2.09,2.09,0,0,1,0,.24s0,.06,0,.08v.27a.71.71,0,0,0,0,.14.22.22,0,0,1,0,.08v.08a.22.22,0,0,0,0,.08h0c0,.07,0,.11,0,.11l-.29-.09h0l-.61-.19h0l-.38-.12-.07,0-.43-.12-.06,0-.45-.13-.06,0-.51-.14-.1,0-.53-.14-.11,0-.56-.15-.06,0-.56-.14-.09,0-.58-.14-.12,0-.58-.14-.1,0-.6-.13h0l-.57-.11h-.08l-.55-.1-.1,0-.52-.07h-.07l-.51-.06-.41,0h-.1l-.4,0h0l-.36.05-.09,0-.36.09-.06,0-.31.11-.07,0-.32.14-.05,0-.28.16,0,0a1.85,1.85,0,0,0-.27.19l0,0a2.49,2.49,0,0,0-.43.43v0a1.27,1.27,0,0,0-.24.46h0a.9.9,0,0,0,0,.46h0a1,1,0,0,0,.29.43h0l.13.1h0l.14.09.05,0a.52.52,0,0,0,.15.07l.07,0,.15.06.11,0,.16,0,.15,0,.15,0,.21,0,.13,0,.38,0c4.48.38,10.36-1.65,13.44.35a2.83,2.83,0,0,1,.28.2l.09.08a1.37,1.37,0,0,1,.18.16.94.94,0,0,1,.1.1l.16.17.1.11.14.18.1.12c0,.07.09.13.13.19l.09.13.13.21.07.13.13.23a.83.83,0,0,1,.07.13l.13.25.05.12c0,.09.09.18.12.27l.05.11.12.3a.3.3,0,0,1,0,.1l.12.31,0,.09a3.38,3.38,0,0,1,.11.34l0,.07c0,.12.07.24.11.36v.05c0,.13.08.26.11.39v0c0,.14.07.27.1.41h0a18.87,18.87,0,0,1,.61,5.05c-.06.32-.12.72-.17,1.1h0c0,.25-.06.5-.08.71h0v.38c0,.16,0,.25,0,.25l-.41-.27h0l-.56-.37-.16-.11-.15-.09-.21-.14-.15-.1-.28-.18-.11-.07-.44-.28-.06,0-.4-.26-.13-.07-.37-.24-.14-.09-.45-.27-.07-.05-.53-.33L453,323l-.42-.25-.18-.11-.39-.23-.17-.1-.56-.32c-3.26-1.88-6.58-4.23-8.87-3.72l-.46.11h0l-.46.13h0l-.45.15-.05,0-.44.17,0,0-.42.18,0,0-.4.2,0,0c-.12.07-.24.14-.35.22h0c-.11.08-.22.16-.31.24h0a1.6,1.6,0,0,0-.28.31h0l0,.08h0a.59.59,0,0,0-.07.25h0v.1s0,0,0,.06l0,0,0,.08.05.06,0,.05.05.05.05,0,.08.06.05,0,.15.08.05,0,.14.06.07,0,.16.06.08,0,.26.08.33.09.14,0,.23.06.17.05.21.06.25.07.17,0,.33.09.09,0,3.79,1h0l.56.15h0l.55.16h0l.53.15,0,0,.54.15h0a33.79,33.79,0,0,1,6.38,2.26c2.25,1.37,2.94,3.54,2.45,6.12a15.24,15.24,0,0,1-2.05,4.82h0l-.07.12,0,0,0,0v0l0,0,0,0,0,0-.07-.06,0,0-.14-.13-.08-.07-.12-.11-.1-.1-.16-.15h0l0,0h0l-.08-.08-.12-.12-.05,0,0,0-.08-.08-.07-.07,0,0-.2-.19-.08-.09-.19-.19,0,0,0,0-.09-.09-.11-.12h0l-.21-.22,0,0h0l-.24-.27h0l0,0-.08-.09-.14-.15v0l-.14-.16,0,0,0-.07h0l-.24-.29-.07-.09-.22-.29-.06-.08-.23-.34,0-.07a2.43,2.43,0,0,1-.15-.26l-.05-.09a1.94,1.94,0,0,1-.13-.3,8.35,8.35,0,0,0-4.68-4.34l-.23-.09-.09,0-.17-.06-.11,0-.17-.05-.13,0-.17-.06-.14,0-.18-.05-.15,0-.19,0-.15,0-.2-.05-.16,0-.21,0-.15,0-.26-.05-.29,0-.19,0-.21,0-.17,0-.22,0-.16,0-.24,0-.14,0-.25,0-.12,0-.26,0h-.11l-.27,0h-.07a18.29,18.29,0,0,0-1.88-.08h-.55l-.21,0h0c-.43.06-.74.18-.84.37a.37.37,0,0,0,0,.4,4.56,4.56,0,0,0,1.42,1.19l.47.28.08,0c.32.19.68.38,1.06.58l.07,0,.58.29.05,0,.59.29,0,0,.64.31.05,0,2.08,1,.44.21.18.08.53.26.09,0,.46.23.11,0,.48.24.1.06.4.21.06,0,.4.22.08.05.34.21a24.73,24.73,0,0,1,3.84,3.11l0,0,.23.24.07.07.19.21.08.09.16.18.09.11.14.16.09.12.1.14.11.15.07.09.14.23a16.41,16.41,0,0,1,2,3.67c.06.15.11.31.16.46l0,.1c0,.13.07.26.1.39l0,.08.09.44v0a9.69,9.69,0,0,1-.81,5.65c-1,2.16-3.8,6.81-3.8,6.81s-.5-4.8-1.77-7.24-4-5.62-5.07-7.24-2.14-5.27-3.63-6.5-7.83-5.09-6.77-2.38a2.58,2.58,0,0,0,.18.38.59.59,0,0,0,0,.08,3.87,3.87,0,0,0,.24.37l.05.07a4.39,4.39,0,0,0,.28.36.1.1,0,0,0,0,.05c.11.14.23.27.35.41l.08.08.4.42,0,0,.43.42.07.06.48.44.06.06.51.44h0c2.21,1.92,4.81,3.91,5.53,5.54a26.78,26.78,0,0,0,2.09,3.52l.84,1.27.05.09c.13.19.25.38.37.57l0,0c.12.18.23.37.34.55l.07.12c.11.18.22.36.32.54l0,0,.27.49,0,.1c.09.17.17.33.24.49a.36.36,0,0,0,0,.09c.06.14.12.28.17.42l0,.06a4.14,4.14,0,0,1,.13.43.29.29,0,0,1,0,.09,2,2,0,0,1,.07.4c.21,2.23.76,2.65,1.26,4.16s-.77,4.88-1.94,6.07l-.16.16,0,0-.19.17h0l-.21.19-.06.05-.22.19,0,0-.24.22-.07.06-.24.2,0,0-.26.23-.09.07-.24.21h0l-.35.3h0c-1,.8-1.93,1.56-2.35,1.89l-.05,0-.05,0h0l-.07.05h0l-.06,0a45.79,45.79,0,0,1-1.41-8.28c-.13-3.48-2.31-6.09-2.93-7.77a28.42,28.42,0,0,0-4-7l-.4-.42-.47-.52h0c-1-1.08-2.09-2-4-1.4-2.5.78-.57,3,1.63,5.49a81.39,81.39,0,0,1,7.59,11.33,10.81,10.81,0,0,1,.82,2h0c.11.38.22.78.32,1.19h0a39.06,39.06,0,0,1,.83,5.23v.16h0q0,.19,0,.33h0V366h0v0a47.54,47.54,0,0,1-5.58,4.6c-2.13,1.32-4.58,1.8-3.74.7a11.4,11.4,0,0,0,1.53-3.95l.14-.75s-.54-2.58-.82-4.49h0c-.07-.45-.12-.86-.14-1.19a23.81,23.81,0,0,0-2.83-7.45c-1-1.44-2.35-4.21-3.86-4.5l-.25,0h-.06l-.21,0h0l-.21.07-.06,0-.16.08,0,0a.7.7,0,0,0-.17.13l-.06.06a.52.52,0,0,0-.1.11l-.09.09-.09.14a.75.75,0,0,0-.07.12l-.05.1a2.56,2.56,0,0,0-.11.24l0,.08a1,1,0,0,0-.05.16,3.69,3.69,0,0,0-.15.83v.24a.62.62,0,0,0,0,.13c0,.07,0,.13,0,.19a1.09,1.09,0,0,0,0,.18c0,.06,0,.11,0,.17l0,.23a.51.51,0,0,1,0,.13c0,.12.05.24.08.37.54,2.14,5.42,9.5,5.9,11.95,0,.14.06.29.08.45h0a29.66,29.66,0,0,1,0,6s-4.94,2.05-6.85,2.16-4.26.14-4.26.14-2,.86-1.91.11l.15-.76a27.21,27.21,0,0,0-2.94-2.76,2.23,2.23,0,0,1-.71-.89h0a2.4,2.4,0,0,1-.12-.38.2.2,0,0,0,0-.07,2.72,2.72,0,0,1,0-.81s0,0,0-.08a4.26,4.26,0,0,1,.2-.88.3.3,0,0,0,0-.1q.07-.21.18-.45h0l.22-.46.06-.11c.09-.15.17-.3.27-.46,1.13-1.82,3-6.8,1.82-8a.38.38,0,0,0-.13-.09l0,0h-.16l-.09,0-.06,0-.11.05-.06,0-.13.1,0,0-.18.18-.05,0a2.09,2.09,0,0,1-.14.17.27.27,0,0,1-.07.08l-.13.17a.61.61,0,0,1-.07.1c0,.06-.09.12-.13.19a.86.86,0,0,0-.07.1l-.15.23-.05.08c-.14.22-.28.46-.42.7l-.05.09-.16.29-.06.12-.15.28-.06.11-.17.32,0,.08-.2.4h0c-.8,1.58-1.52,3.18-1.89,3.81a12.33,12.33,0,0,0-1.23,4l-3.76-3.38a15,15,0,0,1,1.23-6.52c1.54-4,7.38-9.12,9.12-10.83l.34-.35h0a7.19,7.19,0,0,0,1.71-2.66h0a1.57,1.57,0,0,0-.38-1.72h0a2.45,2.45,0,0,0-.7-.42l-.24-.07h-.08l-.16,0h-.33l-.14,0-.09,0-.15,0-.09,0-.17.07-.06,0a4.66,4.66,0,0,0-.47.27l-.06,0-.17.12-.07.06-.16.13-.07.06-.17.15-.06.06-.19.18,0,0q-.46.48-.93,1.05h0c-.93,1.14-1.81,2.43-2.64,3.28-1.95,2-4.55,4.95-5.41,7a35.59,35.59,0,0,0-1.41,6.64s-1.5-2.3-2.5-4h0l-.14-.25h0l-.38-.7,0,0a1,1,0,0,1-.07-.15l0,0a.61.61,0,0,1,0-.12l0-.05a1,1,0,0,0,0-.1l0,0a.83.83,0,0,0,0-.12,8.78,8.78,0,0,1-.32-1.63,3,3,0,0,1-1.18-2.89c0-.1.05-.22.08-.34s0-.07,0-.1l.09-.33,0-.09c0-.14.09-.29.14-.44a.58.58,0,0,1,.05-.14c0-.13.08-.25.13-.38l.06-.15.21-.53a1,1,0,0,0,.07-.15c0-.09.07-.17.11-.25h0a15.85,15.85,0,0,1,6.07-7.06c4.78-2.86,9.9-5,9.74-6.64,0-.49-.41-.78-1-.86h-.55l-.26,0-.3,0-.28.05-.22,0-.35.1-.21.06-.51.17-.22.09-.46.18-.19.08-.66.3-.2.09-.57.29-.21.11-.77.42-.14.08-.7.42-.24.15-.87.55-1,.64-.33.2-.64.38-.4.23-.53.31-.46.25-.44.24-.5.27-.36.18L400,341l-.26.14-.62.3-.16.07-.7.34h0a23,23,0,0,0-3.88,2,11.66,11.66,0,0,1-2.67,1.7s-.42-2.94-.52-5.42h0C391.17,339.8,391.17,339.47,391.17,339.16ZM428,324.48c.68,1.38,3.37,1.26,3.57.2s-1.37-1-1.37-1S427.36,323.09,428,324.48Z" style="fill:#263238"></path><path d="M346.39,397.72v0c-.05-.15-.09-.31-.13-.45h0c0-.15-.08-.29-.11-.42v-.07c0-.11-.05-.21-.07-.32v-.07c0-.11,0-.22-.05-.32v0a1.93,1.93,0,0,1,0-.24v-.07a1.64,1.64,0,0,1,0-.23c.32-1.69,5.53-9,10.93-11.42s11.89-5.39,9.78-6.5h0a1.61,1.61,0,0,0-.33-.12h0a2.61,2.61,0,0,0-.42-.08h-.55l-.46.05h-.1l-.47.1-.12,0-.49.14-.14.05-.5.17-.15.06-.51.21-.16.07-.51.23-.18.08-.49.25-.2.1-.48.25-.21.12-.47.26-.23.13-.43.25-.25.15-.4.24-.28.18-.34.21-.33.22-.26.16-.56.37a74.62,74.62,0,0,0-7.79,6.45c-1.21,1.12-2.85,3-2.85,3s-2.5-6.54-2.67-8.18,4-4.73,8.09-6.82,7.56-2.28,9.44-3.3l.51-.27,0,0,.33-.17c.41-.21.82-.42,1.15-.61h0c1.05-.61,1.46-1.07-.58-1.07-3.15,0-8.53-.61-12,.91l-1.07.46h0c-3.35,1.41-7.35,2.9-7.35,2.9a31.46,31.46,0,0,1,2.09-7l.18-.38h0c1.22-2.53,1.68-3.63,4.19-3.89,2.29-.24,7.48.61,10.07.7h.55l.4,0,.45,0h0l.43,0,.53,0h0l.48-.05h0c.32,0,.63-.08.89-.13h0l.34-.08h0a1.33,1.33,0,0,0,.24-.1l0,0h0l.07,0h0s0,0,0-.05h0l0-.05v0l0,0v0a0,0,0,0,0,0-.05v0a.08.08,0,0,0,0-.05s0,0,0,0l0-.06,0,0,0-.06-.05,0-.05,0-.07-.05-.06-.05-.09-.06-.07-.05-.13-.08-.06,0-.23-.12c-2.63-1.39-7.3-1.57-9.43-1.35s-2.36,1.24-1.68-.15,5.82-7.91,7.54-8.92,3.06-2.48,6.91-2.21c.22,0,.44,0,.66.07l.23,0,.41.07.27.05.35.08.29.07.3.09.3.09.25.09a3,3,0,0,1,.32.12l.14.05.83.37h0a6,6,0,0,1,3,2.69c.38,1.13.15,6.16.68,8.56a9.3,9.3,0,0,0,1.19,1.06.75.75,0,0,0,.39.12,3.09,3.09,0,0,0,1.12-.46,4.5,4.5,0,0,0-.05-2.82c-.86-3.4-1.41-7.16-.23-8.61s7.71-5.61,8.7-5.71,7.35-1.1,11.31.31c.24.09.46.18.67.28l.2.1a3.84,3.84,0,0,1,.4.21l.2.12.33.22.18.13.29.24.15.13.27.26.12.12.24.28.09.1c.08.12.17.23.24.34l0,.05a6.13,6.13,0,0,1,.44.76v0c.05.11.09.22.14.32a.64.64,0,0,0,0,.07q0,.13.09.24l0,.09.06.19a.31.31,0,0,0,0,.08l0,.14a.31.31,0,0,1,0,.08.29.29,0,0,1,0,.09s0,.06,0,.08h0c0,.08,0,.13,0,.13h-4.05l-.62,0h-.07l-.61,0h-.1l-.64,0h-.13l-.64,0h-.11l-.65.05h0l-.61.06h-.1l-.58.07h-.11l-.56.08h-.08l-.54.1-.43.11-.09,0a2.86,2.86,0,0,0-.41.15l0,0-.35.16-.08,0-.35.21-.05,0-.29.21-.06,0-.29.25,0,.05-.24.24,0,0a1.93,1.93,0,0,0-.22.28l0,0a2.93,2.93,0,0,0-.31.57v0a1.35,1.35,0,0,0-.1.54h0a.82.82,0,0,0,.14.47h0a1.07,1.07,0,0,0,.43.34h0l.16.07h0l.17.05h0l.18,0h.08l.18,0h.62l.23,0,.14,0,.4-.07c4.71-1,10.12-4.87,13.88-3.77l.36.13.11.05.24.11.13.07.21.12.14.09.2.14.14.1.19.15a.69.69,0,0,1,.13.11l.2.17.12.11.2.19.11.12.2.21.1.11.2.24.09.1.21.26a.36.36,0,0,1,.07.1c.08.09.15.19.22.28l.06.08.22.32,0,.06a4,4,0,0,1,.23.34l0,.05.23.36,0,0,.23.38v0a19.87,19.87,0,0,1,2.17,5c0,.34.1.77.17,1.17h0c0,.27.09.53.13.75h0l0,.15v0l0,.1v.12a2.63,2.63,0,0,0,.06.27l-.51-.16h0l-.69-.21-.2-.06-.18-.05-.25-.08-.19,0-.34-.1-.14,0-.53-.15-.07,0-.5-.14-.15,0-.45-.12-.17-.05-.54-.15-.09,0-.65-.17-.14,0-.51-.13-.21-.05-.48-.12-.2-.05-.67-.16c-3.92-.93-8.05-2.32-10.24-1.1l-.44.26,0,0c-.14.08-.28.18-.42.27l0,0-.42.29,0,0-.4.31,0,0-.38.32,0,0c-.12.11-.24.22-.34.33l0,0q-.16.17-.3.33h0c-.09.12-.18.23-.25.34h0a2.05,2.05,0,0,0-.19.4h0a.44.44,0,0,0,0,.1h0a.87.87,0,0,0,0,.28h0l0,.07v0l0,.06,0,0a.23.23,0,0,0,.07.07l.06.05.06,0,.07,0,.06,0,.1,0,.06,0,.18,0H390l.17,0h2.76l4.2-.12h.66l.61,0h1.29a36.28,36.28,0,0,1,7.23.36c2.73.71,4.1,2.73,4.39,5.52a16.16,16.16,0,0,1-.62,5.58h0c0,.05,0,.1,0,.14v0l0,.07v0h0l0,0-.08,0-.07,0-.18-.09-.11-.05-.15-.08-.13-.06-.22-.11h0l-.05,0,0,0-.11,0-.16-.08-.06,0-.05,0-.11-.06-.1,0,0,0-.26-.14-.11-.06-.26-.14h0l-.05,0-.13-.07-.14-.08h0l-.28-.16-.05,0h0l-.34-.2h0l0,0-.12-.07-.18-.11h0l-.19-.12-.06,0-.07-.05h0l-.33-.23-.1-.07-.31-.22-.09-.07c-.12-.09-.24-.18-.35-.28s0,0-.05,0l-.25-.22-.07-.08-.23-.26c-1.15-1.54-3.26-2.65-6.12-3l-.27,0h-.1l-.19,0h-1.95l-.22,0h-.17l-.28,0-.32,0-.2,0-.23,0-.18,0-.24,0-.17,0-.26,0-.15,0-.26,0-.14,0-.27,0-.11,0-.29.05h-.07a16.14,16.14,0,0,0-1.95.5h0l-.25.09h0l-.23.09h0l-.21.09h0c-.43.2-.7.42-.75.64a.42.42,0,0,0,.16.4,4.69,4.69,0,0,0,1.82.78l.57.15.09,0c.4.09.82.18,1.26.26l.1,0,.68.13h.05l.7.11h.05l.74.12h.06l2.44.38.51.08.21,0,.63.1h.11l.54.1.13,0,.56.1.12,0,.48.1h.07l.47.11.1,0,.42.11a27,27,0,0,1,4.88,2l.06,0,.31.17.09.06.26.15.11.07.22.14.13.08.18.12.14.1.14.11.16.12.1.07c.07.07.15.13.21.2a17.26,17.26,0,0,1,3.15,3.15,4.15,4.15,0,0,1,.3.43l.06.09c.08.12.16.24.23.37a.25.25,0,0,0,0,.07c.08.14.15.28.22.43l0,0a10.39,10.39,0,0,1,.9,6c-.4,2.54-1.81,8.16-1.81,8.16s-2-4.77-4-6.88-5.78-4.55-7.42-5.87-3.81-4.75-5.72-5.55-9.58-2.82-7.67-.36q.13.16.3.33l.07.06c.11.11.23.21.36.32l.07.05.4.29.06,0,.49.3.1.06.54.31h0l.57.3.1,0,.62.3.09,0,.65.3h0c2.85,1.29,6.13,2.53,7.37,4a28.37,28.37,0,0,0,3.21,3l1.26,1.05.08.08.56.47,0,0,.52.46.11.1c.17.15.34.3.49.45l.05,0,.42.42.08.09c.14.14.28.28.4.42l.06.08c.11.13.22.25.31.38l.05.06c.1.13.19.27.27.39a.41.41,0,0,0,.05.09,3.49,3.49,0,0,1,.19.39c.9,2.23,1.59,2.49,2.56,3.88s.71,5.24-.12,6.82c0,.06-.07.13-.12.21l0,.06-.13.23h0l-.16.26,0,.07-.16.26,0,0-.18.29-.06.08-.18.28,0,0-.2.31-.07.1c-.06.09-.12.19-.19.28v0h0l-.28.41h0c-.75,1.12-1.5,2.19-1.83,2.67l0,0,0,.06v0l-.06.07h0l0,.07a50,50,0,0,1-4-8.05c-1.2-3.53-4.23-5.54-5.38-7.08s-4.51-5-6.27-6l-.53-.31-.64-.38h0c-1.36-.8-2.76-1.42-4.56-.21-2.33,1.57.34,3.29,3.35,5.13a87.37,87.37,0,0,1,11.25,9.29,11.53,11.53,0,0,1,1.48,1.85h0c.24.36.47.74.7,1.12h0a39.74,39.74,0,0,1,2.45,5.11v0l.06.14h0c.05.13.1.24.13.33h0l0,.06v.07h0v0a52,52,0,0,1-4.31,6.43c-1.78,2-4.14,3.25-3.62,1.87a12.36,12.36,0,0,0,.36-4.52l-.09-.82s-1.34-2.47-2.22-4.34h0c-.2-.44-.38-.84-.51-1.18a25.42,25.42,0,0,0-5.18-6.76c-1.45-1.18-3.7-3.6-5.34-3.43l-.26,0-.06,0a.67.67,0,0,0-.21.09h0a1.37,1.37,0,0,0-.2.13l0,.05a.86.86,0,0,0-.14.13l0,0-.13.18,0,.08-.07.14-.06.13a1.09,1.09,0,0,0-.05.17.74.74,0,0,0,0,.14s0,.08,0,.12a2.54,2.54,0,0,0,0,.29v.08a1.15,1.15,0,0,0,0,.19,4.76,4.76,0,0,0,.1.89v0a1,1,0,0,0,.06.23l0,.14c0,.06,0,.12.07.19l.06.18a1.11,1.11,0,0,0,.07.16,2.29,2.29,0,0,0,.1.23l.06.13a3.9,3.9,0,0,0,.19.35c1.21,2,8.48,8.08,9.72,10.45.07.13.14.28.21.43h0a31.25,31.25,0,0,1,1.8,6.16s-4.44,3.61-6.36,4.31-4.33,1.45-4.33,1.45-1.83,1.52-1.92.7l-.08-.83a29.85,29.85,0,0,0-3.85-1.92,2.35,2.35,0,0,1-1-.7h0a2.71,2.71,0,0,1-.24-.35l0-.06a3.12,3.12,0,0,1-.28-.83s0-.06,0-.09a4.29,4.29,0,0,1-.05-1v-.11a4.4,4.4,0,0,1,.05-.51h0q0-.26.09-.54s0-.08,0-.13.08-.36.13-.55c.6-2.22,1-7.9-.57-8.74l-.16-.05h-.16l-.05,0a.31.31,0,0,0-.1.05.1.1,0,0,0,0,0,.41.41,0,0,0-.1.09l-.05.05-.1.14,0,.05a2.32,2.32,0,0,0-.14.23l0,.06a1.47,1.47,0,0,0-.1.22l-.05.1a1.8,1.8,0,0,1-.08.21s0,.08,0,.12l-.08.24a.56.56,0,0,1,0,.12c0,.09-.05.19-.08.28l0,.11c-.07.26-.14.55-.21.85a.36.36,0,0,0,0,.1,3.59,3.59,0,0,0-.08.35l0,.13c0,.11-.05.23-.07.34l0,.13c0,.13,0,.25-.07.37v.1l-.09.48h0c-.33,1.87-.58,3.73-.77,4.5a13.29,13.29,0,0,0,0,4.48l-4.89-2.31a16.12,16.12,0,0,1-.73-7.06c.36-4.52,4.77-11.62,6-13.91.08-.14.16-.3.24-.45h0a7.45,7.45,0,0,0,.94-3.25h0a1.7,1.7,0,0,0-.92-1.65h0a2.25,2.25,0,0,0-.85-.22h-.35l-.17,0-.09,0-.15.05-.1,0-.14.07-.09,0-.14.09-.08.05-.15.12-.06.05a5.22,5.22,0,0,0-.4.41l0,.06-.14.18-.06.08-.13.18a.22.22,0,0,1,0,.08l-.12.21-.05.08c-.05.08-.09.16-.13.24l0,.05c-.23.43-.44.89-.64,1.37h0c-.6,1.45-1.11,3.05-1.7,4.17-1.39,2.63-3.15,6.47-3.4,8.82a37.77,37.77,0,0,0,.59,7.24s-2.25-1.9-3.79-3.35h0l-.23-.21h0l-.61-.6,0,0-.12-.12,0-.05-.09-.1,0-.05-.07-.09,0,0-.08-.11a8.9,8.9,0,0,1-.82-1.57,3.25,3.25,0,0,1-2.1-2.61c0-.1,0-.23,0-.36v-.12c0-.11,0-.23,0-.36v-.59a1,1,0,0,0,0-.17c0-.13,0-.28,0-.42a1.09,1.09,0,0,1,0-.18c0-.19,0-.39.05-.6l0-.18,0-.29h0a17,17,0,0,1,4.06-9.1c4-4.4,8.61-8.2,7.94-9.79a1.06,1.06,0,0,0-1.3-.57l-.19.05-.18,0-.2.07-.26.1-.29.14-.27.14-.21.12-.33.2-.19.13-.48.33-.2.16-.41.32-.17.14c-.2.16-.39.33-.59.51l-.17.16-.5.47-.18.18c-.22.21-.44.43-.66.67l-.12.13c-.2.2-.39.42-.6.64-.06.07-.12.15-.19.22l-.73.84c-.27.33-.55.65-.82,1a4.12,4.12,0,0,1-.28.31c-.17.2-.35.4-.53.59l-.34.35q-.23.25-.45.48l-.39.4-.38.39-.44.42-.31.3-.48.46-.23.22-.54.49-.14.13c-.21.2-.42.38-.62.56h0a23.59,23.59,0,0,0-3.37,3.21,12.4,12.4,0,0,1-2.22,2.55s-1.33-2.88-2.19-5.39h0C346.59,398.37,346.48,398,346.39,397.72Zm33.3-26.36c1.12,1.22,3.84.27,3.72-.88s-1.72-.65-1.72-.65S378.57,370.15,379.69,371.36Z" style="fill:#263238"></path><rect x="406.03" y="251.76" width="2.98" height="180.86" style="fill:#263238"></rect><rect x="397.29" y="352.71" width="2.98" height="79.91" style="fill:#263238"></rect><rect x="414.77" y="251.76" width="2.98" height="180.86" style="fill:#263238"></rect><line x1="77.23" y1="432.76" x2="449.52" y2="432.76" style="fill:none;stroke:#263238;stroke-linecap:round;stroke-linejoin:round;stroke-width:2px"></line></g><g id="freepik--Portfolio--inject-65"><rect x="117.51" y="81.4" width="275.68" height="343.22" rx="4.05" style="fill:#fff;stroke:#263238;stroke-linecap:round;stroke-linejoin:round"></rect><path d="M121.56,81.4H389.14a4.05,4.05,0,0,1,4.05,4.05v6.29a0,0,0,0,1,0,0H117.51a0,0,0,0,1,0,0V85.46A4.05,4.05,0,0,1,121.56,81.4Z" style="fill:#263238;stroke:#263238;stroke-linecap:round;stroke-linejoin:round"></path><path d="M131.2,87.46a2.42,2.42,0,1,0-2.42,2.42A2.41,2.41,0,0,0,131.2,87.46Z" style="fill:#fff"></path><path d="M142.58,87.46a2.42,2.42,0,1,0-2.41,2.42A2.41,2.41,0,0,0,142.58,87.46Z" style="fill:#fff"></path><path d="M154,87.46a2.42,2.42,0,1,0-2.41,2.42A2.41,2.41,0,0,0,154,87.46Z" style="fill:#fff"></path><rect x="128.76" y="107.61" width="247.39" height="139.86" style="opacity:0.1"></rect><line x1="134.81" y1="120.8" x2="211.26" y2="120.8" style="fill:none;stroke:#263238;stroke-linecap:round;stroke-linejoin:round;stroke-width:3px"></line><line x1="134.81" y1="153.17" x2="178.89" y2="153.17" style="fill:none;stroke:#263238;stroke-linecap:round;stroke-linejoin:round"></line><line x1="134.81" y1="160.75" x2="178.89" y2="160.75" style="fill:none;stroke:#263238;stroke-linecap:round;stroke-linejoin:round"></line><line x1="134.81" y1="168.32" x2="178.89" y2="168.32" style="fill:none;stroke:#263238;stroke-linecap:round;stroke-linejoin:round"></line><line x1="134.81" y1="175.9" x2="178.89" y2="175.9" style="fill:none;stroke:#263238;stroke-linecap:round;stroke-linejoin:round"></line><line x1="134.81" y1="183.48" x2="178.89" y2="183.48" style="fill:none;stroke:#263238;stroke-linecap:round;stroke-linejoin:round"></line><line x1="134.81" y1="131.82" x2="242.25" y2="131.82" style="fill:none;stroke:#263238;stroke-linecap:round;stroke-linejoin:round;stroke-width:3px"></line><line x1="382.06" y1="248.18" x2="125.17" y2="248.18" style="fill:none;stroke:#263238;stroke-linecap:round;stroke-linejoin:round"></line><line x1="382.06" y1="412.86" x2="125.17" y2="412.86" style="fill:none;stroke:#263238;stroke-linecap:round;stroke-linejoin:round"></line><path d="M137.12,235.76h36a3.17,3.17,0,0,1,3.17,3.17v9.27a0,0,0,0,1,0,0H134a0,0,0,0,1,0,0v-9.27A3.17,3.17,0,0,1,137.12,235.76Z" style="fill:#263238"></path><path d="M182.28,235.76h36a3.17,3.17,0,0,1,3.17,3.17v9.27a0,0,0,0,1,0,0H179.11a0,0,0,0,1,0,0v-9.27A3.17,3.17,0,0,1,182.28,235.76Z" style="fill:#263238"></path><path d="M227.43,235.76h36a3.17,3.17,0,0,1,3.17,3.17v9.27a0,0,0,0,1,0,0H224.26a0,0,0,0,1,0,0v-9.27A3.17,3.17,0,0,1,227.43,235.76Z" style="fill:#263238"></path><line x1="140.8" y1="242.3" x2="168.79" y2="242.3" style="fill:none;stroke:#304163;stroke-linecap:round;stroke-linejoin:round;stroke-width:2px"></line><line x1="185.92" y1="242.3" x2="213.91" y2="242.3" style="fill:none;stroke:#304163;stroke-linecap:round;stroke-linejoin:round;stroke-width:2px"></line><line x1="231.03" y1="242.3" x2="259.02" y2="242.3" style="fill:none;stroke:#304163;stroke-linecap:round;stroke-linejoin:round;stroke-width:2px"></line><path d="M248.28,327.3h-121V259h121ZM376.15,259h-121V327.3h121ZM206,333H127.25v68.31H206Zm170.12,0H212.65v68.31h163.5Z" style="fill:#304163"></path><path d="M248.28,327.3h-121V259h121ZM376.15,259h-121V327.3h121ZM206,333H127.25v68.31H206Zm170.12,0H212.65v68.31h163.5Z" style="fill:#fff;opacity:0.4"></path><ellipse cx="253.58" cy="444.08" rx="134.43" ry="6.31" style="fill:#263238"></ellipse></g><g id="freepik--Character--inject-65"><g style="clip-path:url(#freepik--clip-path--inject-65)"><path d="M280.2,168.21s-9.07,18.56-10.47,26.23-2.51,15.07-1,15.07S295,196.39,295,196.39l3.91,6.84-6.84,48.55s10.19,9.48,25,8.65,32.65-12,32.65-12l-12.84-42.69,4.75-9.77s25.39,13.4,31,15.63,6.27,3.35,6.55,2.23-5-36.83-5-36.83l-8.51,1.12s1.81,17.16,1.12,17.16-5.44-6.84-12.28-12.28-15.48-15.34-21.2-17.72-14.65-3.62-20.37-1.81-9.07,9.77-9.07,9.77l-19.11,11.3,5-12.28Z" style="fill:#263238"></path><g style="clip-path:url(#freepik--clip-path-2--inject-65)"><path d="M283.2,168.53s-6.55,15.35-10,25.17a78.19,78.19,0,0,0-4.09,18.21" style="fill:none;stroke:#304163;stroke-linecap:round;stroke-linejoin:round"></path><path d="M286.47,169.15a202.15,202.15,0,0,0-7.16,20.25c-2.45,9-4.7,21.28-4.7,21.28" style="fill:none;stroke:#304163;stroke-linecap:round;stroke-linejoin:round"></path><line x1="284.63" y1="185.51" x2="278.49" y2="208.02" style="fill:none;stroke:#304163;stroke-linecap:round;stroke-linejoin:round"></line><line x1="283.2" y1="190.42" x2="297.93" y2="180.6" style="fill:none;stroke:#304163;stroke-linecap:round;stroke-linejoin:round"></line><line x1="281.97" y1="196.15" x2="297.93" y2="186.54" style="fill:none;stroke:#304163;stroke-linecap:round;stroke-linejoin:round"></line><line x1="280.54" y1="201.47" x2="297.11" y2="192.27" style="fill:none;stroke:#304163;stroke-linecap:round;stroke-linejoin:round"></line><line x1="299.16" y1="183.47" x2="295.89" y2="196.56" style="fill:none;stroke:#304163;stroke-linecap:round;stroke-linejoin:round"></line><line x1="303.46" y1="184.49" x2="295.07" y2="251.19" style="fill:none;stroke:#304163;stroke-linecap:round;stroke-linejoin:round"></line><line x1="308.37" y1="176.92" x2="302.64" y2="255.28" style="fill:none;stroke:#304163;stroke-linecap:round;stroke-linejoin:round"></line><line x1="313.89" y1="170.37" x2="310.62" y2="257.94" style="fill:none;stroke:#304163;stroke-linecap:round;stroke-linejoin:round"></line><line x1="319.21" y1="174.06" x2="319" y2="258.76" style="fill:none;stroke:#304163;stroke-linecap:round;stroke-linejoin:round"></line><path d="M327,177.94s-.81,77.55-.81,78.57" style="fill:none;stroke:#304163;stroke-linecap:round;stroke-linejoin:round"></path><path d="M333.74,179.58s-.21,17.8,0,28.64S337.83,253,337.83,253" style="fill:none;stroke:#304163;stroke-linecap:round;stroke-linejoin:round"></path><line x1="341.71" y1="182.44" x2="338.65" y2="200.45" style="fill:none;stroke:#304163;stroke-linecap:round;stroke-linejoin:round"></line><line x1="338.65" y1="215.18" x2="346.42" y2="248.12" style="fill:none;stroke:#304163;stroke-linecap:round;stroke-linejoin:round"></line><line x1="341.51" y1="192.06" x2="366.47" y2="205.97" style="fill:none;stroke:#304163;stroke-linecap:round;stroke-linejoin:round"></line><line x1="341.02" y1="185.09" x2="364.83" y2="199.43" style="fill:none;stroke:#304163;stroke-linecap:round;stroke-linejoin:round"></line><line x1="344.78" y1="179.79" x2="365.45" y2="195.13" style="fill:none;stroke:#304163;stroke-linecap:round;stroke-linejoin:round"></line><line x1="367.9" y1="183.67" x2="369.34" y2="208.43" style="fill:none;stroke:#304163;stroke-linecap:round;stroke-linejoin:round"></line><line x1="371.18" y1="181.83" x2="373.63" y2="209.66" style="fill:none;stroke:#304163;stroke-linecap:round;stroke-linejoin:round"></line><line x1="374.25" y1="182.24" x2="378.75" y2="211.7" style="fill:none;stroke:#304163;stroke-linecap:round;stroke-linejoin:round"></line></g><path d="M280.2,168.21s-9.07,18.56-10.47,26.23-2.51,15.07-1,15.07S295,196.39,295,196.39l3.91,6.84-6.84,48.55s10.19,9.48,25,8.65,32.65-12,32.65-12l-12.84-42.69,4.75-9.77s25.39,13.4,31,15.63,6.27,3.35,6.55,2.23-5-36.83-5-36.83l-8.51,1.12s1.81,17.16,1.12,17.16-5.44-6.84-12.28-12.28-15.48-15.34-21.2-17.72-14.65-3.62-20.37-1.81-9.07,9.77-9.07,9.77l-19.11,11.3,5-12.28Z" style="fill:none;stroke:#263238;stroke-linecap:round;stroke-linejoin:round"></path><path d="M315.49,149.94l1,15.2,2.79,4.05s2.65,9.07,3.07,8.51,2.92-8.37,2.92-8.37l5-6,.83-16.18S327.91,153.57,315.49,149.94Z" style="fill:#fff;stroke:#263238;stroke-linecap:round;stroke-linejoin:round"></path><path d="M320.23,114.28a30.1,30.1,0,0,0-9.76,8.23c-4.05,5.44-2.1,14.37-2.1,18.28s3.91,9.9,6.56,12.41,5.72,3.91,9.07,3.07,8.93-6.14,10-13,1.26-15.35-.28-19.67-9.06-8.93-10-9.49S321.63,112.75,320.23,114.28Z" style="fill:#263238;stroke:#263238;stroke-linecap:round;stroke-linejoin:round"></path><path d="M320,101.67s-9.06,3.21-14.23,9.35S299,120.36,299,126.36s3.35,41.3,3.35,41.3-4.89-.7-7.4,3.2-1.11,9.21,1.4,10.75a10.84,10.84,0,0,0,4.32,1.67s2.93,3.77,9.35,2.79,7-4.46,6.83-11.3,0-48.69,0-48.69.7-2.79,2.65-3.76,10.05.56,10.33,7.53-1.4,33.48-1.4,42.69,6.7,11.58,12.56,12.55S351.9,178,351.2,171.42s-5.3-8.51-7-8.65l-1.68-.14a75.42,75.42,0,0,1,1.26-13.53c1.39-7.95,3.63-16.46,1-26.09s-9.21-17.71-14.65-19.67S322.6,100.69,320,101.67Z" style="fill:#304163;stroke:#263238;stroke-linecap:round;stroke-linejoin:round"></path><path d="M304.86,161.93c0,1.8,0,2.87,0,2.87" style="fill:none;stroke:#263238;stroke-linecap:round;stroke-linejoin:round"></path><path d="M309,114c-4.23,3.58-4.88,8.7-4.65,17.68.19,7.58.38,19.55.48,26.84" style="fill:none;stroke:#263238;stroke-linecap:round;stroke-linejoin:round"></path><path d="M322.83,111.57v-6.83s-1.13,2.85-9.39,6.55c-.54.24-1.05.49-1.53.74" style="fill:none;stroke:#263238;stroke-linecap:round;stroke-linejoin:round"></path><path d="M338.76,159.39a8.81,8.81,0,0,0,.87,4.27" style="fill:none;stroke:#263238;stroke-linecap:round;stroke-linejoin:round"></path><path d="M323.12,106.73s0,3.14,9.39,7.41,12.81,17.93,10.53,27c-1.28,5.12-3,10.06-3.82,14.27" style="fill:none;stroke:#263238;stroke-linecap:round;stroke-linejoin:round"></path><path d="M306.69,183.89c-7.53-.25-10.92-9-5.2-13.11,6-4.27,10.81.85,10.81.85L311.16,150" style="fill:none;stroke:#263238;stroke-linecap:round;stroke-linejoin:round"></path><path d="M306,178.18s-1.42-4.55,2.56-4.55c3.37,0,6.34,6.92,2.17,9.4" style="fill:none;stroke:#263238;stroke-linecap:round;stroke-linejoin:round"></path><path d="M335.36,148.58l2,19.64s4-4.27,8.54-.57,4.27,12.81-2.56,14.23-9.11-3.13-9.11-7.11,6.55-5.13,8.25-3.14-.56,6.27-2,5.7" style="fill:none;stroke:#263238;stroke-linecap:round;stroke-linejoin:round"></path><path d="M320.23,112.13a30.1,30.1,0,0,0-9.76,8.23c-4.05,5.44-2.1,14.37-2.1,18.28s3.91,9.9,6.56,12.41,5.72,3.91,9.07,3.07,8.93-6.13,10-13,1.26-15.35-.28-19.67-9.06-8.93-10-9.49S321.63,110.6,320.23,112.13Z" style="fill:#fff;stroke:#263238;stroke-linecap:round;stroke-linejoin:round"></path><path d="M304.33,131.66c0,3.82,4,7.54,7.81,7.54a7,7,0,0,0,7-6.91c0-3.81-3.13-5.65-7-5.65S304.33,127.85,304.33,131.66Z" style="fill:#fff;stroke:#263238;stroke-linecap:round;stroke-linejoin:round"></path><path d="M322.92,143.1s-2.51-1.95-3.49-.28.28,4.75,2,5.44,4.6,1.12,5.16-3.48S322.92,143.1,322.92,143.1Z" style="fill:#263238;stroke:#263238;stroke-linecap:round;stroke-linejoin:round"></path><path d="M324,145.75a1.12,1.12,0,1,0-1.11,1.12A1.11,1.11,0,0,0,324,145.75Z" style="fill:#263238;stroke:#263238;stroke-linecap:round;stroke-linejoin:round"></path><path d="M339.07,131.66c0,3.82-4,7.54-7.82,7.54a6.94,6.94,0,0,1-7-6.91c0-3.81,3.12-5.65,7-5.65S339.07,127.85,339.07,131.66Z" style="fill:#263238;stroke:#263238;stroke-linecap:round;stroke-linejoin:round"></path><line x1="318.7" y1="129.85" x2="324.28" y2="129.85" style="fill:#fff;stroke:#263238;stroke-linecap:round;stroke-linejoin:round;stroke-width:1.5px"></line><path d="M319.12,132.29s2.23-3,5.16,0" style="fill:#fff;stroke:#263238;stroke-linecap:round;stroke-linejoin:round;stroke-width:1.5px"></path><path d="M286.61,142.54l4.47,8.51-6.84,14,6.7,2.79s6.55-17.44,7.95-19.67,6.56-9.21,7-9.49,3.63-4,2.65-4.74-3.34.83-5,2.93-4,4-4.6,3.76-7.67-4.88-8.65-5S286.61,137.38,286.61,142.54Z" style="fill:#fff;stroke:#263238;stroke-linecap:round;stroke-linejoin:round"></path><rect x="290.94" y="123.71" width="27.9" height="18.55" style="fill:#263238;stroke:#263238;stroke-linecap:round;stroke-linejoin:round"></rect><rect x="290.94" y="123.71" width="27.9" height="4.74" style="fill:#fff;stroke:#263238;stroke-linecap:round;stroke-linejoin:round"></rect><path d="M311,133.34a5.73,5.73,0,1,0-5.72,5.72A5.72,5.72,0,0,0,311,133.34Z" style="fill:#fff;stroke:#263238;stroke-linecap:round;stroke-linejoin:round"></path><path d="M309.55,133.34a4.25,4.25,0,1,0-4.24,4.25A4.24,4.24,0,0,0,309.55,133.34Z" style="fill:#fff;stroke:#263238;stroke-linecap:round;stroke-linejoin:round"></path><path d="M286.19,136.13c-.06-.75,2.51-11.72,3.63-13s4.88-3.07,5.16-2.09.28,1.54-.83,2.09-2.93,1.26-3.21,1.68-1.82,8.51-1.82,8.51l2,2.65-4.89,3.35A20.83,20.83,0,0,0,286.19,136.13Z" style="fill:#fff;stroke:#263238;stroke-linecap:round;stroke-linejoin:round"></path><path d="M290.38,143.24l4.6-1a24.48,24.48,0,0,1,2.93,3.2c.42.84,1.12-.13,1.54-.55s0-1.4-.7-2.93-1.95-4.19-2.65-4.75-5.58.14-5.58.14l3.63-3.48s2.37,1.67,4.46,3.2,1.12-.14,1.39-.83-4.6-4.19-5.3-4.75-1.11-1.11-2.09-.41-7.25,6.69-7.25,6.69-1,.28.42,3.07a14.45,14.45,0,0,0,2.79,4" style="fill:#fff;stroke:#263238;stroke-linecap:round;stroke-linejoin:round"></path><path d="M289.12,140.31s5.86-1.67,6.84-1a26,26,0,0,1,3.07,3.34" style="fill:#fff;stroke:#263238;stroke-linecap:round;stroke-linejoin:round"></path><polygon points="282.29 159.84 294.42 166.82 290.66 176.44 278.8 170.45 282.29 159.84" style="fill:#fff;stroke:#263238;stroke-linecap:round;stroke-linejoin:round"></polygon><path d="M366.69,175.05s-3.35-13-5.72-19a110.75,110.75,0,0,1-4.47-13c-.14-1.11,1.54-.83,2.51,1.26s4.89,10.32,5.45,10.46,2.92.14,2.92-.7-2.37-9.48-2.37-11,1.4-.14,2,1,2.79,8.79,2.93,9.21,3.2-.1,4.17,1.21c1.25,1.7.56,3.48,0,5a27.13,27.13,0,0,0-1.79,3.31,11.49,11.49,0,0,1-1.61,2.69l1.16,9.4Z" style="fill:#fff;stroke:#263238;stroke-linecap:round;stroke-linejoin:round"></path><path d="M373.8,153s3.07-.28,3.07,1.53-1,5.86-1.95,6.7-1.4.56-1.4-2.09S373.8,153,373.8,153Z" style="fill:#fff;stroke:#263238;stroke-linecap:round;stroke-linejoin:round"></path><path d="M369.9,153.29s.27-2.79,2.65-2.65,1.95,3.48,1.81,6.55-.56,4.89-1.4,4.47-1.53-6-1.67-7.12-1-.14-1-.14" style="fill:#fff;stroke:#263238;stroke-linecap:round;stroke-linejoin:round"></path><path d="M365.57,161s2.93-3.35,5-5.44,4.75-2.93,4.19-1.12-3.63,4.47-3.63,4.47,0,3.48-.84,5-.69,2.93-2.93,2.37" style="fill:#fff;stroke:#263238;stroke-linecap:round;stroke-linejoin:round"></path><polygon points="363.76 172.96 364.18 182.3 375.48 180.91 375.89 171.56 363.76 172.96" style="fill:#fff;stroke:#263238;stroke-linecap:round;stroke-linejoin:round"></polygon><path d="M325.08,126.13s2.91-4.23,7.54-2.91" style="fill:none;stroke:#263238;stroke-linecap:round;stroke-linejoin:round;stroke-width:2px"></path><path d="M318.47,121.11s-2.38-2.91-6.47-.66" style="fill:none;stroke:#263238;stroke-linecap:round;stroke-linejoin:round;stroke-width:2px"></path></g></g></svg>