<svg xmlns="http://www.w3.org/2000/svg" xmlns:xlink="http://www.w3.org/1999/xlink" viewBox="0 0 500 500"><defs><clipPath id="freepik--clip-path--inject-272"><rect x="81.14" y="249.36" width="56.65" height="110.48" style="fill:none"></rect></clipPath><clipPath id="freepik--clip-path-2--inject-272"><path d="M363.58,326.86s-25.18-11.75-50.08-21-49.8-16.79-78.89-14.83c0,0-18.19,4.76-43.37,17.63S151.8,333,143.68,342s-9,18.18-9,18.18H164l28.08-10.62,3.32,10.62H312.66l-2.8-16.22,22.94,9.23Z" style="fill:#304163;stroke:#263238;stroke-linecap:round;stroke-linejoin:round"></path></clipPath><clipPath id="freepik--clip-path-3--inject-272"><path d="M222.58,303.92s2,16.51,4.47,25.46,5,11.19,5,11.19l7.55-6.43,2,5.87,9,3.64,7-7.56-1.68-5.87,12,5.87s-1.12-17.62-4.76-30.49S247.76,288,237.4,291.89A29.87,29.87,0,0,0,222.58,303.92Z" style="fill:#fff;stroke:#263238;stroke-linecap:round;stroke-linejoin:round"></path></clipPath><clipPath id="freepik--clip-path-4--inject-272"><path d="M238,327.7s9.24,17.35,12.59,15.95,4.76-19,4.76-19A42.37,42.37,0,0,1,238,327.7Z" style="fill:none;stroke:#263238;stroke-linecap:round;stroke-linejoin:round"></path></clipPath><clipPath id="freepik--clip-path-5--inject-272"><path d="M199.75,349.71s8.4-2,11.19-.28,1.12,12.87-.27,14.55-4.2,1.68-4.2-1.4a30.84,30.84,0,0,1,.84-6.43h-4.48Z" style="fill:#fff;stroke:#263238;stroke-linecap:round;stroke-linejoin:round"></path></clipPath><clipPath id="freepik--clip-path-6--inject-272"><path d="M195,353.07a53.41,53.41,0,0,1-3.92,7c-1.68,2.24-6.43,5.88-7,9.8s7.55,8.11,11.19,8.67,9.79-4.2,11.19-4.76,3.08-1.4,1.12-5.59S195,353.07,195,353.07Z" style="fill:#fff;stroke:#263238;stroke-linecap:round;stroke-linejoin:round"></path></clipPath><clipPath id="freepik--clip-path-7--inject-272"><path d="M195,348.3a4,4,0,0,1,6.19,1.32c2.64,5.13,8.11,15.89,8.11,17.16,0,1.68.28,4.19-2.8,2.24s-9.51-10.63-11.19-13.15C194.09,354.08,192.76,350.33,195,348.3Z" style="fill:#fff;stroke:#263238;stroke-linecap:round;stroke-linejoin:round"></path></clipPath><clipPath id="freepik--clip-path-8--inject-272"><path d="M363.82,326.19c-19.15-2.81-22.71,13.7-33.84,27.16-8.51,10.28-15.88,14.41-18.89,15.79-3.65-2.6-8-5.38-10.59-6.05-5.15-1.33-6.64,1.33-8.8,3.49s-17.12,11-17.95,12.63,1.16,2,2.49,2.16,5.82-1.5,5.82-1.5-4,1.83-3,3.16,10.13-1.17,13.29-2.33c0,0-8.31,3.82-7.81,5.15s3.49.83,5.48.33,12.8-4.32,12.8-4.32-8,3.66-10,4.82,1,2,2.49,2,8.64-3.33,11.8-4.32S317,383,321.44,380.7a19.14,19.14,0,0,0,4.37-3c9.06-4.84,35.84-19.95,42.32-31.09C375.27,334.32,373.73,327.65,363.82,326.19Z" style="fill:#fff;stroke:#263238;stroke-linecap:round;stroke-linejoin:round"></path></clipPath></defs><g id="freepik--background-simple--inject-272"><path d="M369.26,124.94s-34.63-34-84.56-24.91S210.55,149.19,180,175.46c-16,13.75-38.12,17.34-56.56,27.37C64.47,234.89,65,319.19,105,354.64c34.58,30.69,80.64,37.8,142.78,23.2s106.4-22.72,149.08-76.93S411.56,170.67,369.26,124.94Z" style="fill:#304163"></path><path d="M369.26,124.94s-34.63-34-84.56-24.91S210.55,149.19,180,175.46c-16,13.75-38.12,17.34-56.56,27.37C64.47,234.89,65,319.19,105,354.64c34.58,30.69,80.64,37.8,142.78,23.2s106.4-22.72,149.08-76.93S411.56,170.67,369.26,124.94Z" style="fill:#fff;opacity:0.7000000000000001"></path></g><g id="freepik--Device--inject-272"><g style="clip-path:url(#freepik--clip-path--inject-272)"><path d="M96,363.11h32.39a2.34,2.34,0,1,0,0-4.68H96a5.54,5.54,0,0,1-5.34-7l11.49-41.18A2.34,2.34,0,1,0,97.63,309L86.14,350.14a10.21,10.21,0,0,0,9.85,13Z" style="fill:#fff;stroke:#263238;stroke-linecap:round;stroke-linejoin:round"></path><rect x="105.66" y="255.29" width="7.39" height="95.5" transform="translate(254 590.9) rotate(173.16)" style="fill:#fff;stroke:#263238;stroke-linecap:round;stroke-linejoin:round"></rect><path d="M100,256.07s-13,46.48,11.37,94.82Z" style="fill:#263238;stroke:#263238;stroke-linecap:round;stroke-linejoin:round"></path></g></g><g id="freepik--Plants--inject-272"><path d="M409.52,294.58c.05,0,1-3.45,1-3.67.36-2.61-.47-7.87-3.13-9.16a3.49,3.49,0,0,0-4.75,2.11c-.72,2,.19,4.36,1.26,6C405.13,291.81,409.52,294.58,409.52,294.58Z" style="fill:#304163"></path><path d="M357.1,293.44c2.12.92,7.3.81,7.3.81s-1.11-3.4-1.21-3.6c-1.14-2.38-4.73-6.31-7.66-5.91a3.48,3.48,0,0,0-2.8,4.38C353.21,291.14,355.29,292.65,357.1,293.44Z" style="fill:#304163"></path><path d="M355.25,356.25a2.49,2.49,0,0,0,2,3.14,5.23,5.23,0,0,0,4.13-1.51,16,16,0,0,0,2.6-4.17c.7.24,1.41.48,2.08.75.45.19.9.34,1.35.56l1.32.61c.82.43,1.68.86,2.47,1.29.56.29,1.08.58,1.61.88-.7-.21-2.09-.57-2.21-.59-1.86-.27-5.63.3-6.56,2.19a2.54,2.54,0,0,0-.19.57h7.9c.72-.9,1.3-1.79,1.42-2,.88.49,1.72,1,2.51,1.44l.9.54h2.53c-.86-.51-1.79-1.05-2.81-1.62s-1.84-1-2.82-1.53a30.23,30.23,0,0,0,.84-3.08,18.08,18.08,0,0,0,4.79-1.44c.46.89.9,1.76,1.3,2.58.94,1.92,1.72,3.65,2.35,5.09h1.51c-.71-1.55-1.62-3.47-2.74-5.65-.46-.9-1-1.85-1.51-2.83.17-.14,1-.81,1.88-1.6l.73-.09c.27,1.37.53,2.71.75,4,.4,2.28.72,4.36,1,6.2h1.91c-.31-1.92-.69-4.11-1.17-6.52-.28-1.39-.6-2.88-.94-4.4a38.63,38.63,0,0,0,4-1.9c1.51,1.64,5.38,3.55,5.88,3.8-.52,1.29-1.05,2.55-1.56,3.73-.85,1.95-1.66,3.72-2.41,5.29h2.06c.62-1.4,1.28-2.94,2-4.61.54-1.32,1.09-2.73,1.64-4.19.56.12,5.1,1,7.22.56,1.92-.43,4.25-1.52,5.11-3.42a3.49,3.49,0,0,0-1.93-4.83c-2.8-.94-7.07,2.24-8.64,4.36-.09.13-.94,1.6-1.46,2.53.22-.59.45-1.17.67-1.79.44-1.21.85-2.44,1.3-3.76.19-.65.39-1.3.58-2s.35-1.36.53-2c.38-1.6.69-3.24,1-4.9,1.07.39,4.88,1.72,6.85,1.58s4.43-.86,5.57-2.61a3.49,3.49,0,0,0-1.17-5.06c-2.63-1.36-7.33,1.14-9.2,3-.12.11-1.31,1.6-1.95,2.43.16-1,.32-2,.45-3,.36-2.93.64-5.9.92-8.87.09-.91.19-1.81.29-2.72.38.14,4.87,1.82,7.08,1.66,2-.14,4.43-.86,5.57-2.6a3.5,3.5,0,0,0-1.18-5.07c-2.62-1.35-7.33,1.14-9.2,3-.14.14-1.85,2.28-2.26,2.85.21-2,.44-4,.75-5.93a59.86,59.86,0,0,1,1.7-7.8c.18.07,4.86,1.83,7.12,1.67,2-.13,4.43-.86,5.57-2.6a3.5,3.5,0,0,0-1.17-5.07c-2.63-1.35-7.33,1.14-9.2,3-.13.13-1.43,1.75-2,2.54l-.15-.07a45.11,45.11,0,0,1,3.09-7.41c.68-1.31,1.39-2.53,2.11-3.7.84.42,4.7,2.29,6.75,2.37s4.5-.37,5.82-2a3.49,3.49,0,0,0-.61-5.16c-2.46-1.64-7.41.33-9.47,2-.12.09-1.16,1.12-1.9,1.89.33-.53.67-1.07,1-1.57,1.23-1.86,2.48-3.48,3.59-4.92.64-.81,1.24-1.52,1.8-2.19,1,0,5.22-.15,7.05-1s3.82-2.4,4.25-4.44a3.5,3.5,0,0,0-2.92-4.31c-2.94-.31-6.43,3.71-7.5,6.12-.09.21-1.17,3.63-1.12,3.63h.07c-.56.63-1.15,1.31-1.78,2.07-1.14,1.41-2.43,3-3.71,4.86a63.68,63.68,0,0,0-3.85,6.13,46,46,0,0,0-3.29,7.41l0,.09c0-.86,0-3.28,0-3.47-.34-2.61-2.53-7.47-5.44-8a3.49,3.49,0,0,0-4,3.28c-.17,2.08,1.34,4.16,2.81,5.47,1.65,1.48,6.25,2.91,6.62,3a61.77,61.77,0,0,0-1.94,8c-.29,1.58-.52,3.18-.74,4.79,0-.75,0-1.42,0-1.51-.34-2.62-2.54-7.47-5.44-8a3.49,3.49,0,0,0-4,3.29c-.17,2.07,1.34,4.15,2.8,5.47s5.39,2.63,6.43,3l-.24,1.85c-.35,3-.69,5.92-1.11,8.81-.15,1-.34,2-.52,3,0-.66,0-1.22,0-1.31-.34-2.61-2.53-7.47-5.44-8a3.49,3.49,0,0,0-4,3.28c-.17,2.08,1.34,4.16,2.81,5.47s5,2.5,6.23,2.9c-.21,1-.43,2-.68,3-.19.66-.33,1.31-.55,2l-.63,1.94c-.44,1.22-.89,2.48-1.35,3.66-.32.82-.64,1.6-1,2.38.16-1,.43-3,.43-3.17a13.55,13.55,0,0,0-1.82-6.6,3.29,3.29,0,0,0-.05-.77,3.49,3.49,0,0,0-4.27-3c-2.24.6-3.83,3.81-4.48,6.44a2.61,2.61,0,0,0-1.71-1.33l-.45-1.46c-.18-.66-.46-1.33-.68-2-.57-1.54-1.22-3.08-1.9-4.61,1.1-.26,5-1.26,6.58-2.47s3.22-3.16,3.21-5.24a3.5,3.5,0,0,0-3.78-3.58c-2.93.32-5.48,5-6,7.58,0,.16-.2,2.06-.28,3.1-.42-.92-.83-1.84-1.29-2.75-1.31-2.65-2.72-5.28-4.11-7.91-.43-.81-.85-1.62-1.27-2.43.4-.09,5.07-1.17,6.83-2.52,1.56-1.2,3.21-3.16,3.2-5.24a3.49,3.49,0,0,0-3.77-3.58c-2.94.32-5.49,5-6,7.58,0,.19-.29,2.92-.32,3.62-.92-1.78-1.83-3.57-2.65-5.36a62.58,62.58,0,0,1-2.88-7.44c.19,0,5.07-1.15,6.87-2.54,1.56-1.19,3.22-3.16,3.2-5.24a3.49,3.49,0,0,0-3.77-3.58c-2.94.32-5.49,5-6,7.58,0,.17-.22,2.25-.29,3.24l-.17,0a45.34,45.34,0,0,1-1.5-7.89c-.16-1.46-.24-2.88-.28-4.25.93-.11,5.17-.68,6.93-1.74s3.55-2.79,3.76-4.86a3.51,3.51,0,0,0-3.36-4c-2.95,0-6,4.37-6.81,6.88,0,.13-.34,1.57-.54,2.62,0-.62,0-1.26,0-1.86,0-2.23.15-4.27.29-6.08.09-1,.19-2,.29-2.83.85-.59,4.27-3,5.32-4.72s1.86-4.11,1.1-6.05a3.49,3.49,0,0,0-4.81-2c-2.63,1.35-3.32,6.63-2.88,9.23,0,.23,1,3.68,1.07,3.65l.05,0c-.11.83-.23,1.73-.33,2.71-.18,1.81-.37,3.85-.42,6.1a61.93,61.93,0,0,0,.17,7.24,46,46,0,0,0,1.34,8l0,.09c-.46-.73-1.83-2.73-2-2.87-1.64-1.89-5.78-4.54-8.53-3.82a2.41,2.41,0,0,0-2.89.29c-1.54,1.45-1,5.21-.16,6.91.07.15,1.43,2.32,1.46,2.29l0,0q.12.88.3,1.92c.23,1.28.51,2.73.92,4.28a44.35,44.35,0,0,0,1.54,4.93,33.13,33.13,0,0,0,2.5,5.23l0,.05c-.47-.41-1.8-1.51-1.91-1.58-1.58-1-5.23-2.09-6.87-.76a2.5,2.5,0,0,0-.09,3.71,5.22,5.22,0,0,0,4.28,1c1.57-.22,4.48-2,4.71-2.2a45.51,45.51,0,0,0,3.46,4.78c.73.89,1.49,1.76,2.26,2.62l-.84-.68c-1.58-1-5.23-2.09-6.87-.76a2.49,2.49,0,0,0-.08,3.71,5.2,5.2,0,0,0,4.27,1,16.69,16.69,0,0,0,4.59-2.12l.9,1c1.44,1.56,2.89,3.12,4.27,4.69.28.32.54.65.81,1l-.17.1c-1.59-1-5.21-2.06-6.84-.74a2.5,2.5,0,0,0-.08,3.72,5.23,5.23,0,0,0,4.27,1,5.08,5.08,0,0,0,1.05-.29,4.71,4.71,0,0,0,.16.62,4.28,4.28,0,0,0,.88,1.42,2.42,2.42,0,0,0-2.5,1.32c-.91,1.9,1,5.21,2.34,6.51l1.67,1.26-1.21-.63c-.83-.43-1.66-.82-2.56-1.26l-1.33-.58c-.45-.21-.94-.37-1.41-.55-1.1-.41-2.23-.77-3.39-1.11a16.34,16.34,0,0,0,1.72-4.72c.07-1.41-.22-3.22-1.36-4.18a2.51,2.51,0,0,0-3.7.39c-1.19,1.75.17,5.3,1.33,6.79.07.09,1,1.07,1.55,1.59-.69-.2-1.38-.4-2.09-.58-2-.51-4.13-1-6.21-1.43l-1.9-.44c.13-.25,1.71-3.29,1.79-4.88a5.19,5.19,0,0,0-1.36-4.17,2.51,2.51,0,0,0-3.7.39c-1.19,1.74.17,5.3,1.33,6.79.09.11,1.45,1.51,1.82,1.85-1.4-.33-2.78-.66-4.14-1.05a42.63,42.63,0,0,1-5.38-1.89c.06-.12,1.72-3.28,1.81-4.9.07-1.41-.22-3.22-1.36-4.18a2.51,2.51,0,0,0-3.7.39c-1.19,1.75.17,5.3,1.33,6.79.07.1,1.11,1.17,1.62,1.66l-.07.1a33.14,33.14,0,0,1-5-2.84c-.87-.59-1.67-1.21-2.44-1.82a16.92,16.92,0,0,0,2.27-4.58,5.2,5.2,0,0,0-.9-4.3,2.49,2.49,0,0,0-3.71,0c-1.37,1.6-.41,5.28.57,6.89.06.08.7.91,1.18,1.51l-1-.85c-1.21-1-2.25-2.06-3.17-3-.52-.52-1-1-1.4-1.47a16.58,16.58,0,0,0-.1-5.08c-.44-1.34-1.37-2.92-2.77-3.4a2.51,2.51,0,0,0-3.31,1.7c-.48,2.05,2.07,4.88,3.68,5.85.14.08,2.48,1.14,2.48,1.1v0c.39.45.83.92,1.31,1.44.9.93,1.93,2,3.12,3a45.53,45.53,0,0,0,4,3.27,32.53,32.53,0,0,0,5,3l.06,0c-.61-.08-2.33-.27-2.46-.26-1.89,0-5.52,1.14-6.15,3.15a2.5,2.5,0,0,0,2,3.15,5.24,5.24,0,0,0,4.13-1.52c1.19-1,2.61-4.18,2.72-4.43a43.68,43.68,0,0,0,5.52,2.08c1.1.34,2.21.64,3.33.94l-1.07-.11c-1.89,0-5.52,1.15-6.15,3.16a2.49,2.49,0,0,0,2,3.14,5.23,5.23,0,0,0,4.13-1.51,16.74,16.74,0,0,0,2.66-4.3l1.29.33c2.07.51,4.14,1,6.15,1.56.71.2,1.4.41,2.1.63l-.93-.09C359.51,353.1,355.88,354.23,355.25,356.25Zm22.12-6-.17-.14.72,0,.12.21c.3.55.57,1.08.85,1.62C378.42,351.38,377.46,350.31,377.37,350.23Zm1.84-.14h.17c.1.3.22.62.31.88ZM379,336.51c.33.84.66,1.67.94,2.5.21.66.46,1.27.63,1.95.11.41.23.81.34,1.21l-.22.1a3.49,3.49,0,0,0-1.36,1.94,11.12,11.12,0,0,0-4.5-2.78,12.55,12.55,0,0,0,3-2.36A6.87,6.87,0,0,0,379,336.51Zm-23.57-20.58c-.44-1.54-.75-3-1-4.24-.14-.72-.25-1.38-.35-2,.27-.33,1-1.27,1.67-2.26a10,10,0,0,0,3.2,1c2.19.32,6.82-1,7.19-1.13a62.35,62.35,0,0,0,2.8,7.76c.64,1.48,1.33,2.94,2,4.4-.42-.62-.8-1.17-.86-1.24-1.73-2-6.23-4.83-8.95-3.68l-.08.05a4.62,4.62,0,0,0,1-3.32,2.49,2.49,0,0,0-3.09-2.06c-2,.57-3.26,4.17-3.32,6.06,0,.1.08,1.14.14,1.9C355.64,316.77,355.49,316.34,355.38,315.93Zm3.9,7.66c0,.12.29,1.59.44,2.28l-.11.05A32.41,32.41,0,0,1,357,320.8c-.4-1-.73-1.93-1-2.87a24.53,24.53,0,0,0,3.45-1.78,3.71,3.71,0,0,0,.11,3.38,4.21,4.21,0,0,0,.28.41A10,10,0,0,0,359.28,323.59Zm4,7.19a43.84,43.84,0,0,1-3.45-4.54c.12-.07,3.26-1.79,4.22-3.09.15-.21.3-.44.44-.68l.42.07c2,.29,5.94-.77,7-1.07.27.56.55,1.12.82,1.67,1.34,2.67,2.69,5.33,3.93,8,.33.7.63,1.4.93,2.1l-.24-.1-.2-.27a13.6,13.6,0,0,0-5.75-3.66,3.91,3.91,0,0,0,.2-2.47A2.49,2.49,0,0,0,368.3,325c-2,.8-2.78,4.51-2.64,6.39,0,.14.38,2.06.5,2.55C365.17,332.9,364.2,331.85,363.28,330.78Zm8.69,9.28c-1.42-1.56-2.91-3.09-4.38-4.62-.46-.47-.9-.94-1.35-1.42l.29-.16c0,.09.07.18.11.26,1,1.83,3.41,2.73,5.36,3a6.5,6.5,0,0,0,1.19,0,9.25,9.25,0,0,0-.21,2.34c0,.1.19,1,.34,1.76l-.25,0C372.71,340.89,372.35,340.47,372,340.06Z" style="fill:#304163"></path><path d="M383.78,347.54c0-.06.07-.13.1-.2,0,.31,0,.62.06.88C383.89,348,383.83,347.77,383.78,347.54Z" style="fill:#304163"></path><path d="M350.46,318.63c1.64.22,5.17-.89,5.17-.89s-1.43-2.11-1.54-2.23c-1.25-1.41-4.49-3.4-6.42-2.55a2.5,2.5,0,0,0-1.07,3.56A5.24,5.24,0,0,0,350.46,318.63Z" style="fill:#304163"></path><path d="M332,341.09c-1.82-.48-5.62-.35-6.76,1.42a2.5,2.5,0,0,0,1.07,3.56c1.33.68,3.11.24,4.38-.37,1.49-.72,3.83-3.59,3.83-3.59S332.16,341.14,332,341.09Z" style="fill:#304163"></path></g><g id="freepik--Character--inject-272"><line x1="77.01" y1="360.16" x2="411.23" y2="360.16" style="fill:none;stroke:#263238;stroke-linecap:round;stroke-linejoin:round"></line><polygon points="213.53 365.84 174.74 389.34 249.34 393.45 272.84 366.59 213.53 365.84" style="fill:#fff;stroke:#263238;stroke-linecap:round;stroke-linejoin:round"></polygon><path d="M254,370.9s-15.2,3.2-7.73,5.34,17.6-2.94,13.33-2.94-9.33-.53-11.2.8" style="fill:none;stroke:#263238;stroke-linecap:round;stroke-linejoin:round"></path><path d="M244.36,377.84s-4,4.53-14.67,7.46" style="fill:none;stroke:#263238;stroke-linecap:round;stroke-linejoin:round"></path><polyline points="232.89 382.64 227.83 385.84 236.89 385.84" style="fill:none;stroke:#263238;stroke-linecap:round;stroke-linejoin:round"></polyline><path d="M219,381.84s-18.41.8-10.94,5.33,16.8.27,15.74-1.87-14.4-4-12.8-.26,7.46,1.33,7.46,1.33" style="fill:none;stroke:#263238;stroke-linecap:round;stroke-linejoin:round"></path><polyline points="205.69 378.9 210.22 377.04 200.09 384.77" style="fill:none;stroke:#263238;stroke-linecap:round;stroke-linejoin:round"></polyline><line x1="210.23" y1="377.04" x2="209.43" y2="379.7" style="fill:none;stroke:#263238;stroke-linecap:round;stroke-linejoin:round"></line><line x1="220.09" y1="373.04" x2="233.16" y2="373.57" style="fill:none;stroke:#263238;stroke-linecap:round;stroke-linejoin:round"></line><line x1="220.89" y1="370.37" x2="235.29" y2="371.17" style="fill:none;stroke:#263238;stroke-linecap:round;stroke-linejoin:round"></line><polygon points="349.44 376.31 341 385.81 351.03 393.19 364.21 386.34 361.58 377.37 349.44 376.31" style="fill:none;stroke:#263238;stroke-linecap:round;stroke-linejoin:round"></polygon><polyline points="349.44 376.31 357.36 386.34 351.03 393.19" style="fill:none;stroke:#263238;stroke-linecap:round;stroke-linejoin:round"></polyline><polyline points="357.36 386.34 361.05 382.64 358.41 378.42 353.14 380.01" style="fill:none;stroke:#263238;stroke-linecap:round;stroke-linejoin:round"></polyline><polygon points="341 385.81 341.29 372.17 352.75 372.17 360.5 377.57 349.38 387 341 385.81" style="fill:#fff;stroke:#263238;stroke-linecap:round;stroke-linejoin:round"></polygon><polygon points="380.21 393.2 372.61 401.75 381.64 408.4 393.51 402.22 391.14 394.15 380.21 393.2" style="fill:none;stroke:#263238;stroke-linecap:round;stroke-linejoin:round"></polygon><polyline points="380.21 393.2 387.34 402.22 381.64 408.4" style="fill:none;stroke:#263238;stroke-linecap:round;stroke-linejoin:round"></polyline><polyline points="387.34 402.22 390.66 398.9 388.29 395.1 383.54 396.52" style="fill:none;stroke:#263238;stroke-linecap:round;stroke-linejoin:round"></polyline><polygon points="372.61 401.75 372.87 389.47 383.19 389.47 390.17 394.33 380.15 402.82 372.61 401.75" style="fill:#fff;stroke:#263238;stroke-linecap:round;stroke-linejoin:round"></polygon><polygon points="397.62 376.32 396.91 363.64 384.59 365.46 380.07 379.63 388.27 384.13 397.62 376.32" style="fill:none;stroke:#263238;stroke-linecap:round;stroke-linejoin:round"></polygon><polyline points="397.62 376.32 384.94 374.79 384.59 365.46" style="fill:none;stroke:#263238;stroke-linecap:round;stroke-linejoin:round"></polyline><polyline points="384.94 374.79 384.92 380.01 389.77 381.15 392.39 376.31" style="fill:none;stroke:#263238;stroke-linecap:round;stroke-linejoin:round"></polyline><polygon points="396.91 363.64 406.32 373.51 398.19 381.59 388.89 383.23 390.12 368.69 396.91 363.64" style="fill:#fff;stroke:#263238;stroke-linecap:round;stroke-linejoin:round"></polygon><path d="M209.31,281.3h90.57a17.33,17.33,0,0,1,17.33,17.33v61.52a0,0,0,0,1,0,0H192a0,0,0,0,1,0,0V298.63A17.33,17.33,0,0,1,209.31,281.3Z" style="fill:#263238"></path><path d="M363.58,326.86s-25.18-11.75-50.08-21-49.8-16.79-78.89-14.83c0,0-18.19,4.76-43.37,17.63S151.8,333,143.68,342s-9,18.18-9,18.18H164l28.08-10.62,3.32,10.62H312.66l-2.8-16.22,22.94,9.23Z" style="fill:#304163"></path><g style="clip-path:url(#freepik--clip-path-2--inject-272)"><path d="M344.34,343.3,340.85,329s-27.69-8.25-38.9-12.53-19.78-10.88-19.78-7.25,4.29,12.19,1,9.89-8.9-18.14-10.55-15.17-36.59-2.64-47.14.33-21.42,8.9-31.31,15.82-20.11,2-19.45,4.95,5.27,8.24,5.27,8.24-12.19-5.6-12.19-.66-9.23,13.19-9.23,13.19l4.49,14.35H164l28.08-10.62,3.32,10.62H312.66l-2.8-16.22,22.94,9.23Z" style="opacity:0.2"></path></g><path d="M363.58,326.86s-25.18-11.75-50.08-21-49.8-16.79-78.89-14.83c0,0-18.19,4.76-43.37,17.63S151.8,333,143.68,342s-9,18.18-9,18.18H164l28.08-10.62,3.32,10.62H312.66l-2.8-16.22,22.94,9.23Z" style="fill:none;stroke:#263238;stroke-linecap:round;stroke-linejoin:round"></path><path d="M222.58,303.92s-5.67,5.79-5.17,16.22" style="fill:none;stroke:#263238;stroke-linecap:round;stroke-linejoin:round"></path><path d="M221.88,316.66s0,11.92,4,21.35" style="fill:none;stroke:#263238;stroke-linecap:round;stroke-linejoin:round"></path><path d="M266.57,308.22s6.95,12.91,7.45,24.83" style="fill:none;stroke:#263238;stroke-linecap:round;stroke-linejoin:round"></path><path d="M269.55,324.61a28.29,28.29,0,0,1-1,20.85" style="fill:none;stroke:#263238;stroke-linecap:round;stroke-linejoin:round"></path><polyline points="185.09 335.57 192.07 349.53 176.47 333.11" style="fill:none;stroke:#263238;stroke-linecap:round;stroke-linejoin:round"></polyline><line x1="308.98" y1="343.97" x2="290.53" y2="341.48" style="fill:none;stroke:#263238;stroke-linecap:round;stroke-linejoin:round"></line><line x1="309.86" y1="343.93" x2="292.03" y2="338.49" style="fill:none;stroke:#263238;stroke-linecap:round;stroke-linejoin:round"></line><path d="M222.58,303.92s2,16.51,4.47,25.46,5,11.19,5,11.19l7.55-6.43,2,5.87,9,3.64,7-7.56-1.68-5.87,12,5.87s-1.12-17.62-4.76-30.49S247.76,288,237.4,291.89A29.87,29.87,0,0,0,222.58,303.92Z" style="fill:#fff"></path><g style="clip-path:url(#freepik--clip-path-3--inject-272)"><path d="M222.58,303.92s2,16.51,4.47,25.46,5,11.19,5,11.19l7.55-6.43,2,5.87,9,3.64,7-7.56-1.68-5.87,12,5.87s-1.12-17.62-4.76-30.49S247.76,288,237.4,291.89A29.87,29.87,0,0,0,222.58,303.92Z" style="opacity:0.2"></path></g><path d="M222.58,303.92s2,16.51,4.47,25.46,5,11.19,5,11.19l7.55-6.43,2,5.87,9,3.64,7-7.56-1.68-5.87,12,5.87s-1.12-17.62-4.76-30.49S247.76,288,237.4,291.89A29.87,29.87,0,0,0,222.58,303.92Z" style="fill:none;stroke:#263238;stroke-linecap:round;stroke-linejoin:round"></path><g style="clip-path:url(#freepik--clip-path-4--inject-272)"><path d="M238,327.7s9.24,17.35,12.59,15.95,4.76-19,4.76-19A42.37,42.37,0,0,1,238,327.7Z" style="fill:#304163"></path><path d="M238,327.7s9.24,17.35,12.59,15.95,4.76-19,4.76-19A42.37,42.37,0,0,1,238,327.7Z" style="fill:#fff;opacity:0.5"></path></g><path d="M238,327.7s9.24,17.35,12.59,15.95,4.76-19,4.76-19A42.37,42.37,0,0,1,238,327.7Z" style="fill:none;stroke:#263238;stroke-linecap:round;stroke-linejoin:round"></path><path d="M331.08,350.79C330,349,333.27,340.14,333.92,338c2.94-9.57,7.21-20.13,17.77-22.65s19.94,8.81,21.27,15.12-8.64,15.29-13,18.28S337.73,361.42,331.08,350.79Z" style="fill:#fff;stroke:#263238;stroke-linecap:round;stroke-linejoin:round"></path><path d="M371,331.33s-8.62-10.07-14-10.53-11.35,4.53-18.35,15.2-7.24,18.72-3.12,17.21S370.67,340.33,371,331.33Z" style="opacity:0.2"></path><path d="M169.81,351.8s-6.94-14.34-11.72-19.28-10-.77-20.51,7.71-11.26,17.12-10.18,19.59,2.47,2.78,3.39,2.62,6.94-12.18,14.81-13.42,21.75,7.87,24.06,6.33S169.81,351.8,169.81,351.8Z" style="fill:#fff;stroke:#263238;stroke-linecap:round;stroke-linejoin:round"></path><path d="M130,356.67s-.67-3.34,3-9.34S146,336,150.67,336,163,344.67,164,348.67s-17.13,10.16-21.67,10.66S130.67,361.33,130,356.67Z" style="opacity:0.2"></path><path d="M197.45,357s-43.37-12-49.07-14.77-11.11,2-15.74,8.33-4.65,17-3.39,18.81c4.83,6.91,56.6,1.39,56.6,1.39Z" style="fill:#fff;stroke:#263238;stroke-linecap:round;stroke-linejoin:round"></path><path d="M192.66,357.75s-36.33-8-46.84-6.37-16.9,17.53-8,18.8,51.63-1.27,51.63-1.27Z" style="fill:#304163"></path><path d="M192.66,357.75s-36.33-8-46.84-6.37-16.9,17.53-8,18.8,51.63-1.27,51.63-1.27Z" style="fill:#fff;opacity:0.5"></path><path d="M218.28,295.17s3.87,14.85,6.51,19.94,14,16.88,17.5,18.51,9.15-.41,11.19-3.87S262.83,314.7,263,310s.61-13.83.61-13.83,2.23,1.63,3.66.2,2.44-11,.61-15.26-3.66-3.45-4.27-1.62a19.7,19.7,0,0,1-1.43,3.25s-2.24-7.93-7.73-8.54-37.22,12.2-37.22,12.2Z" style="fill:#fff;stroke:#263238;stroke-linecap:round;stroke-linejoin:round"></path><path d="M221.85,293.38s2.31,13.52,4.28,16.81,10.22,18.14,14.51,20.44,7.91,4,10.88-1.32,7.58-13.51,9.23-19.44.33-15.5.33-15.5-2.31-13.84-2.64-18.13S219.21,267.67,221.85,293.38Z" style="fill:#304163"></path><path d="M221.85,293.38s2.31,13.52,4.28,16.81,10.22,18.14,14.51,20.44,7.91,4,10.88-1.32,7.58-13.51,9.23-19.44.33-15.5.33-15.5-2.31-13.84-2.64-18.13S219.21,267.67,221.85,293.38Z" style="fill:#fff;opacity:0.5"></path><path d="M237,301.88s1.63,8.55-.61,13.63c0,0,4.07,2.44,6.91-2.44" style="fill:none;stroke:#263238;stroke-linecap:round;stroke-linejoin:round"></path><path d="M244.32,301.88c-1.86-3.59,1.62-11.91,11.8-3.66C256.12,298.22,245.54,294,244.32,301.88Z" style="fill:#263238"></path><path d="M237.2,303.51s-.81-3.25-5.08-5.29-5.9-2.24-5.9-2.24S238,293.54,237.2,303.51Z" style="fill:#263238"></path><path d="M245.34,320.19s5.29-.61,8.75-6.91" style="fill:none;stroke:#263238;stroke-linecap:round;stroke-linejoin:round"></path><path d="M250.63,317.34s-.82-7.93,1.42-8.13,1.08,5.6,1.08,5.6Z" style="fill:#304163;stroke:#263238;stroke-linecap:round;stroke-linejoin:round"></path><path d="M249.77,303.69c0,1.13-.5,2.05-1.11,2.05s-1.1-.92-1.1-2.05.49-2.05,1.1-2.05S249.77,302.56,249.77,303.69Z" style="fill:#263238"></path><path d="M234,304.48c0,1.13-.5,2-1.11,2s-1.1-.92-1.1-2,.49-2.05,1.1-2.05S234,303.34,234,304.48Z" style="fill:#263238"></path><path d="M247.09,305.74a6.34,6.34,0,0,0,3.94-1.26" style="fill:none;stroke:#263238;stroke-linecap:round;stroke-linejoin:round;stroke-width:0.75px"></path><path d="M230.89,306.29a6.38,6.38,0,0,0,4.14-.16" style="fill:none;stroke:#263238;stroke-linecap:round;stroke-linejoin:round;stroke-width:0.75px"></path><path d="M199.75,349.71s8.4-2,11.19-.28,1.12,12.87-.27,14.55-4.2,1.68-4.2-1.4a30.84,30.84,0,0,1,.84-6.43h-4.48Z" style="fill:#fff"></path><g style="clip-path:url(#freepik--clip-path-5--inject-272)"><path d="M211.08,362.19c.15-2.81.74-6.49-1.18-9.29s-7.08-1.33-7.08-1.33l1.07,4.58h3.42a30.84,30.84,0,0,0-.84,6.43,4,4,0,0,0,.11,1C208.36,364.31,211,364.44,211.08,362.19Z" style="fill:#304163"></path><path d="M211.08,362.19c.15-2.81.74-6.49-1.18-9.29s-7.08-1.33-7.08-1.33l1.07,4.58h3.42a30.84,30.84,0,0,0-.84,6.43,4,4,0,0,0,.11,1C208.36,364.31,211,364.44,211.08,362.19Z" style="fill:#fff;opacity:0.5"></path></g><path d="M199.75,349.71s8.4-2,11.19-.28,1.12,12.87-.27,14.55-4.2,1.68-4.2-1.4a30.84,30.84,0,0,1,.84-6.43h-4.48Z" style="fill:none;stroke:#263238;stroke-linecap:round;stroke-linejoin:round"></path><polygon points="213.41 371.4 214.11 375.01 211.36 372.39 191.27 330.65 193.33 329.67 213.41 371.4" style="fill:#fff;stroke:#263238;stroke-linecap:round;stroke-linejoin:round"></polygon><polygon points="211.36 372.39 214.11 375.01 213.41 371.4 213.29 371.14 211.34 372.34 211.36 372.39" style="fill:#fff;stroke:#263238;stroke-linecap:round;stroke-linejoin:round"></polygon><polygon points="193.33 329.67 191.27 330.65 193.08 334.4 195.09 333.33 193.33 329.67" style="fill:#fff;stroke:#263238;stroke-linecap:round;stroke-linejoin:round"></polygon><path d="M195,353.07a53.41,53.41,0,0,1-3.92,7c-1.68,2.24-6.43,5.88-7,9.8s7.55,8.11,11.19,8.67,9.79-4.2,11.19-4.76,3.08-1.4,1.12-5.59S195,353.07,195,353.07Z" style="fill:#fff"></path><g style="clip-path:url(#freepik--clip-path-6--inject-272)"><path d="M207.59,368.18c-1-2.23-4.53-6.36-7.58-9.74l-1.61.27s-3.82,3.82-3.82,6.37,3.82,6.06,3.82,6.06-5.74-1.28-7,.64A2.25,2.25,0,0,0,192,375a24.33,24.33,0,0,0-6.06-1.22,20.64,20.64,0,0,0,9.31,4.79c3.64.56,9.79-4.2,11.19-4.76S209.55,372.37,207.59,368.18Z" style="fill:#304163"></path><path d="M207.59,368.18c-1-2.23-4.53-6.36-7.58-9.74l-1.61.27s-3.82,3.82-3.82,6.37,3.82,6.06,3.82,6.06-5.74-1.28-7,.64A2.25,2.25,0,0,0,192,375a24.33,24.33,0,0,0-6.06-1.22,20.64,20.64,0,0,0,9.31,4.79c3.64.56,9.79-4.2,11.19-4.76S209.55,372.37,207.59,368.18Z" style="fill:#fff;opacity:0.5"></path></g><path d="M195,353.07a53.41,53.41,0,0,1-3.92,7c-1.68,2.24-6.43,5.88-7,9.8s7.55,8.11,11.19,8.67,9.79-4.2,11.19-4.76,3.08-1.4,1.12-5.59S195,353.07,195,353.07Z" style="fill:none;stroke:#263238;stroke-linecap:round;stroke-linejoin:round"></path><path d="M195,348.3a4,4,0,0,1,6.19,1.32c2.64,5.13,8.11,15.89,8.11,17.16,0,1.68.28,4.19-2.8,2.24s-9.51-10.63-11.19-13.15C194.09,354.08,192.76,350.33,195,348.3Z" style="fill:#fff"></path><g style="clip-path:url(#freepik--clip-path-7--inject-272)"><path d="M204.74,357s-2.51-4-5.31-2.66,4.87,12.68,6.19,14.3,2.95,1.33,3.4.15.14-2.65-.59-5.45S204.74,357,204.74,357Z" style="fill:#304163"></path><path d="M204.74,357s-2.51-4-5.31-2.66,4.87,12.68,6.19,14.3,2.95,1.33,3.4.15.14-2.65-.59-5.45S204.74,357,204.74,357Z" style="fill:#fff;opacity:0.5"></path></g><path d="M195,348.3a4,4,0,0,1,6.19,1.32c2.64,5.13,8.11,15.89,8.11,17.16,0,1.68.28,4.19-2.8,2.24s-9.51-10.63-11.19-13.15C194.09,354.08,192.76,350.33,195,348.3Z" style="fill:none;stroke:#263238;stroke-linecap:round;stroke-linejoin:round"></path><path d="M191.36,362.58A57.37,57.37,0,0,0,197,371c2.51,2.8,11.47,1.4,11.47,1.4" style="fill:none;stroke:#263238;stroke-linecap:round;stroke-linejoin:round"></path><path d="M186.89,368.18s4.75,7.27,7.27,8.67,9.23-1.68,9.23-1.68" style="fill:none;stroke:#263238;stroke-linecap:round;stroke-linejoin:round"></path><path d="M295,364.58s-8.31-1.33-9.81-.83-3.65,3-9.47,4.65-7.48,2.83-5.32,3.83a14.28,14.28,0,0,0,9.48,0c3-1.17,5.65-3,6.31-3.16a17.58,17.58,0,0,1,3.82.66S294.52,367.57,295,364.58Z" style="fill:#fff;stroke:#263238;stroke-linecap:round;stroke-linejoin:round"></path><path d="M363.82,326.19c-19.15-2.81-22.71,13.7-33.84,27.16-8.51,10.28-15.88,14.41-18.89,15.79-3.65-2.6-8-5.38-10.59-6.05-5.15-1.33-6.64,1.33-8.8,3.49s-17.12,11-17.95,12.63,1.16,2,2.49,2.16,5.82-1.5,5.82-1.5-4,1.83-3,3.16,10.13-1.17,13.29-2.33c0,0-8.31,3.82-7.81,5.15s3.49.83,5.48.33,12.8-4.32,12.8-4.32-8,3.66-10,4.82,1,2,2.49,2,8.64-3.33,11.8-4.32S317,383,321.44,380.7a19.14,19.14,0,0,0,4.37-3c9.06-4.84,35.84-19.95,42.32-31.09C375.27,334.32,373.73,327.65,363.82,326.19Z" style="fill:#fff"></path><g style="clip-path:url(#freepik--clip-path-8--inject-272)"><path d="M363.82,326.19a28.33,28.33,0,0,0-4.08-.3c.24.19,3.52,3,1.59,9.11-2,6.33-36.66,37.67-40.33,39s-12.33-4.33-12-2.33,4,5.66,3.33,7S301.67,385,298,387.33a11.79,11.79,0,0,0-1.42,1.08c2.6-.81,7.95-3.23,10.57-4.05,3.16-1,9.81-1.33,14.29-3.66a19.14,19.14,0,0,0,4.37-3c9.06-4.84,35.84-19.95,42.32-31.09C375.27,334.32,373.73,327.65,363.82,326.19Z" style="fill:#304163"></path><path d="M363.82,326.19a28.33,28.33,0,0,0-4.08-.3c.24.19,3.52,3,1.59,9.11-2,6.33-36.66,37.67-40.33,39s-12.33-4.33-12-2.33,4,5.66,3.33,7S301.67,385,298,387.33a11.79,11.79,0,0,0-1.42,1.08c2.6-.81,7.95-3.23,10.57-4.05,3.16-1,9.81-1.33,14.29-3.66a19.14,19.14,0,0,0,4.37-3c9.06-4.84,35.84-19.95,42.32-31.09C375.27,334.32,373.73,327.65,363.82,326.19Z" style="fill:#fff;opacity:0.5"></path></g><path d="M363.82,326.19c-19.15-2.81-22.71,13.7-33.84,27.16-8.51,10.28-15.88,14.41-18.89,15.79-3.65-2.6-8-5.38-10.59-6.05-5.15-1.33-6.64,1.33-8.8,3.49s-17.12,11-17.95,12.63,1.16,2,2.49,2.16,5.82-1.5,5.82-1.5-4,1.83-3,3.16,10.13-1.17,13.29-2.33c0,0-8.31,3.82-7.81,5.15s3.49.83,5.48.33,12.8-4.32,12.8-4.32-8,3.66-10,4.82,1,2,2.49,2,8.64-3.33,11.8-4.32S317,383,321.44,380.7a19.14,19.14,0,0,0,4.37-3c9.06-4.84,35.84-19.95,42.32-31.09C375.27,334.32,373.73,327.65,363.82,326.19Z" style="fill:none;stroke:#263238;stroke-linecap:round;stroke-linejoin:round"></path><path d="M282.06,379.87s15.29-8.48,17.78-11.63" style="fill:none;stroke:#263238;stroke-linecap:round;stroke-linejoin:round"></path><path d="M292.36,380.7s9-3.82,12.13-6.15" style="fill:none;stroke:#263238;stroke-linecap:round;stroke-linejoin:round"></path><path d="M302.83,381.86s5.82-2,7.48-3.32" style="fill:none;stroke:#263238;stroke-linecap:round;stroke-linejoin:round"></path><line x1="311.09" y1="369.14" x2="314.67" y2="372" style="fill:none;stroke:#263238;stroke-linecap:round;stroke-linejoin:round"></line><path d="M254.9,279.3s-.61,4.68-14.85,12.21-24.61,5.69-26,4.68-5.9-13.84-2.44-27.87S230.08,248,243.1,248s19.94,9.56,22.38,17.08-1.43,28.08-1.43,28.08S256.12,291.1,254.9,279.3Z" style="fill:#263238;stroke:#263238;stroke-linecap:round;stroke-linejoin:round"></path><path d="M254.25,280.59S251.2,294.83,223,300.42" style="fill:none;stroke:#263238;stroke-linecap:round;stroke-linejoin:round"></path><path d="M255,251.62s-7.88-12.45-30.5-2" style="fill:none;stroke:#263238;stroke-linecap:round;stroke-linejoin:round"></path><path d="M256.54,253.15a8.47,8.47,0,0,1,8.13,3.55" style="fill:none;stroke:#263238;stroke-linecap:round;stroke-linejoin:round"></path><path d="M254.46,266.69s-1.52,16.71-30.39,22" style="fill:none;stroke:#fff;stroke-linecap:round;stroke-linejoin:round"></path><path d="M217.24,278.8c-1-.07-2-.18-3-.34" style="fill:none;stroke:#fff;stroke-linecap:round;stroke-linejoin:round"></path><path d="M253.32,262.13S240,277.49,221.79,278.78" style="fill:none;stroke:#fff;stroke-linecap:round;stroke-linejoin:round"></path></g></svg>